<svg xmlns="http://www.w3.org/2000/svg" version="1.1" x="0" y="0" viewBox="0 0 100 125" xml:space="preserve"><path d="M94.5 60.6l-7.1-14.2v-16c0-0.6-0.4-1-1-1H44.2c-0.6 0-1 0.4-1 1v16l-7.1 14.2 0 0C36 60.7 36 60.9 36 61V71v9.2h2V72h54.6v8.2h2v-8.6h-0.3c0.2-0.2 0.3-0.4 0.3-0.7V61C94.6 60.9 94.5 60.7 94.5 60.6L94.5 60.6zM44.4 48.5h7v3c0 0.6 0.4 1 1 1h25.8c0.6 0 1-0.4 1-1v-3h7L92 60H38.6L44.4 48.5zM77.2 40.9v9.6H66.3v-9.6H77.2zM64.3 50.5H53.4v-9.6h10.9V50.5zM45.2 31.4h40.2v15.1h-6.2v-6.6c0-0.6-0.4-1-1-1H52.4c-0.6 0-1 0.4-1 1v6.6h-6.2V31.4zM38 62h54.6V70H38V62z"/><rect x="14.9" y="55.3" width="5.3" height="2"/><rect x="14.9" y="45.9" width="5.3" height="2"/><path d="M7.2 80.2h2V77H26v3.2h2V77h1.8V41.1h-11v-9.3h8.5l-2.6-12.9h-14L8 31.7h8.7v9.3H5.4V77h1.8V80.2zM12.2 20.8h10.7l1.8 8.9H10.4L12.2 20.8zM27.7 60.2H7.4v-7.5h20.3V60.2zM7.4 62.2h20.3V75H7.4V62.2zM27.7 43.1v7.6H7.4v-7.6H27.7z"/><rect x="14.9" y="65.3" width="5.3" height="2"/></svg>