<?xml version="1.0" standalone="no"?>
<!DOCTYPE svg PUBLIC "-//W3C//DTD SVG 20010904//EN"
 "http://www.w3.org/TR/2001/REC-SVG-20010904/DTD/svg10.dtd">
<svg version="1.0" xmlns="http://www.w3.org/2000/svg"
 width="768.000000pt" height="1140.000000pt" viewBox="0 0 768.000000 1140.000000"
 preserveAspectRatio="xMidYMid meet">

<g transform="translate(0.000000,1140.000000) scale(0.100000,-0.100000)"
fill="#000000" stroke="none">
<path d="M3680 11385 c-216 -30 -391 -84 -571 -176 -376 -194 -621 -514 -710
-927 -26 -124 -37 -421 -20 -542 47 -316 194 -608 431 -850 206 -211 456 -341
745 -385 61 -10 120 -19 132 -21 19 -4 21 -8 13 -35 -15 -51 -39 -80 -83 -99
-66 -29 -131 -33 -275 -16 -173 21 -313 21 -383 0 -71 -21 -189 -83 -342 -182
-161 -105 -231 -139 -407 -200 -260 -89 -457 -178 -506 -227 -34 -34 -32 -104
6 -229 38 -125 38 -155 3 -187 -67 -61 -241 -178 -503 -339 -245 -150 -393
-251 -520 -355 -112 -92 -181 -123 -244 -111 -33 6 -96 64 -151 139 -16 22
-44 49 -63 62 -29 20 -39 22 -56 13 -38 -20 -86 -63 -86 -76 0 -7 34 -45 75
-85 136 -130 119 -169 -83 -196 -41 -5 -76 -12 -79 -15 -10 -10 18 -63 50 -94
55 -53 126 -76 331 -107 l39 -6 -9 -52 c-12 -79 -11 -214 3 -228 13 -13 63 2
83 26 5 7 51 126 100 265 50 139 97 261 104 272 21 30 174 149 283 221 112 74
288 176 518 302 88 48 177 102 199 121 21 18 51 37 67 43 27 9 31 7 58 -32 59
-87 141 -271 255 -574 15 -40 31 -75 36 -78 13 -8 170 23 247 49 39 13 118 47
175 74 130 63 149 67 181 42 47 -37 51 -84 38 -494 -7 -204 -16 -479 -21 -611
-6 -132 -10 -316 -11 -410 -1 -242 -12 -343 -48 -460 -20 -65 -53 -239 -96
-500 -78 -475 -100 -589 -165 -840 -73 -283 -83 -347 -78 -505 3 -95 9 -146
21 -172 l16 -38 278 2 c153 2 292 -1 309 -5 l31 -8 -12 -77 c-7 -42 -40 -212
-74 -377 -95 -470 -110 -610 -111 -1025 -1 -329 -16 -632 -35 -705 -22 -85
-56 -146 -95 -173 -32 -21 -42 -22 -201 -21 -92 0 -173 -2 -180 -6 -7 -5 -9
-23 -6 -49 7 -49 47 -89 104 -105 48 -14 261 -14 506 -1 204 11 240 20 258 68
9 23 7 30 -15 48 -24 21 -102 44 -149 44 -65 1 -64 0 -72 145 -12 228 11 539
75 1010 16 121 41 339 55 485 36 376 63 528 125 692 l21 58 242 2 242 3 30 85
c36 100 56 133 91 148 65 30 111 7 153 -77 16 -31 37 -63 45 -70 9 -8 67 -20
129 -28 61 -7 135 -20 163 -28 88 -25 91 -31 119 -201 26 -162 64 -456 90
-699 25 -238 52 -379 121 -638 89 -331 122 -493 136 -681 14 -183 17 -177 -83
-197 -67 -13 -99 -38 -99 -78 0 -35 23 -46 137 -66 93 -16 571 -38 625 -29 86
15 119 49 96 99 -23 51 -123 77 -302 80 -121 1 -130 3 -147 24 -27 33 -38 82
-49 217 -7 83 -22 165 -49 265 -58 214 -71 280 -180 929 -55 327 -115 677
-132 778 -18 100 -29 185 -27 188 3 3 100 11 214 19 251 17 269 22 278 75 15
98 -30 391 -134 870 -88 405 -124 631 -152 955 -19 225 -16 1023 5 1570 22
565 23 577 48 610 33 41 74 33 306 -54 225 -86 308 -107 360 -92 74 21 107 65
168 220 25 64 55 128 67 143 l23 27 100 -60 c140 -85 234 -131 568 -280 161
-72 358 -164 439 -206 143 -73 342 -195 364 -224 6 -8 14 -43 18 -79 8 -86 48
-164 106 -208 l44 -34 17 21 c10 12 20 40 24 64 10 59 31 107 48 107 8 0 41
-18 73 -40 61 -42 117 -53 142 -28 7 7 12 35 12 64 0 60 -16 81 -101 136 -30
19 -63 45 -74 57 -29 33 -26 89 9 142 40 59 46 119 15 147 -30 29 -81 38 -122
21 -17 -7 -63 -42 -100 -77 -79 -74 -66 -74 -232 -4 -161 68 -340 162 -595
311 -205 121 -309 175 -549 287 -159 74 -170 114 -96 344 25 77 45 157 45 178
0 57 -32 98 -116 150 -42 26 -137 87 -212 136 -149 96 -273 161 -494 259 -79
35 -199 96 -268 136 -182 104 -180 104 -498 95 -235 -6 -275 -5 -325 10 -63
18 -97 56 -97 108 0 31 5 33 105 43 250 27 504 112 681 228 200 132 387 353
503 597 99 209 137 405 128 670 -9 245 -55 421 -168 640 -77 149 -161 260
-292 386 -201 195 -431 312 -696 358 -113 19 -315 20 -451 1z m415 -140 c253
-41 472 -159 657 -354 244 -258 371 -560 385 -916 20 -502 -255 -958 -711
-1180 -127 -62 -226 -96 -370 -127 -85 -18 -133 -22 -301 -22 -185 0 -207 2
-298 27 -129 34 -282 109 -382 185 -172 129 -355 349 -438 524 -141 298 -166
674 -66 982 86 263 226 456 444 611 296 211 748 324 1080 270z m-492 -3086
c217 -13 394 -11 542 7 170 21 325 14 460 -20 167 -43 204 -59 750 -327 286
-139 385 -213 398 -296 12 -74 -1 -119 -151 -535 -77 -213 -113 -288 -157
-327 -30 -26 -44 -31 -89 -31 -66 0 -128 21 -303 103 -175 83 -203 94 -285
117 l-67 18 -10 -31 c-20 -60 -31 -172 -31 -312 0 -77 -7 -257 -15 -400 -25
-447 -37 -824 -29 -976 l6 -147 -70 -16 c-93 -21 -526 -22 -947 -2 -165 8
-400 18 -523 22 l-223 7 -11 26 c-20 52 -20 145 0 281 33 212 41 321 52 695 5
193 12 406 16 474 l6 124 -70 68 -70 69 -99 -37 c-142 -52 -311 -101 -381
-109 l-61 -6 -44 88 c-86 172 -226 550 -278 753 -48 187 -7 282 147 340 27 11
116 33 199 51 172 37 231 61 403 167 286 175 405 196 935 162z m889 -3350 c29
-6 70 -20 90 -30 l37 -19 -6 -93 c-10 -162 15 -356 101 -757 19 -91 42 -226
50 -300 13 -112 39 -508 49 -730 l2 -55 -145 -18 c-84 -10 -228 -18 -345 -20
-172 -2 -207 1 -252 16 -67 24 -110 73 -153 175 -42 101 -96 184 -118 180 -21
-4 -66 -94 -86 -174 -64 -256 -131 -298 -410 -262 -70 9 -145 9 -326 -1 -233
-12 -357 -7 -426 19 -23 9 -23 10 -9 57 45 146 152 817 210 1318 14 121 37
273 50 337 22 110 76 283 92 299 11 11 237 26 568 39 806 32 951 35 1027 19z"/>
<path d="M3389 10541 c-81 -25 -113 -80 -114 -191 0 -121 51 -180 157 -180 83
0 132 30 171 105 28 55 30 157 2 203 -35 58 -134 87 -216 63z"/>
<path d="M4222 10489 c-72 -36 -121 -118 -122 -207 0 -54 20 -93 67 -129 30
-23 48 -28 107 -31 62 -3 76 -1 106 20 53 36 82 98 88 182 3 62 1 75 -20 106
-28 42 -98 80 -148 80 -19 0 -54 -10 -78 -21z"/>
<path d="M4172 9569 c-11 -11 -30 -56 -42 -100 -31 -109 -65 -153 -148 -192
-66 -31 -69 -32 -212 -31 -130 0 -153 3 -227 28 -56 18 -103 42 -145 75 -82
62 -100 71 -143 71 -53 0 -95 -44 -95 -100 0 -56 21 -91 77 -133 236 -172 623
-217 862 -101 138 68 231 226 231 393 0 37 -5 52 -22 68 -53 47 -105 56 -136
22z"/>
</g>
</svg>
