<svg xmlns="http://www.w3.org/2000/svg" xmlns:xlink="http://www.w3.org/1999/xlink" version="1.1" x="0px" y="0px" viewBox="0 0 100 125" enable-background="new 0 0 100 100" xml:space="preserve"><g><path fill="none" d="M12.816,90.681c-0.183,0.138-0.314,0.311-0.39,0.517c-0.043,0.116-0.057,0.252-0.068,0.395   c0,0.004-0.001,0.007-0.001,0.01c0.133-0.349,0.299-0.76,0.608-1.034c-0.014,0.003-0.029,0.005-0.044,0.006   C12.891,90.616,12.856,90.651,12.816,90.681z"/><path fill="none" d="M12.449,55.986l0.318-0.01c0.47-0.014,0.94-0.028,1.406-0.083c0.616-0.07,1.806-0.628,1.94-1.078   c0.007-0.022,0.022-0.072-0.026-0.156c-0.517,0.197-1.034,0.374-1.549,0.531c-1.546,0.47-3.079,0.757-4.585,0.858   c0.145-0.003,0.289-0.006,0.433-0.01c0.144-0.003,0.289-0.007,0.433-0.01C11.364,56.016,11.907,56.005,12.449,55.986z"/><path fill="none" d="M13.221,57.74l-0.1,0.002c-1.474,0.032-2.985-0.016-4.53-0.155c-0.016,0.941-0.033,1.898-0.052,2.864   c-0.001,0.054-0.002,0.106-0.003,0.159c0.105-0.207,0.309-0.32,0.526-0.344c0.003,0,0.007,0.001,0.01,0.001   c0.104-0.01,0.207,0.003,0.307,0.038c0.028,0.01,0.051,0.029,0.078,0.042c0.052,0.026,0.108,0.042,0.153,0.083   c0.009-0.047,0.017-0.095,0.027-0.141c0.08-0.355,0.362-0.585,0.706-0.585c0.226,0,0.449,0.102,0.598,0.275   c0.149,0.172,0.212,0.392,0.179,0.62c-0.153,0.944-0.287,1.957-0.24,3.017c0.006,0.135-0.078,0.358-0.171,0.456   c-0.122,0.127-0.295,0.2-0.475,0.2c-0.314,0-0.571-0.222-0.61-0.529c-0.054-0.343-0.09-0.673-0.114-0.996   c-0.001-0.015-0.004-0.031-0.005-0.046c-0.007,0.036-0.013,0.073-0.02,0.109c-0.039,0.21-0.072,0.419-0.101,0.63   c-0.011,0.084-0.023,0.168-0.032,0.253c-0.031,0.282-0.053,0.565-0.053,0.856c0,0.325-0.228,0.575-0.533,0.637   c-0.015,0.004-0.03,0.006-0.045,0.009c-0.03,0.004-0.056,0.017-0.087,0.017c-0.045,0-0.085-0.016-0.128-0.024   c-0.021-0.004-0.042,0.004-0.063-0.002c-0.002,0.112-0.005,0.228-0.008,0.341c-0.002,0.068-0.003,0.139-0.005,0.207   c-0.014,0.624-0.028,1.253-0.044,1.894c-0.003,0.139-0.007,0.284-0.01,0.424c-0.031,1.321-0.065,2.675-0.101,4.085   c-0.02,0.775-0.041,1.564-0.062,2.369l-0.008,0.287c-0.072,2.574-0.144,5.149-0.23,7.723c-0.014,0.451-0.038,0.912-0.062,1.377   c-0.146,2.804-0.297,5.703,1.648,7.79c0.097,0.103,0.166,0.225,0.203,0.354c0.491,0.264,0.876,0.351,1.144,0.256   c0.417-0.152,0.426-0.279,0.457-0.7c0.016-0.221,0.035-0.472,0.134-0.739c0.107-0.29,0.272-0.545,0.491-0.762   c-0.551-3.758-0.998-7.587-1.43-11.293l-0.23-1.967c-0.024-0.225,0.039-0.432,0.179-0.587c0.141-0.157,0.351-0.247,0.575-0.247   c0.429,0,0.774,0.304,0.819,0.723l0.221,1.864c0.424,3.559,0.86,7.233,1.194,10.866c0.151-0.023,0.299-0.033,0.446-0.03   c0.438,0.007,0.854,0.125,1.248,0.345c-0.637-10.094-1.577-18.506-2.946-26.387c-0.042-0.254,0.024-0.495,0.185-0.685   c0.164-0.192,0.411-0.307,0.663-0.307c0.381,0,0.688,0.255,0.763,0.635c1.863,9.839,2.791,19.264,2.759,28.016   c0,0.05-0.005,0.099-0.016,0.147c0.196,0.311,0.372,0.653,0.52,1.008c0.108,0.044,0.208,0.063,0.302,0.056   c0.282-0.019,0.512-0.267,0.763-0.764c0.018-0.043,0.032-0.183,0.042-0.275c0.018-0.174,0.039-0.371,0.11-0.548   c0.148-0.363,0.375-0.69,0.664-0.958c-0.31-5.099-1.049-9.714-2.257-14.102c-0.064-0.242-0.017-0.486,0.127-0.673   c0.149-0.194,0.388-0.31,0.638-0.31c0.347,0,0.638,0.216,0.741,0.551c1.381,4.663,2.081,9.316,2.085,13.846   c0.897-0.177,1.813,0.157,2.45,0.86c0.234-0.055,0.412-0.174,0.55-0.364c0.841-1.165-0.014-4.393-0.335-5.609l-0.113-0.439   c-0.299-1.249-0.604-2.49-0.916-3.723c-0.624-2.483-1.275-4.953-1.94-7.422c-0.598-2.22-1.254-4.47-1.888-6.646   c-0.782-2.685-1.59-5.457-2.303-8.216C14.861,57.706,13.999,57.724,13.221,57.74z"/><path fill="none" d="M21.943,50.254c-0.642,0.448-1.308,0.866-1.991,1.264c-0.186,0.108-0.379,0.209-0.568,0.314   c-0.531,0.294-1.076,0.574-1.633,0.839c-0.215,0.102-0.428,0.206-0.647,0.304c-0.745,0.335-1.506,0.654-2.298,0.941   c-0.054,0.02-0.109,0.03-0.164,0.03c-0.044,0.038-0.096,0.068-0.154,0.087c-0.702,0.246-1.417,0.467-2.137,0.672   c-0.045,0.013-0.088,0.029-0.133,0.042c0.012-0.002,0.025-0.003,0.037-0.006c0.422-0.084,0.848-0.199,1.273-0.312   c0.203-0.054,0.405-0.093,0.609-0.154c0.631-0.188,1.265-0.406,1.9-0.659c0.084-0.033,0.173-0.04,0.258-0.027   c0.019,0.003,0.033,0.017,0.052,0.022c0.062,0.017,0.124,0.034,0.176,0.075c0.003-0.022,0.008-0.044,0.014-0.067   c0.039-0.144,0.141-0.262,0.278-0.323c2.249-0.99,4.441-2.382,6.475-4.047c-0.342,0.271-0.695,0.527-1.05,0.782   C22.14,50.104,22.044,50.183,21.943,50.254z"/><path fill="none" d="M34.27,8.078c-2.162,0.028-4.323,0.056-6.486,0.076c0,0.015,0,0.031,0,0.046   c-0.069,5.083-0.056,9.315,0.039,13.27c0.765,0.252,1.598,0.321,2.486,0.204c0.495-0.144,1.074-0.342,1.653-0.573l0.223-0.079   c-0.033-2.039,0.263-4.067,0.881-6.034c0.173-0.541,0.965-0.663,1.298-0.228c0.137,0.178,0.181,0.409,0.12,0.633   c-0.462,1.681-0.756,3.374-0.894,5.154c0.38-0.109,0.789-0.2,1.215-0.233c0.38-0.03,0.749-0.013,1.142,0.047   c-0.472-4.221-0.416-8.451,0.165-12.307L34.27,8.078z"/><path fill="none" d="M35.257,22.182c-0.779,0-1.4,0.143-2.083,0.359c-0.065,0.035-0.137,0.059-0.213,0.07L32.4,22.799   c-0.254,0.086-0.517,0.176-0.797,0.266c-1.653,0.503-2.425,0.548-4.019,0.245l-0.196-0.033c-0.182,0.052-0.389,0.013-0.54-0.094   c-0.929-0.16-1.612-0.23-2.264-0.23c-0.849,0-1.628,0.128-2.381,0.391c-0.277,0.098-0.45,0.198-0.633,0.303   c-0.31,0.18-0.63,0.365-1.288,0.43c-0.785,0.07-1.433-0.111-2.025-0.382c-0.113-0.052-0.225-0.108-0.334-0.165   c-0.005-0.002-0.01-0.005-0.014-0.007c-0.067-0.035-0.132-0.072-0.198-0.109c-0.159-0.088-0.317-0.179-0.473-0.27   c-0.433-0.252-0.843-0.491-1.292-0.66c-0.566-0.212-1.098-0.316-1.625-0.316c-0.909,0-1.683,0.309-2.503,0.636   c-0.364,0.145-0.739,0.286-1.126,0.409c-0.079,0.025-0.155,0.054-0.236,0.076c-0.147,0.042-0.303,0.069-0.456,0.101   c-0.101,0.021-0.199,0.046-0.302,0.061c-0.132,0.019-0.272,0.023-0.41,0.032c-0.113,0.008-0.22,0.026-0.337,0.027h0   c-0.066,0-0.131-0.002-0.198-0.004c0.068,0.613,0.122,1.23,0.163,1.85c0.024-0.006,0.05,0.002,0.074-0.001   c0.037-0.005,0.069-0.02,0.108-0.02c0.032,0,0.058,0.013,0.089,0.016c0.037,0.004,0.069,0.01,0.104,0.019   c0.068,0.018,0.129,0.045,0.187,0.081c0.019,0.011,0.044,0.013,0.062,0.027c0.006-0.031,0.023-0.056,0.032-0.086   c0.011-0.034,0.021-0.067,0.037-0.098c0.023-0.045,0.053-0.083,0.084-0.121c0.022-0.026,0.04-0.053,0.065-0.076   c0.04-0.036,0.087-0.062,0.136-0.088c0.026-0.014,0.048-0.033,0.076-0.043c0.08-0.031,0.166-0.049,0.259-0.049   c0.39,0,0.692,0.295,0.702,0.686c0.026,0.564-0.002,1.142-0.028,1.701l-0.026,0.59c-0.012,0.356-0.291,0.625-0.648,0.625   c-0.086,0-0.168-0.016-0.243-0.046c-0.022-0.009-0.039-0.026-0.06-0.037c-0.048-0.025-0.097-0.048-0.137-0.084   c-0.015,0.161-0.032,0.323-0.049,0.481c-0.028,0.27-0.206,0.477-0.447,0.553c-0.006,0.002-0.012,0.002-0.018,0.003   c-0.058,0.017-0.116,0.033-0.18,0.033c-0.011,0-0.019-0.005-0.03-0.006c-0.009,0-0.018,0.004-0.027,0.004   c0,0.558-0.012,1.115-0.021,1.673c-0.005,0.296-0.005,0.593-0.011,0.888c-0.02,0.887-0.046,1.77-0.073,2.647   c-0.046,1.514-0.091,3.019-0.101,4.503c-0.04,5.151-0.11,10.296-0.188,15.445c0.319-0.064,0.636-0.13,0.949-0.199   c3.822-5.997,4.631-14.379,5.129-22.458c0.028-0.454,0.397-0.797,0.858-0.797c0.228,0,0.447,0.089,0.6,0.244   c0.151,0.154,0.233,0.363,0.229,0.591c-0.014,0.855-0.062,1.707-0.123,2.557c-0.013,0.181-0.025,0.36-0.04,0.54   c-0.067,0.817-0.149,1.63-0.249,2.434c-0.004,0.036-0.007,0.073-0.011,0.109c0.041-0.145,0.085-0.288,0.132-0.428   c0.117-0.351,0.478-0.558,0.829-0.486c0.004-0.151,0.009-0.302,0.014-0.454c0.017-0.409,0.336-0.715,0.742-0.715   c0.405,0,0.724,0.305,0.742,0.712c0.079,1.259-0.09,2.51-0.368,3.997c-0.055,0.309-0.322,0.527-0.647,0.527   c-0.088,0-0.171-0.021-0.25-0.052c-0.022-0.009-0.042-0.02-0.063-0.03c-0.025-0.013-0.052-0.02-0.074-0.036   c-0.002,0.019-0.004,0.038-0.006,0.058c-0.029,0.401-0.045,0.804-0.038,1.212c0.005,0.175-0.058,0.343-0.18,0.468   c-0.12,0.124-0.291,0.195-0.469,0.195c0,0,0,0,0,0c-0.349,0-0.637-0.261-0.67-0.608c-0.04-0.395-0.058-0.779-0.066-1.158   c-0.002-0.099-0.003-0.197-0.002-0.295c0-0.099-0.005-0.201-0.003-0.299c-0.012,0.075-0.026,0.145-0.039,0.22   c-0.133,0.811-0.274,1.608-0.42,2.389c-0.031,0.167-0.062,0.328-0.094,0.493c-0.149,0.779-0.3,1.547-0.45,2.286   c-0.525,2.603-1.285,5.569-2.925,8.274c0.686-0.188,1.369-0.395,2.041-0.621c0.032-0.133,0.105-0.257,0.215-0.353   c6.641-6.004,9.048-13.811,11.597-22.078c0.304-0.986,0.61-1.977,0.924-2.971c0.115-0.357,0.425-0.588,0.791-0.588   c0.258,0,0.507,0.119,0.665,0.316c0.156,0.195,0.213,0.452,0.157,0.706c-1.521,7.093-4.283,16.936-10.948,23.609   c3.817-1.783,7.003-4.237,9.685-7.448c4.684-5.612,7.76-13.294,8.909-22.237c-0.111-0.013-0.218-0.019-0.324-0.021L35.257,22.182z    M33.783,30.962c-0.07,0.283-0.339,0.489-0.651,0.489c0,0,0,0,0,0c-0.199,0-0.385-0.082-0.511-0.226   c-0.122-0.139-0.175-0.319-0.15-0.506c0.039-0.327,0.077-0.647,0.118-0.96c-0.069-0.033-0.131-0.075-0.172-0.121   c-0.111-0.123-0.162-0.283-0.145-0.452c0.059-0.947,0.126-1.917,0.193-2.883c0.025-0.395,0.313-0.664,0.673-0.664   c0.191,0,0.37,0.079,0.492,0.217c0.12,0.137,0.173,0.315,0.148,0.501c-0.005,0.047-0.01,0.095-0.014,0.142   c0.226-0.025,0.468,0.06,0.62,0.224c0.13,0.141,0.194,0.327,0.178,0.525C34.441,28.514,34.124,29.727,33.783,30.962z"/><path fill="none" d="M39.021,7.004c-3.523-0.021-7.049-0.042-10.575-0.042c-4.474,0-9.998,0.03-15.848,0.217   c0.782,0.01,1.582,0.017,2.395,0.023c0.297,0.002,0.592,0.004,0.892,0.006c0.703,0.004,1.426,0.006,2.155,0.007   c0.394,0,0.791,0.001,1.189,0c2.587-0.002,5.174-0.017,7.763-0.043c0.606-0.005,1.211-0.014,1.816-0.021   c1.816-0.019,3.631-0.039,5.447-0.062l2.447-0.032c0.108,0.017,0.193,0.027,0.273,0.078c0.002-0.001,0.005-0.001,0.007-0.002   c0.077-0.051,0.168-0.082,0.264-0.083c1.059-0.012,2.159-0.024,3.283-0.037C40.027,7.01,39.524,7.007,39.021,7.004z"/><path fill="none" d="M26.051,32.5c-1.003,3.235-2.022,6.388-3.322,9.387C24.19,38.756,25.249,35.514,26.051,32.5z"/><path fill="none" d="M20.892,22.723c-0.044,0.004-0.088,0.009-0.135,0.012c-0.083,0.006-0.173,0.012-0.267,0.016   c-0.05,0.002-0.098,0.006-0.152,0.007c-0.15,0.005-0.31,0.009-0.489,0.01c0,0-0.001,0-0.001,0c-0.004,0-0.064,0-0.065,0   c-0.099,0-0.186-0.005-0.277-0.008c-0.04-0.001-0.084-0.001-0.123-0.003c-0.133-0.006-0.257-0.016-0.376-0.028   c-0.006-0.001-0.012-0.001-0.018-0.002c-0.122-0.012-0.239-0.028-0.348-0.046c-0.002,0-0.004-0.001-0.006-0.001   c-0.11-0.018-0.216-0.038-0.316-0.061c0.041,0.022,0.082,0.039,0.122,0.06c0.125,0.064,0.25,0.124,0.377,0.177   c0.069,0.029,0.139,0.051,0.208,0.076c0.121,0.042,0.244,0.077,0.37,0.104c0.064,0.014,0.128,0.028,0.194,0.038   c0.192,0.027,0.389,0.04,0.597,0.018c0.442-0.042,0.62-0.145,0.887-0.3c0.065-0.038,0.136-0.078,0.215-0.121   c-0.022,0.004-0.049,0.007-0.072,0.011c-0.032,0.005-0.067,0.01-0.1,0.015C21.047,22.706,20.971,22.715,20.892,22.723z"/><path fill="none" d="M70.246,22.497c-0.244,0-0.479-0.02-0.714-0.041c-0.024-0.002-0.049-0.002-0.073-0.004   c-0.231-0.023-0.458-0.058-0.683-0.097c-0.038-0.006-0.077-0.009-0.114-0.016c0.489,0.12,0.974,0.202,1.454,0.224   c0.099,0.004,0.198,0.006,0.296,0.004c0.082-0.001,0.164-0.002,0.247-0.007c0.197-0.013,0.394-0.033,0.588-0.071   c0.339-0.069,0.667-0.162,0.989-0.264c0.011-0.004,0.023-0.007,0.034-0.011c-0.29,0.08-0.577,0.138-0.864,0.184   c-0.03,0.004-0.059,0.009-0.088,0.013C70.96,22.463,70.604,22.497,70.246,22.497z"/><path fill="none" d="M66.002,20.65c0.345,0.088,0.679,0.18,1.006,0.269c1.098,0.303,2.136,0.589,3.237,0.589   c0.808,0,1.611-0.154,2.451-0.471c0.519-0.196,1.027-0.37,1.543-0.529c-0.033-0.565-0.055-1.145-0.07-1.737   c-0.001-0.04-0.004-0.077-0.005-0.117c-0.003,0.028-0.015,0.054-0.021,0.081c-0.005,0.023-0.01,0.045-0.017,0.068   c-0.027,0.079-0.064,0.154-0.12,0.219c-0.051,0.059-0.113,0.101-0.178,0.134c-0.1,0.058-0.209,0.098-0.326,0.098   c-0.242,0-0.445-0.137-0.548-0.345c-0.029-0.053-0.051-0.112-0.063-0.177c-0.264-1.361-0.332-2.539-0.207-3.592   c0.045-0.378,0.356-0.65,0.74-0.65c0.196,0,0.382,0.077,0.513,0.213c0.129,0.136,0.196,0.32,0.186,0.518   c-0.068,1.153-0.112,2.191,0.037,3.277c0-0.014,0-0.029,0-0.043c-0.009-0.479-0.011-0.972-0.008-1.473   c0.001-0.131,0.002-0.263,0.004-0.396c0.006-0.478,0.016-0.965,0.032-1.466c0.001-0.043,0.002-0.085,0.004-0.128   c0.019-0.541,0.046-1.103,0.077-1.676c0.008-0.141,0.016-0.283,0.024-0.426c0.035-0.586,0.073-1.183,0.12-1.805   c0.03-0.426,0.381-0.749,0.816-0.749c0.218,0,0.427,0.086,0.572,0.236c0.144,0.149,0.218,0.351,0.212,0.569   c-0.043,1.117-0.078,2.236-0.113,3.355c-0.059,1.842-0.118,3.741-0.212,5.614c0.632-0.146,1.227-0.231,1.813-0.282   c0.86-0.075,1.699-0.062,2.581,0.057c-0.603-4.075-0.809-7.623-0.63-10.827c0.004-0.108,0.032-0.208,0.076-0.298   c0.014-0.03,0.038-0.051,0.056-0.079c0.037-0.056,0.074-0.111,0.124-0.155c0.007-0.006,0.01-0.015,0.017-0.021l0.001-0.12   l0.002-0.269c-2.253-0.019-4.491-0.037-6.723-0.054c-2.382-0.018-4.756-0.035-7.13-0.049c0.114,3.018,0.116,6.09,0.118,9.065   C65.994,18.272,65.994,19.463,66.002,20.65z M71.05,15.172c0.211-0.575,1.054-0.661,1.377-0.171   c0.147,0.222,0.167,0.498,0.057,0.757c-0.344,0.81-0.487,1.678-0.423,2.576c0.01,0.206-0.056,0.387-0.184,0.523   c-0.129,0.135-0.315,0.212-0.509,0.212c-0.378,0-0.69-0.28-0.726-0.651C70.518,17.314,70.655,16.219,71.05,15.172z"/><path fill="none" d="M93.929,15.277c0.006,0.335,0.018,0.67,0.028,1.005c0.005,0.165,0.015,0.329,0.022,0.494   c0.009-1.377-0.022-2.762-0.071-4.139c0,0.075-0.001,0.149-0.001,0.224c0,0.27,0.003,0.541,0.004,0.812   C93.913,14.207,93.919,14.742,93.929,15.277z"/><path fill="none" d="M6.647,21.442c-0.045-0.066-0.088-0.136-0.131-0.207c-0.087-0.144-0.17-0.299-0.25-0.464   c-0.024-0.05-0.052-0.089-0.076-0.14c0.062,0.207,0.141,0.401,0.241,0.579c0.167,0.295,0.362,0.534,0.593,0.722   c-0.03-0.032-0.055-0.076-0.084-0.109C6.839,21.707,6.741,21.582,6.647,21.442z"/><path fill="none" d="M51.169,8.024V7.953C50.765,7.95,50.364,7.95,49.958,7.95l-0.82-0.001c-3.837,0-7.804,0.043-11.352,0.084   c-0.377,4.949-0.506,8.898-0.415,12.711c0.162,0.058,0.325,0.118,0.489,0.179c0.323,0.12,0.651,0.241,0.997,0.349   c0.732,0.227,1.404,0.337,2.057,0.337c1.172,0,2.146-0.353,3.275-0.76c0.377-0.136,0.764-0.276,1.173-0.409l-0.006-0.069   c-0.281-3.094-0.571-6.292-0.747-9.446c-0.013-0.201,0.053-0.391,0.186-0.533c0.133-0.141,0.325-0.222,0.527-0.222   c0.396,0,0.721,0.295,0.755,0.685c0.275,2.995,0.456,5.959,0.64,9.207c1.024-0.23,1.921-0.231,2.921,0.015   c-0.03-4.218,0.398-8.129,1.272-11.635c0.026-0.098,0.07-0.183,0.123-0.261c0.017-0.025,0.038-0.044,0.057-0.067   C51.117,8.085,51.139,8.05,51.169,8.024z M40.155,13.383c-0.105,0.325-0.193,0.641-0.264,0.948   c-0.215,0.923-0.281,1.779-0.21,2.639c0.015,0.195-0.045,0.376-0.17,0.511c-0.125,0.135-0.307,0.212-0.499,0.212   c-0.103,0-0.198-0.025-0.287-0.063c-0.008-0.003-0.017-0.002-0.025-0.005c-0.01,0.111-0.021,0.222-0.031,0.333   c-0.039,0.339-0.318,0.585-0.65,0.585c-0.173,0-0.34-0.07-0.457-0.191c-0.117-0.121-0.178-0.283-0.171-0.457   c0.061-0.995,0.116-1.972,0.17-2.955c0.015-0.296,0.211-0.529,0.48-0.616c0.022-0.007,0.045-0.007,0.067-0.012   c0.053-0.012,0.103-0.03,0.16-0.03c0.011,0,0.021,0.006,0.032,0.007c0.011,0,0.021-0.005,0.031-0.004   c0.015-0.091,0.039-0.178,0.057-0.267c0.016-0.08,0.033-0.159,0.051-0.238c0.069-0.293,0.148-0.582,0.25-0.862   c0.189-0.547,1.028-0.662,1.363-0.205C40.191,12.903,40.229,13.147,40.155,13.383z"/><path fill="none" d="M25.555,21.581c-0.143-0.028-0.258-0.046-0.379-0.066c-0.241-0.04-0.46-0.068-0.664-0.06   c-0.305,0.011-0.609,0.088-1.033,0.264c-0.015,0.006-0.03,0.012-0.045,0.016c-0.044,0.015-0.091,0.026-0.138,0.029   c-0.037,0.034-0.08,0.062-0.127,0.084c-0.316,0.144-0.539,0.268-0.729,0.374c-0.018,0.01-0.035,0.019-0.053,0.029   c0.018-0.005,0.037-0.006,0.055-0.011c0.303-0.081,0.613-0.142,0.928-0.187c0.069-0.01,0.139-0.017,0.209-0.025   c0.327-0.038,0.66-0.064,1.005-0.064c0.23,0,0.459,0.009,0.684,0.024c0.087,0.006,0.169,0.015,0.254,0.023   c0.137,0.012,0.273,0.023,0.406,0.038c0.103,0.012,0.199,0.026,0.299,0.039c0.109,0.015,0.218,0.028,0.321,0.044   c0.103,0.016,0.196,0.031,0.293,0.048c0.064,0.011,0.134,0.021,0.195,0.032c-0.019-0.014-0.037-0.031-0.054-0.047   c-0.069-0.002-0.138-0.019-0.202-0.05c-0.297-0.146-0.556-0.294-0.79-0.451C25.833,21.634,25.689,21.606,25.555,21.581z"/><path fill="none" d="M9.024,16.95c0.138,0.15,0.203,0.348,0.185,0.558c-0.081,0.871-0.065,1.471,0.249,2.157   c0.102,0.217,0.089,0.468-0.038,0.668c-0.056,0.088-0.136,0.155-0.223,0.209c-0.026,0.016-0.053,0.026-0.081,0.039   c-0.033,0.015-0.062,0.037-0.097,0.047c0.007,0.013,0.006,0.029,0.012,0.043c0.022,0.053,0.036,0.107,0.044,0.164   c0.004,0.025,0.009,0.049,0.01,0.075c0.002,0.082-0.005,0.165-0.034,0.247c-0.103,0.301-0.39,0.513-0.699,0.513   c-0.007,0-0.015-0.001-0.022-0.001c0.01,0.004,0.02,0.01,0.029,0.013c0.068,0.026,0.134,0.045,0.198,0.059   c0.027,0.006,0.056,0.015,0.083,0.019c0.087,0.013,0.172,0.02,0.25,0.02c0.59,0,1.279-0.285,1.952-0.574   c0.216-1.21,0.68-2.394,1.13-3.541c0.154-0.391,0.306-0.78,0.448-1.17l0.399-1.1c0.433-1.201,0.881-2.441,1.381-3.64   c0.242-0.581,1.133-0.682,1.482-0.196c0.146,0.205,0.181,0.467,0.095,0.722c-0.434,1.297-0.941,2.593-1.43,3.848l-0.478,1.229   c-0.135,0.349-0.264,0.702-0.393,1.056c-0.259,0.711-0.523,1.436-0.844,2.137c0.314-0.076,0.599-0.131,0.868-0.167   c0.857-0.118,1.557-0.049,2.331,0.196c0.159,0.05,0.305,0.101,0.443,0.152c0.061,0.022,0.114,0.045,0.171,0.067   c0.062,0.024,0.128,0.049,0.186,0.073c-0.002-0.066-0.003-0.137-0.005-0.204c-0.005-0.162-0.009-0.327-0.013-0.494   c-0.005-0.211-0.009-0.423-0.013-0.641c-0.003-0.17-0.005-0.34-0.007-0.513c-0.002-0.222-0.003-0.446-0.004-0.674   c0-0.181,0-0.361,0.001-0.545c0.001-0.232,0.005-0.466,0.009-0.703c0.003-0.184,0.006-0.367,0.011-0.554   c0.006-0.247,0.016-0.497,0.025-0.748c0.007-0.183,0.013-0.364,0.022-0.549c0.013-0.267,0.03-0.536,0.047-0.806   c0.011-0.173,0.02-0.343,0.033-0.517c0.022-0.304,0.051-0.61,0.08-0.917c0.013-0.143,0.024-0.285,0.039-0.428   c0.047-0.451,0.1-0.903,0.163-1.355c0.044-0.349,0.332-0.595,0.699-0.595c0.217,0,0.423,0.088,0.565,0.24   c0.132,0.143,0.196,0.327,0.181,0.522l-0.078,0.876c-0.067,0.754-0.134,1.514-0.198,2.278c-0.014,0.171-0.026,0.343-0.039,0.514   c-0.048,0.593-0.096,1.187-0.137,1.783c-0.02,0.291-0.032,0.584-0.05,0.876c-0.029,0.479-0.06,0.958-0.081,1.438   c-0.014,0.327-0.017,0.654-0.026,0.981c-0.012,0.427-0.029,0.853-0.032,1.279c0.005,0.002,0.009,0.004,0.014,0.006   c0.108,0.046,0.217,0.088,0.329,0.127c0.031,0.011,0.063,0.02,0.094,0.03c0.106,0.033,0.217,0.063,0.335,0.089   c0.019,0.004,0.036,0.009,0.056,0.013c0.135,0.027,0.284,0.047,0.443,0.063c0.04,0.004,0.082,0.007,0.124,0.011   c0.172,0.013,0.354,0.023,0.563,0.023c1.218-0.008,1.548-0.092,1.951-0.301c0.071-0.037,0.144-0.076,0.225-0.121   c0.144-0.08,0.307-0.171,0.509-0.271l0.001-0.518c0.001-0.914,0.003-1.837,0.007-2.764c0-0.09,0-0.178,0.001-0.268   c-0.004,0.002-0.009,0.001-0.014,0.003c-0.046,0.02-0.098,0.027-0.149,0.035c-0.026,0.004-0.049,0.014-0.075,0.015   c-0.006,0-0.011,0.003-0.018,0.003c-0.047,0-0.088-0.016-0.131-0.026c-0.026-0.006-0.055-0.003-0.08-0.012   c-0.005,0.037-0.02,0.069-0.031,0.104c-0.007,0.025-0.012,0.05-0.022,0.073c-0.032,0.076-0.074,0.147-0.133,0.208   c-0.132,0.136-0.318,0.213-0.511,0.213c0,0,0,0,0,0c-0.039,0-0.074-0.013-0.111-0.019c-0.276-0.045-0.5-0.239-0.559-0.518   c-0.229-1.092-0.071-2.275,0.432-3.244c0.061-0.115,0.155-0.197,0.261-0.261c0.019-0.011,0.039-0.016,0.058-0.025   c0.102-0.05,0.209-0.077,0.323-0.083c0.006,0,0.012,0,0.018,0c0.123-0.003,0.239,0.02,0.351,0.072   c0.012,0.005,0.023,0.009,0.035,0.014c0.026,0.014,0.057,0.016,0.082,0.033c0.004,0,0.006,0.002,0.009,0.002   c0.004,0,0.007-0.002,0.01-0.002c0.097,0,0.185,0.024,0.266,0.061c0.006,0.003,0.014,0.001,0.02,0.004   c0.002-0.126,0.009-0.251,0.011-0.377c0.024-1.358,0.058-2.716,0.117-4.068c0.019-0.4,0.337-0.7,0.739-0.7   c0.407,0,0.725,0.317,0.725,0.721c-0.006,3.444-0.156,6.939-0.302,10.32l-0.02,0.484c0.684-0.181,1.216-0.102,1.962,0.041   l0.525,0.099c0.063,0.011,0.123,0.034,0.177,0.068c-0.279-4.541-0.359-8.674-0.247-12.607c-2.452,0.022-4.903,0.038-7.353,0.038   c-0.001,0-0.001,0-0.002,0c-4.411,0-8.334-0.05-11.97-0.152C7,10.07,6.944,12.116,6.889,14.098   c-0.019,0.683-0.038,1.365-0.049,2.045c-0.004,0.312-0.041,0.683-0.081,1.074c-0.021,0.203-0.041,0.414-0.058,0.623   C6.7,17.86,6.7,17.879,6.698,17.899c0.018-0.022,0.043-0.037,0.064-0.057c0.034-0.035,0.067-0.069,0.108-0.097   c0.014-0.009,0.029-0.015,0.044-0.023c0.06-0.035,0.122-0.065,0.191-0.084c0.005-0.001,0.01-0.001,0.014-0.002   c0.065-0.016,0.131-0.032,0.202-0.032c0.008,0,0.015,0.004,0.023,0.005c0.089,0.001,0.177,0.015,0.261,0.046   c0.022-0.142,0.054-0.28,0.097-0.413C7.864,16.719,8.658,16.55,9.024,16.95z"/><path fill="none" d="M7.965,26.097c-0.002-0.043-0.003-0.086-0.006-0.129c-0.162,2.895-0.097,5.857-0.02,8.76   c0.001-0.043,0.002-0.086,0.004-0.128c0.018-0.601,0.036-1.207,0.052-1.814c0.005-0.178,0.009-0.356,0.013-0.534   c0.015-0.622,0.027-1.246,0.034-1.87c0-0.04,0.001-0.08,0.002-0.119c0.006-0.632,0.003-1.264-0.006-1.895   c-0.002-0.164-0.006-0.329-0.009-0.493C8.015,27.28,7.996,26.687,7.965,26.097z"/><path fill="none" d="M23.587,49.009c0.164-0.138,0.336-0.263,0.497-0.405c-0.084,0.072-0.177,0.132-0.262,0.203   C23.743,48.873,23.667,48.944,23.587,49.009z"/><path fill="none" d="M92.499,91.758c0.178-0.125,0.328-0.295,0.461-0.489c-0.074,0.1-0.15,0.196-0.232,0.281   C92.655,91.627,92.578,91.696,92.499,91.758z"/><path fill="none" d="M84.428,54.705c0.154,0.048,0.309,0.093,0.464,0.138c0.514,0.148,1.032,0.278,1.555,0.386   c0.084,0.017,0.167,0.04,0.252,0.056c0.42,0.081,0.848,0.13,1.273,0.186c-0.151-0.043-0.276-0.145-0.33-0.288   c-0.053-0.035-0.105-0.07-0.158-0.104c-0.109,0.172-0.315,0.26-0.523,0.221c-0.437-0.093-0.871-0.202-1.302-0.32   c-0.136-0.037-0.27-0.079-0.404-0.118c-0.298-0.087-0.594-0.178-0.889-0.276c-0.152-0.051-0.302-0.104-0.453-0.157   c-0.283-0.101-0.564-0.207-0.843-0.318c-0.143-0.057-0.286-0.113-0.428-0.172c-0.316-0.132-0.628-0.273-0.938-0.418   c-0.097-0.046-0.195-0.087-0.292-0.134c-0.406-0.197-0.808-0.404-1.205-0.623c-0.08-0.044-0.159-0.093-0.239-0.138   c-0.315-0.178-0.627-0.362-0.935-0.554c-0.126-0.079-0.25-0.161-0.375-0.241c-0.263-0.17-0.524-0.345-0.782-0.525   c-0.128-0.09-0.256-0.18-0.382-0.272c-0.263-0.191-0.523-0.388-0.78-0.589c-0.076-0.06-0.156-0.114-0.232-0.175   c1.733,1.461,3.638,2.685,5.711,3.6c0.093,0.041,0.168,0.108,0.219,0.19c0.008-0.002,0.016-0.001,0.024-0.002   c0.004-0.001,0.008-0.001,0.013-0.001c0.018-0.002,0.036-0.005,0.053-0.005c0.064,0,0.127,0.013,0.188,0.037   C83.261,54.322,83.842,54.522,84.428,54.705z"/><path fill="none" d="M89.267,90.429c-0.049-0.038-0.096-0.068-0.143-0.097c-0.027-0.016-0.055-0.036-0.082-0.05   c-0.05-0.025-0.1-0.04-0.15-0.055c-0.023-0.007-0.046-0.018-0.069-0.022c-0.072-0.014-0.144-0.019-0.217-0.011   c-0.043,0.012-0.088,0.014-0.132,0.015c-0.023,0.017-0.048,0.034-0.075,0.047c-0.082,0.042-0.154,0.111-0.224,0.191   c-0.025,0.029-0.05,0.06-0.075,0.093c-0.015,0.02-0.031,0.042-0.046,0.063c0.364-0.212,0.86-0.264,1.386-0.019   c-0.028-0.028-0.057-0.056-0.085-0.081C89.324,90.478,89.295,90.451,89.267,90.429z"/><path fill="none" d="M93.002,91.214c0.01-0.016,0.023-0.028,0.033-0.044c-0.007,0.011-0.016,0.019-0.024,0.029   C93.007,91.204,93.005,91.209,93.002,91.214z"/><path fill="none" d="M79.342,89.838c-0.125-0.064-0.251-0.138-0.38-0.215c-0.1-0.06-0.197-0.116-0.297-0.183   c-0.133-0.088-0.264-0.186-0.396-0.285c-0.098-0.073-0.194-0.142-0.29-0.22c-0.134-0.108-0.261-0.224-0.391-0.341   c-0.091-0.082-0.183-0.16-0.271-0.245c-0.128-0.124-0.245-0.252-0.364-0.382c-0.08-0.087-0.164-0.171-0.24-0.26   c-0.116-0.136-0.215-0.274-0.317-0.412c-0.064-0.086-0.135-0.171-0.193-0.258c-0.101-0.151-0.179-0.301-0.26-0.451   c-0.039-0.073-0.09-0.148-0.123-0.22c-0.102-0.221-0.179-0.438-0.222-0.647c-0.046-0.23-0.086-0.465-0.119-0.705   c0.036,1.572,0.293,3.061,1.028,4.104c0.575,0.812,1.391,1.315,2.183,1.345c0.001,0,0.003,0,0.004,0   c0.433,0,0.793-0.185,1.17-0.389c-0.073-0.026-0.152-0.071-0.227-0.104C79.538,89.929,79.443,89.889,79.342,89.838z"/><path fill="none" d="M89.116,85.741c-0.125-1.169-0.233-2.334-0.317-3.493c-0.005-0.072-0.013-0.145-0.018-0.218   c-0.053-0.757-0.095-1.512-0.13-2.264c-0.021,0.535-0.054,1.07-0.062,1.604c-0.002,0.136-0.009,0.272-0.01,0.408   c-0.01,1.097,0.015,2.194,0.06,3.291c0.011,0.265,0.024,0.53,0.038,0.795c0.059,1.114,0.135,2.23,0.25,3.352   c0.113,0.016,0.225,0.044,0.336,0.084c0.036,0.013,0.071,0.033,0.106,0.048c0.067,0.028,0.134,0.054,0.2,0.091   c-0.144-1.006-0.267-2.008-0.381-3.008C89.164,86.201,89.141,85.972,89.116,85.741z"/><path fill="none" d="M92.929,10.62c0.006-0.805,0.012-1.607,0.013-2.402L80.718,8.124l-0.002,0.262l-0.001,0.124   c0.006,0.005,0.009,0.013,0.014,0.018c0.051,0.045,0.089,0.101,0.126,0.159c0.017,0.027,0.041,0.048,0.055,0.077   c0.043,0.092,0.071,0.193,0.076,0.303c0.107,1.594,0.193,3.2,0.28,4.804c0.112,2.075,0.227,4.215,0.389,6.327   c0.454,0.11,0.869,0.228,1.285,0.363c1.306,0.602,2.665,0.896,4.094,0.896l0.179-0.003c0.315-0.133,0.631-0.27,0.946-0.408   c0.346-3.298,0.511-6.694,0.504-10.371c0-0.447,0.335-0.783,0.78-0.783c0.097,0,0.187,0.021,0.272,0.051   c0.024,0.008,0.045,0.019,0.068,0.029c0.065,0.03,0.124,0.067,0.177,0.113c0.015,0.013,0.031,0.022,0.045,0.036   c0.057,0.056,0.107,0.118,0.145,0.189c0.022-0.016,0.05-0.021,0.074-0.034c0.045-0.025,0.089-0.048,0.14-0.063   c0.023-0.006,0.045-0.008,0.068-0.013c0.052-0.011,0.102-0.029,0.157-0.029c0.02,0,0.037,0.01,0.056,0.011c0.001,0,0.001,0,0.002,0   c0.089,0.007,0.175,0.025,0.254,0.062c0.081,0.035,0.154,0.085,0.215,0.15c0.074,0.078,0.121,0.173,0.151,0.276   c0.002,0.007,0.009,0.013,0.011,0.02c0.011-0.037,0.032-0.069,0.049-0.103c0.012-0.023,0.019-0.049,0.033-0.07   c0.018-0.027,0.044-0.049,0.066-0.073c0.022-0.023,0.04-0.049,0.065-0.07c0.028-0.023,0.06-0.039,0.091-0.058   c0.025-0.015,0.047-0.033,0.074-0.046c0.043-0.02,0.09-0.033,0.136-0.047c0.017-0.005,0.033-0.013,0.051-0.017   c0.06-0.013,0.122-0.019,0.183-0.02c0.005,0,0.01-0.002,0.014-0.001c0.2,0.001,0.396,0.071,0.531,0.222   c0.135,0.152,0.196,0.349,0.173,0.557c-0.112,0.999-0.173,2.079,0.129,3.212c0.051,0.22,0.007,0.43-0.119,0.588   s-0.324,0.253-0.529,0.253c-0.283,0-0.533-0.173-0.637-0.439c-0.05-0.122-0.1-0.253-0.148-0.391   c-0.013-0.038-0.025-0.081-0.038-0.12c-0.034-0.102-0.066-0.206-0.097-0.316c-0.015-0.055-0.028-0.113-0.042-0.17   c-0.025-0.101-0.049-0.201-0.07-0.307c-0.013-0.066-0.023-0.135-0.034-0.203c-0.017-0.101-0.032-0.202-0.044-0.307   c-0.003-0.031-0.01-0.059-0.013-0.09c-0.006,0.048-0.013,0.098-0.018,0.147l-0.107,0.843c-0.011,0.086-0.037,0.166-0.075,0.237   c-0.019,0.037-0.05,0.064-0.075,0.096c-0.024,0.03-0.043,0.065-0.072,0.091c-0.03,0.027-0.068,0.042-0.103,0.063   c-0.033,0.02-0.063,0.046-0.099,0.06c-0.047,0.018-0.1,0.022-0.152,0.029c-0.029,0.004-0.055,0.016-0.086,0.016   c-0.008,0.314-0.026,0.63-0.042,0.946c-0.006,0.118-0.009,0.235-0.016,0.353c-0.041,0.71-0.102,1.425-0.18,2.143   c-0.016,0.151-0.035,0.302-0.053,0.453c-0.088,0.738-0.188,1.478-0.315,2.221c0.051-0.022,0.102-0.045,0.154-0.069   c0.181-0.056,0.291-0.093,0.401-0.129c0.242-0.081,0.484-0.159,0.736-0.2c0.88-0.129,1.562-0.082,2.209,0.169   C92.88,17.009,92.905,13.766,92.929,10.62z"/><path fill="none" d="M64.114,8.001c-3.981-0.024-7.974-0.036-11.956-0.043V8.01c0.052,0.038,0.099,0.082,0.141,0.132   c0.155,0.184,0.219,0.428,0.177,0.669c-0.543,3.184-1.19,7.376-1.415,11.746c0.458,0.193,0.859,0.405,1.248,0.609   c0.922,0.487,1.719,0.907,2.899,0.924c0.001,0,0.002,0,0.003,0c1.058,0,1.992-0.33,2.981-0.681c0.255-0.091,0.51-0.181,0.766-0.265   c0.44-0.149,0.87-0.29,1.294-0.415c0.222-1.496,0.432-2.995,0.641-4.492c0.018-0.129,0.036-0.259,0.054-0.388   c-0.076,0.238-0.155,0.471-0.234,0.702c-0.097,0.272-0.341,0.444-0.624,0.444c-0.208,0-0.405-0.096-0.527-0.257   c-0.121-0.158-0.159-0.362-0.105-0.56c0.034-0.113,0.055-0.224,0.086-0.337c-0.052,0.013-0.107,0.021-0.163,0.021   c-0.211,0-0.41-0.099-0.534-0.263c-0.122-0.163-0.158-0.373-0.1-0.575l0.032-0.113c0.201-0.721,0.404-1.447,0.632-2.167   c0.03-0.096,0.085-0.172,0.149-0.24c0.017-0.019,0.032-0.037,0.052-0.053c0.057-0.047,0.119-0.086,0.188-0.114   c0.053-0.023,0.105-0.035,0.162-0.046c0.012-0.002,0.024-0.003,0.036-0.005c0.098-0.014,0.193-0.008,0.289,0.018   c0.038,0.009,0.074,0.021,0.11,0.036c0.024,0.011,0.052,0.01,0.074,0.025c0.007-0.006,0.018-0.007,0.026-0.012   c0.118-0.082,0.259-0.132,0.417-0.132c0.015,0,0.028,0.008,0.043,0.009c0.021,0.001,0.041,0.01,0.062,0.013   c0.1,0.014,0.191,0.044,0.274,0.094c0.05,0.028,0.102,0.053,0.143,0.094c0.071-0.491,0.145-0.981,0.219-1.471   c0.06-0.376,0.373-0.636,0.761-0.636c0.237,0,0.462,0.095,0.616,0.26c0.144,0.153,0.215,0.352,0.203,0.561   c-0.189,2.874-0.671,5.966-1.432,9.204c0.941-0.164,1.768-0.174,2.637-0.035C64.169,16.776,63.919,12.336,64.114,8.001z"/><path fill="none" d="M93.469,34.044c0.054,1.863,0.11,3.724,0.167,5.559c0.033,1.028,0.065,2.063,0.097,3.102   c-0.064-3.136-0.156-6.295-0.285-9.456C93.455,33.514,93.462,33.78,93.469,34.044z"/><path fill="none" d="M93.049,81.345c0.034-2.69,0.054-5.378,0.068-8.067c0.019-4.859,0.003-9.932-0.048-15.086   c-0.123,0.015-0.259,0.032-0.403,0.048c-0.053,0.006-0.113,0.012-0.168,0.018c-0.098,0.011-0.194,0.021-0.3,0.032   c-0.061,0.006-0.125,0.012-0.189,0.018c-0.115,0.011-0.231,0.022-0.353,0.032c-0.053,0.005-0.108,0.009-0.162,0.013   c-0.141,0.012-0.284,0.023-0.433,0.033c-0.019,0.001-0.036,0.003-0.055,0.004c0.005,0.004,0.007,0.01,0.011,0.014   c0.043,0.038,0.074,0.085,0.104,0.133c0.014,0.022,0.033,0.039,0.044,0.062c0.035,0.076,0.058,0.159,0.061,0.25   c0.004,0.113-0.028,0.216-0.075,0.311c-0.013,0.027-0.027,0.048-0.043,0.073c-0.048,0.072-0.107,0.133-0.18,0.181   c-0.012,0.008-0.018,0.023-0.03,0.031c0.021,0.011,0.031,0.036,0.051,0.05c0.046,0.032,0.097,0.059,0.134,0.103   c0.015,0.019,0.022,0.043,0.036,0.063c0.007,0.01,0.019,0.014,0.025,0.025c0.007,0.012,0.004,0.026,0.01,0.038   c0.045,0.09,0.076,0.186,0.077,0.289c0,0.005,0.001,0.009,0.001,0.014c-0.001,0.11-0.033,0.207-0.079,0.297   c-0.005,0.01-0.003,0.023-0.009,0.033c-0.009,0.016-0.027,0.022-0.037,0.037c-0.042,0.061-0.093,0.111-0.153,0.154   c-0.024,0.017-0.044,0.035-0.07,0.048c-0.087,0.044-0.182,0.075-0.287,0.075c-0.006,0-0.017,0-0.023,0l-2.482-0.034   c-0.328,0-0.597-0.264-0.604-0.601c-0.002-0.078,0.014-0.152,0.038-0.221c0.008-0.022,0.019-0.04,0.029-0.061   c0.022-0.046,0.047-0.088,0.08-0.127c0.015-0.019,0.031-0.035,0.049-0.052c0.037-0.035,0.077-0.064,0.122-0.088   c0.02-0.011,0.037-0.023,0.058-0.032c0.01-0.004,0.017-0.011,0.027-0.015c-0.349-0.042-0.698-0.098-1.051-0.164   c-0.322-0.072-0.517-0.348-0.482-0.659c0.01-0.09,0.039-0.174,0.081-0.248c-0.031-0.003-0.057-0.009-0.088-0.012   c-0.283-0.03-0.546-0.071-0.806-0.113c-0.109-0.018-0.228-0.031-0.333-0.051c-0.353-0.067-0.685-0.143-0.989-0.233   c-3.428,5.392-5.736,11.157-6.862,17.139l-0.049,0.26c-0.085,0.452-0.176,0.94-0.265,1.434c-0.028,0.154-0.055,0.312-0.083,0.469   c-0.077,0.441-0.151,0.895-0.222,1.354c-0.019,0.122-0.039,0.243-0.057,0.366c-0.08,0.551-0.148,1.108-0.204,1.664   c-0.014,0.141-0.023,0.281-0.035,0.422c-0.038,0.439-0.063,0.875-0.077,1.306c-0.003,0.097-0.007,0.195-0.008,0.291   c0.004-0.014,0.012-0.027,0.016-0.042c0.051-0.183,0.113-0.364,0.2-0.537c0.05-0.106,0.136-0.185,0.233-0.249   c0.004-0.002,0.008-0.005,0.012-0.007c0.191-0.121,0.438-0.162,0.658-0.072c0.003-0.017,0.011-0.034,0.015-0.051   c0.027-0.125,0.067-0.247,0.109-0.368c0.02-0.059,0.034-0.12,0.058-0.178c0.073-0.177,0.161-0.348,0.269-0.511   c0.288-0.444,1.036-0.409,1.293,0.046c0.129,0.228,0.125,0.503-0.014,0.737c-0.484,0.803-0.444,1.717,0.101,2.388   c0.166,0.211,0.196,0.483,0.083,0.716c-0.11,0.228-0.341,0.375-0.586,0.375c-0.176,0-0.343-0.073-0.469-0.206   c-0.138-0.148-0.259-0.306-0.366-0.472c-0.036-0.055-0.061-0.114-0.093-0.17c-0.065-0.114-0.129-0.228-0.18-0.347   c-0.003-0.007-0.008-0.014-0.011-0.021c0,0.015-0.004,0.032-0.004,0.047c0.001,0.133,0.021,0.258,0.044,0.382   c0.012,0.062,0.015,0.127,0.032,0.187c0.052,0.18,0.125,0.353,0.228,0.516c0.122,0.191,0.131,0.426,0.023,0.623   c-0.11,0.202-0.332,0.331-0.566,0.331c-0.211,0-0.407-0.105-0.525-0.281c-0.104-0.153-0.193-0.311-0.273-0.471   c-0.024-0.048-0.043-0.098-0.065-0.146c-0.051-0.113-0.097-0.226-0.136-0.341c-0.006-0.017-0.015-0.034-0.02-0.051   c0.036,0.353,0.08,0.7,0.147,1.029c0.245,1.198,2.3,3.205,3.716,3.653c0.04-0.017,0.093-0.045,0.131-0.067   c0.068-0.036,0.138-0.073,0.213-0.106c0.019-7.171,1.361-14.416,3.99-21.541c0.213-0.577,1.091-0.673,1.43-0.2   c0.142,0.199,0.176,0.452,0.092,0.694c-2.379,6.594-3.749,13.429-4.187,20.884c0.157,0.057,0.297,0.162,0.404,0.306   c0.771,0.998,2.063,2.015,3.197,2.015c0.465,0,0.866-0.171,1.227-0.522c0.129-0.127,0.231-0.279,0.331-0.426   c0.145-0.21,0.303-0.439,0.526-0.628c-0.731-5.236-0.772-10.482-0.121-15.598c0.016-0.12,0.063-0.225,0.123-0.321   c0.006-0.01,0.014-0.017,0.021-0.026c0.059-0.085,0.132-0.155,0.219-0.212c0.011-0.007,0.021-0.012,0.032-0.019   c0.077-0.046,0.16-0.077,0.251-0.096c0.032-0.007,0.062-0.013,0.094-0.017c0.026-0.002,0.05-0.014,0.077-0.014   c0.045,0,0.084,0.019,0.127,0.026c0.034,0.005,0.068-0.004,0.102,0.006c0.007-0.372,0.026-0.746,0.038-1.118   c0.013-0.416,0.024-0.831,0.043-1.247c0.024-0.516,0.058-1.03,0.091-1.546c0.025-0.391,0.045-0.782,0.075-1.173   c0.045-0.581,0.102-1.161,0.158-1.741c0.031-0.323,0.056-0.648,0.091-0.971c0.097-0.902,0.207-1.802,0.332-2.696   c0.045-0.373,0.355-0.638,0.753-0.638c0.239,0,0.463,0.097,0.615,0.266c0.14,0.155,0.206,0.357,0.184,0.568   c-0.913,9.639-0.93,18.495-0.054,27.069c0.014,0.136-0.05,0.347-0.141,0.45c-0.012,0.013-0.023,0.025-0.036,0.038   c0.001,0.002,0.002,0.004,0.004,0.006c0.141,0.199,0.271,0.401,0.391,0.596c0.072,0.009,0.139,0.009,0.206,0.007   c0.119-0.003,0.229-0.026,0.333-0.067c0.023-0.009,0.045-0.022,0.068-0.034c0.105-0.053,0.205-0.119,0.3-0.218   c1.31-1.357,1.143-6.065,1.062-8.328C93.06,82.031,93.046,81.618,93.049,81.345z"/><path fill="none" d="M85.887,22.398l0.145,0.004c0.002,0,0.004-0.001,0.007-0.001c-0.022-0.002-0.044-0.008-0.066-0.01   c-0.398-0.038-0.79-0.096-1.176-0.177c0.038,0.01,0.076,0.022,0.115,0.031c0.076,0.018,0.151,0.036,0.227,0.051   C85.385,22.344,85.634,22.382,85.887,22.398z"/><path fill="none" d="M69.082,31.955c-0.056-0.237-0.006-0.48,0.139-0.664c0.13-0.166,0.326-0.252,0.531-0.266   c0.341-0.023,0.705,0.155,0.829,0.502c0.325,0.874,0.668,1.718,1.02,2.549c0.043,0.101,0.086,0.201,0.129,0.301   c-0.06-0.267-0.109-0.531-0.144-0.792c-0.028-0.206,0.029-0.403,0.161-0.555c0.076-0.088,0.176-0.144,0.283-0.18   c0.01-0.003,0.019-0.009,0.029-0.012c0.098-0.028,0.201-0.033,0.305-0.024c0.028,0.002,0.053,0.003,0.08,0.007   c0.09,0.016,0.175,0.048,0.255,0.09c0.032,0.017,0.061,0.034,0.09,0.055c0.076,0.055,0.139,0.123,0.188,0.202   c0.006,0.01,0.018,0.015,0.023,0.025c0.05-0.047,0.113-0.076,0.173-0.11c0.032-0.018,0.058-0.045,0.092-0.058   c0.103-0.042,0.214-0.065,0.329-0.065c0.392,0,0.711,0.262,0.777,0.637c0.128,0.76,0.156,1.533,0.184,2.28l0.014,0.352   c0.01,0.184-0.057,0.367-0.187,0.505c-0.044,0.046-0.093,0.084-0.146,0.117c0.065,0.157,0.125,0.315,0.196,0.472   c0.099,0.225,0.079,0.476-0.051,0.676s-0.356,0.324-0.589,0.324c0,0,0,0-0.001,0c-0.066,0-0.13-0.011-0.191-0.03   c0.021,0.04,0.041,0.081,0.062,0.121c0.396,0.743,0.807,1.465,1.232,2.17c0.094,0.156,0.19,0.307,0.285,0.461   c0.379,0.613,0.77,1.214,1.172,1.799c0.077,0.112,0.151,0.228,0.229,0.339c0.46,0.656,0.937,1.292,1.428,1.914   c0.118,0.15,0.239,0.296,0.358,0.444c0.448,0.553,0.908,1.093,1.382,1.62c0.073,0.081,0.143,0.165,0.216,0.245   c0.532,0.582,1.085,1.144,1.65,1.695c0.14,0.136,0.281,0.27,0.423,0.404c0.541,0.512,1.093,1.013,1.664,1.499   c0.049,0.042,0.096,0.086,0.146,0.128c0.614,0.517,1.25,1.015,1.9,1.503c0.159,0.12,0.32,0.238,0.481,0.356   c0.663,0.485,1.338,0.961,2.039,1.418c0.066,0.042,0.123,0.092,0.17,0.151c0.533,0.082,1.082,0.146,1.64,0.189   c-5.601-8.181-8.351-18.015-7.564-27.14c0.041-0.477,0.417-0.824,0.896-0.824c0.49,0,0.859,0.373,0.859,0.866   c0,0.781,0.019,1.55,0.046,2.314c0.008,0.228,0.02,0.453,0.031,0.679c0.027,0.561,0.061,1.118,0.103,1.67   c0.017,0.223,0.033,0.446,0.052,0.667c0.065,0.741,0.14,1.477,0.233,2.202c0.001,0.009,0.003,0.019,0.004,0.028   c0.093,0.717,0.203,1.423,0.323,2.125c0.037,0.213,0.077,0.424,0.116,0.636c0.096,0.521,0.2,1.038,0.312,1.551   c0.045,0.207,0.089,0.415,0.136,0.62c0.16,0.69,0.329,1.375,0.517,2.051c0.003,0.01,0.006,0.019,0.009,0.029   c0.187,0.668,0.391,1.327,0.606,1.981c0.063,0.193,0.13,0.384,0.196,0.576c0.17,0.495,0.348,0.986,0.534,1.474   c0.044,0.115,0.088,0.231,0.133,0.346c0.001-0.001,0.003-0.001,0.004-0.002c0.076-0.079,0.17-0.136,0.277-0.173   c0.009-0.003,0.015-0.012,0.024-0.015c-0.03-0.209-0.05-0.418-0.06-0.629c-0.009-0.209,0.061-0.4,0.197-0.541   c0.137-0.143,0.333-0.224,0.54-0.224c0.411,0,0.741,0.305,0.766,0.71c0.1,1.263,0.46,2.343,1.099,3.292   c0.07,0.101,0.109,0.214,0.117,0.33c0.008,0.115-0.016,0.232-0.072,0.34c-0.053,0.101-0.136,0.178-0.231,0.24   c-0.027,0.018-0.054,0.027-0.083,0.041c-0.036,0.017-0.068,0.041-0.107,0.052c0.146,0.169,0.288,0.34,0.462,0.491   c0.207,0.181,0.278,0.466,0.181,0.726c-0.101,0.269-0.354,0.451-0.63,0.451c-0.039,0-0.087-0.009-0.136-0.023   c0.014,0.026,0.026,0.052,0.04,0.077c0.181,0.333,0.372,0.662,0.562,0.991c0.107,0.187,0.21,0.375,0.32,0.561   c0.304,0.512,0.618,1.02,0.944,1.523h0.057c0.381,0,0.763-0.007,1.149-0.025c-0.073-5.056-0.233-10.19-0.387-15.161   c-0.183-5.879-0.372-11.953-0.418-17.937c-0.89-0.091-2.014,0.362-3.073,0.808l-0.069,0.029c-0.06,0.038-0.126,0.066-0.195,0.084   c-1.095,0.455-2.079,0.822-3.066,0.767c-1.273-0.079-2.429-0.551-3.548-1.007c-0.332-0.136-0.665-0.272-1.002-0.398   c-0.329,0.123-0.719-0.015-0.874-0.301c-0.521-0.154-0.978-0.24-1.425-0.269c-1.314-0.092-2.432,0.229-3.445,0.609   c-0.144,0.323-0.525,0.45-0.818,0.324l-0.264,0.107c-0.937,0.386-1.906,0.785-3.009,1.009c-0.37,0.073-0.75,0.11-1.133,0.11   c-1.221,0-2.356-0.374-3.454-0.735c-0.27-0.089-0.543-0.179-0.818-0.264c-0.536-0.167-1.052-0.281-1.562-0.346   c0.089,0.491,0.178,0.981,0.267,1.469c1.342,7.316,2.827,14.221,7.187,20.323c3.155,4.414,7.368,7.673,12.086,9.406   C76.595,48.115,70.991,40.138,69.082,31.955z M89.777,28.258c0.071-0.705,0.141-1.412,0.24-2.115   c0.058-0.365,0.361-0.615,0.739-0.615c0.234,0,0.46,0.099,0.605,0.266c0.062,0.072,0.104,0.154,0.132,0.24   c0.009,0.027,0.011,0.055,0.016,0.084c0.008,0.04,0.023,0.079,0.023,0.121c0.065,0.003,0.125,0.026,0.186,0.044   c0.03,0.009,0.062,0.009,0.091,0.022c0.093,0.04,0.178,0.097,0.248,0.17c0.134,0.141,0.203,0.326,0.193,0.522   c-0.05,1.238-0.023,2.297,0.086,3.326c0.018,0.197-0.042,0.378-0.167,0.515c-0.13,0.142-0.32,0.224-0.519,0.224   c-0.324,0-0.598-0.214-0.668-0.523c-0.064-0.253-0.117-0.511-0.16-0.771c-0.04,0.033-0.09,0.054-0.137,0.077   c-0.021,0.01-0.039,0.026-0.061,0.035c-0.074,0.026-0.155,0.041-0.241,0.041c-0.206,0-0.401-0.084-0.534-0.231   c-0.125-0.138-0.184-0.317-0.166-0.504L89.777,28.258z"/><path fill="none" d="M65.793,32.99c-0.047-0.167-0.097-0.333-0.142-0.5c-0.15-0.544-0.293-1.09-0.429-1.638   c-0.006-0.024-0.011-0.048-0.017-0.072c-0.13-0.529-0.253-1.059-0.372-1.59c-0.042-0.187-0.082-0.373-0.122-0.56   c-0.082-0.376-0.162-0.752-0.24-1.129c-0.019-0.094-0.041-0.188-0.06-0.282c0.39,2.398,0.994,4.829,1.807,7.211   c-0.032-0.102-0.059-0.204-0.09-0.306C66.012,33.747,65.901,33.369,65.793,32.99z"/><path fill="none" d="M77.666,46.268c-2.339-2.866-4.34-6.084-6.05-9.712C73.054,39.996,75.124,43.303,77.666,46.268z"/><path fill="none" d="M85.059,41.997c-0.92-3.438-1.482-7.058-1.69-10.882C83.409,34.726,83.987,38.402,85.059,41.997z"/><path fill="none" d="M83.762,55.757c0.413-0.088,0.859,0.137,1.04,0.488c0.965,0.315,2.309,0.474,4,0.474   c0.631,0,1.257-0.022,1.856-0.054c-2.507-0.012-4.953-0.435-7.289-1.258C83.478,55.532,83.609,55.649,83.762,55.757z"/><path d="M94.881,57.65c0.069-0.109,0.109-0.238,0.118-0.377c0.01-0.172-0.034-0.345-0.12-0.489   c-0.058-11.066-0.19-22.805-1.051-34.31c0.398,0.102,0.834-0.125,0.988-0.511c0.094-0.234,0.071-0.484-0.067-0.705   c0.358-3.479,0.213-7.097,0.073-10.598c-0.043-1.065-0.085-2.124-0.113-3.158c0-0.072-0.01-0.143-0.029-0.214   c0.003-0.238-0.077-0.466-0.227-0.641c-0.17-0.199-0.414-0.312-0.692-0.318c-8.212-0.134-17.24-0.212-28.402-0.244   c-0.212-0.098-0.473-0.101-0.69-0.007c-4.902-0.014-9.81-0.02-14.712-0.02h-0.396c-3.506,0-7.019-0.021-10.536-0.042   c-3.525-0.021-7.053-0.042-10.581-0.042c-6.098,0-14.146,0.055-22.313,0.487c-0.314,0.014-0.58,0.201-0.695,0.487   c-0.08,0.201-0.076,0.421,0.004,0.61c-0.244,2.165-0.262,4.375-0.279,6.514c-0.006,0.686-0.011,1.371-0.024,2.054   c-0.006,0.356-0.033,0.748-0.062,1.155c-0.102,1.474-0.219,3.144,0.493,4.415c0.397,0.703,0.933,1.191,1.631,1.483   c-0.455,3.983-0.342,8.139-0.234,12.163c0.052,1.911,0.105,3.887,0.094,5.789c-0.043,6.808-0.127,13.134-0.258,19.34   c-0.143,6.812-0.321,13.138-0.543,19.342c-0.026,0.715-0.085,1.481-0.147,2.274c-0.295,3.801-0.629,8.11,2.199,10.825   c0.163,0.163,0.375,0.253,0.596,0.253c0,0,0.001,0,0.001,0c0.491,0.409,1.182,0.864,2,0.864c0.413,0,0.821-0.116,1.217-0.347   c0.576-0.341,0.757-0.763,0.96-1.235c0.062-0.139,0.118-0.285,0.173-0.431c0.305-0.806,0.419-0.826,0.78-0.733   c0.297,0.076,0.553,0.279,0.836,0.665c0.007,0.145,0.065,0.284,0.171,0.39l0.099,0.108c0.058,0.063,0.117,0.127,0.177,0.188   c0.09,0.153,0.18,0.298,0.265,0.426c0.13,0.203,0.352,0.33,0.602,0.35c0.717,0.507,1.433,0.617,2.15,0.351   c0.485-0.178,0.832-0.474,1.062-0.908c0.126-0.24,0.152-0.437,0.172-0.593c0.008-0.064,0.015-0.128,0.038-0.201   c0.013-0.041,0.02-0.083,0.022-0.126c0.02-0.419,0.194-0.786,0.531-1.119c0.2-0.083,0.384-0.125,0.548-0.125   c0.218,0,0.549,0.063,0.909,0.63c0.272,0.387,0.833,0.458,1.189,0.184c0.816,0.062,1.461-0.201,1.897-0.775   c1.332-1.751,0.376-6.05-0.607-9.6c-0.076-0.274-0.135-0.49-0.17-0.63c-2.003-8.135-4.05-16.069-7.048-23.691   c0.851-0.725,1.161-1.873,0.81-2.822c4.028-1.874,7.884-4.924,10.902-8.635c4.59-5.646,7.488-13.072,8.851-22.689   c0.099,0.038,0.197,0.076,0.296,0.115c0.466,0.182,0.947,0.37,1.495,0.513c1.781,0.469,3.306,0.155,5.166-0.537   c0.31-0.114,0.62-0.249,0.932-0.385c0.575-0.25,1.17-0.51,1.758-0.618c1.569-0.288,2.699,0.189,3.975,0.802   c0.574,0.275,1.168,0.559,1.864,0.791c1.441,0.476,2.835,0.51,4.486,0.099c0.63-0.157,1.219-0.326,1.786-0.49   c1.316-0.377,2.473-0.709,3.712-0.779c0.42,12.208,6.851,27.053,18.518,32.441c-0.134,1.04,0.24,1.91,1.098,2.552   c-4.278,6.772-6.918,14.429-7.642,22.178c-0.032,0.342-0.071,0.714-0.114,1.108c-0.311,2.905-0.739,6.884,0.922,9.24   c0.763,1.078,1.839,1.72,3.046,1.766c0.647,0,1.172-0.284,1.634-0.535c0.312-0.169,0.591-0.32,0.878-0.378   C82.14,91.804,83.854,93,85.648,93c0.47,0,0.918-0.085,1.33-0.252c0.48-0.192,0.805-0.542,1.09-0.849   c0.466-0.502,0.65-0.634,1.16-0.3c0.16,0.102,0.266,0.256,0.388,0.434c0.062,0.09,0.124,0.178,0.189,0.259   c0.085,0.292,0.31,0.511,0.613,0.591c0.389,0.105,0.76,0.158,1.102,0.158c3.273,0,3.274-4.54,3.275-6.979l0.003-0.671   c0.109-7.255,0.148-14.496,0.115-21.524L94.881,57.65z M93.908,12.636c0.049,1.376,0.08,2.761,0.071,4.139   c-0.006-0.165-0.017-0.329-0.022-0.494c-0.011-0.335-0.022-0.669-0.028-1.005c-0.01-0.535-0.016-1.07-0.018-1.605   c-0.001-0.271-0.004-0.542-0.004-0.812C93.907,12.785,93.908,12.711,93.908,12.636z M73.005,8.062   c2.232,0.017,4.47,0.035,6.723,0.054l-0.002,0.269l-0.001,0.12c-0.007,0.006-0.01,0.015-0.017,0.021   c-0.05,0.044-0.087,0.099-0.124,0.155c-0.018,0.027-0.042,0.049-0.056,0.079c-0.044,0.091-0.072,0.19-0.076,0.298   c-0.18,3.204,0.027,6.752,0.63,10.827c-0.882-0.119-1.721-0.132-2.581-0.057c-0.587,0.051-1.181,0.136-1.813,0.282   c0.095-1.874,0.154-3.773,0.212-5.614c0.035-1.119,0.07-2.238,0.113-3.355c0.007-0.218-0.068-0.42-0.212-0.569   c-0.145-0.15-0.353-0.236-0.572-0.236c-0.435,0-0.786,0.324-0.816,0.749c-0.047,0.623-0.086,1.219-0.12,1.805   c-0.008,0.143-0.017,0.285-0.024,0.426c-0.031,0.573-0.058,1.134-0.077,1.676c-0.002,0.044-0.002,0.085-0.004,0.128   c-0.017,0.502-0.026,0.988-0.032,1.466c-0.002,0.132-0.003,0.265-0.004,0.396c-0.003,0.501-0.002,0.994,0.008,1.473   c0,0.014,0,0.029,0,0.043c-0.149-1.086-0.104-2.124-0.037-3.277c0.01-0.198-0.057-0.382-0.186-0.518   c-0.13-0.136-0.317-0.213-0.513-0.213c-0.383,0-0.694,0.272-0.74,0.65c-0.126,1.053-0.057,2.231,0.207,3.592   c0.011,0.065,0.033,0.123,0.063,0.177c0.103,0.208,0.306,0.345,0.548,0.345c0.118,0,0.226-0.04,0.326-0.098   c0.065-0.033,0.127-0.075,0.178-0.134c0.056-0.065,0.093-0.14,0.12-0.219c0.008-0.023,0.012-0.044,0.017-0.068   c0.006-0.027,0.018-0.053,0.021-0.081c0.001,0.04,0.004,0.077,0.005,0.117c0.015,0.592,0.036,1.172,0.07,1.737   c-0.517,0.159-1.025,0.333-1.543,0.529c-0.84,0.318-1.643,0.471-2.451,0.471c-1.101,0-2.139-0.286-3.237-0.589   c-0.327-0.09-0.662-0.182-1.006-0.269c-0.008-1.187-0.008-2.378-0.009-3.571c-0.002-2.976-0.004-6.047-0.118-9.065   C68.25,8.028,70.624,8.044,73.005,8.062z M72.269,22.214c-0.011,0.004-0.023,0.007-0.034,0.011   c-0.322,0.102-0.65,0.195-0.989,0.264c-0.194,0.038-0.391,0.058-0.588,0.071c-0.082,0.005-0.164,0.006-0.247,0.007   c-0.099,0.002-0.197,0-0.296-0.004c-0.48-0.022-0.965-0.104-1.454-0.224c0.038,0.007,0.077,0.01,0.114,0.016   c0.225,0.039,0.452,0.074,0.683,0.097c0.024,0.002,0.049,0.002,0.073,0.004c0.235,0.021,0.47,0.041,0.714,0.041   c0.358,0,0.715-0.034,1.072-0.087c0.029-0.004,0.059-0.008,0.088-0.013C71.692,22.352,71.98,22.294,72.269,22.214z M6.431,21.211   c-0.1-0.179-0.179-0.373-0.241-0.579c0.024,0.052,0.051,0.091,0.076,0.14c0.08,0.165,0.164,0.32,0.25,0.464   c0.043,0.071,0.086,0.141,0.131,0.207c0.094,0.139,0.192,0.265,0.293,0.382c0.029,0.033,0.054,0.078,0.084,0.109   C6.793,21.745,6.598,21.505,6.431,21.211z M7.605,17.655c-0.084-0.031-0.172-0.044-0.261-0.046c-0.008,0-0.015-0.005-0.023-0.005   c-0.071,0-0.137,0.016-0.202,0.032c-0.005,0.001-0.01,0.001-0.014,0.002c-0.069,0.019-0.131,0.048-0.191,0.084   c-0.014,0.008-0.03,0.014-0.044,0.023c-0.04,0.028-0.074,0.062-0.108,0.097c-0.02,0.02-0.046,0.035-0.064,0.057   C6.7,17.879,6.7,17.86,6.702,17.84c0.017-0.21,0.037-0.42,0.058-0.623c0.04-0.391,0.076-0.762,0.081-1.074   c0.011-0.68,0.03-1.362,0.049-2.045C6.944,12.116,7,10.07,6.872,8.054c3.636,0.101,7.559,0.152,11.97,0.152   c0.001,0,0.001,0,0.002,0c2.451,0,4.902-0.015,7.353-0.038c-0.112,3.933-0.031,8.066,0.247,12.607   c-0.054-0.034-0.114-0.057-0.177-0.068l-0.525-0.099c-0.746-0.143-1.278-0.221-1.962-0.041l0.02-0.484   c0.145-3.38,0.296-6.876,0.302-10.32c0-0.405-0.319-0.721-0.725-0.721c-0.402,0-0.72,0.3-0.739,0.7   c-0.059,1.351-0.092,2.71-0.117,4.068c-0.002,0.126-0.009,0.251-0.011,0.377c-0.006-0.003-0.014-0.002-0.02-0.004   c-0.081-0.037-0.169-0.061-0.266-0.061c-0.004,0-0.007,0.002-0.01,0.002c-0.004,0-0.006-0.002-0.009-0.002   c-0.025-0.017-0.055-0.02-0.082-0.033c-0.012-0.006-0.023-0.009-0.035-0.014c-0.111-0.051-0.228-0.075-0.351-0.072   c-0.006,0-0.012,0-0.018,0c-0.114,0.005-0.221,0.032-0.323,0.083c-0.02,0.009-0.04,0.014-0.058,0.025   c-0.106,0.064-0.2,0.146-0.261,0.261c-0.504,0.97-0.661,2.152-0.432,3.244c0.059,0.279,0.283,0.474,0.559,0.518   c0.037,0.006,0.072,0.019,0.111,0.019c0,0,0,0,0,0c0.193,0,0.38-0.077,0.511-0.213c0.059-0.06,0.101-0.132,0.133-0.208   c0.01-0.024,0.014-0.049,0.022-0.073c0.01-0.035,0.026-0.068,0.031-0.104c0.025,0.009,0.053,0.006,0.08,0.012   c0.043,0.01,0.084,0.026,0.131,0.026c0.006,0,0.011-0.003,0.018-0.003c0.026-0.001,0.049-0.011,0.075-0.015   c0.051-0.008,0.103-0.015,0.149-0.035c0.004-0.002,0.01-0.001,0.014-0.003c0,0.09,0,0.178-0.001,0.268   c-0.004,0.927-0.006,1.85-0.007,2.764l-0.001,0.518c-0.202,0.1-0.365,0.191-0.509,0.271c-0.081,0.045-0.154,0.085-0.225,0.121   c-0.404,0.209-0.733,0.292-1.951,0.301c-0.209,0-0.391-0.01-0.563-0.023c-0.042-0.003-0.084-0.007-0.124-0.011   c-0.16-0.016-0.309-0.036-0.443-0.063c-0.019-0.004-0.037-0.009-0.056-0.013c-0.119-0.026-0.229-0.056-0.335-0.089   c-0.031-0.01-0.064-0.019-0.094-0.03c-0.113-0.039-0.222-0.08-0.329-0.127c-0.005-0.002-0.009-0.004-0.014-0.006   c0.003-0.426,0.02-0.853,0.032-1.279c0.01-0.327,0.012-0.654,0.026-0.981c0.021-0.48,0.052-0.959,0.081-1.438   c0.018-0.292,0.03-0.584,0.05-0.876c0.041-0.597,0.089-1.19,0.137-1.783c0.014-0.171,0.025-0.343,0.039-0.514   c0.064-0.764,0.131-1.524,0.198-2.278l0.078-0.876c0.015-0.194-0.049-0.379-0.181-0.522c-0.141-0.153-0.347-0.24-0.565-0.24   c-0.367,0-0.655,0.246-0.699,0.595c-0.062,0.452-0.116,0.904-0.163,1.355c-0.015,0.143-0.025,0.285-0.039,0.428   c-0.029,0.307-0.057,0.613-0.08,0.917c-0.013,0.174-0.022,0.344-0.033,0.517c-0.017,0.27-0.034,0.539-0.047,0.806   c-0.009,0.185-0.015,0.366-0.022,0.549c-0.01,0.251-0.019,0.501-0.025,0.748c-0.005,0.187-0.008,0.37-0.011,0.554   c-0.004,0.237-0.007,0.471-0.009,0.703c-0.001,0.184-0.001,0.364-0.001,0.545c0,0.228,0.001,0.452,0.004,0.674   c0.002,0.173,0.004,0.344,0.007,0.513c0.004,0.218,0.008,0.43,0.013,0.641c0.004,0.167,0.008,0.331,0.013,0.494   c0.002,0.067,0.003,0.138,0.005,0.204c-0.058-0.024-0.124-0.049-0.186-0.073c-0.057-0.022-0.11-0.045-0.171-0.067   c-0.138-0.051-0.284-0.102-0.443-0.152c-0.774-0.245-1.475-0.313-2.331-0.196c-0.269,0.036-0.554,0.09-0.868,0.167   c0.321-0.701,0.585-1.427,0.844-2.137c0.129-0.353,0.257-0.707,0.393-1.056l0.478-1.229c0.49-1.255,0.996-2.551,1.43-3.848   c0.086-0.255,0.052-0.518-0.095-0.722c-0.349-0.486-1.24-0.385-1.482,0.196c-0.5,1.2-0.948,2.44-1.381,3.64l-0.399,1.1   c-0.142,0.389-0.295,0.778-0.448,1.17c-0.45,1.146-0.914,2.331-1.13,3.541c-0.673,0.289-1.362,0.574-1.952,0.574   c-0.078,0-0.163-0.007-0.25-0.02c-0.027-0.004-0.055-0.013-0.083-0.019c-0.064-0.014-0.13-0.033-0.198-0.059   c-0.01-0.004-0.02-0.009-0.029-0.013c0.007,0,0.015,0.001,0.022,0.001c0.309,0,0.596-0.212,0.699-0.513   c0.028-0.082,0.036-0.165,0.034-0.247c-0.001-0.026-0.006-0.049-0.01-0.075c-0.008-0.057-0.022-0.111-0.044-0.164   c-0.006-0.014-0.005-0.029-0.012-0.043c0.035-0.009,0.064-0.032,0.097-0.047c0.028-0.013,0.055-0.023,0.081-0.039   c0.088-0.054,0.167-0.121,0.223-0.209c0.127-0.2,0.14-0.451,0.038-0.668c-0.314-0.686-0.33-1.286-0.249-2.157   c0.018-0.211-0.047-0.409-0.185-0.558c-0.366-0.4-1.16-0.231-1.322,0.292C7.659,17.375,7.627,17.513,7.605,17.655z M26.78,22.114   c0.064,0.031,0.133,0.048,0.202,0.05c0.017,0.016,0.035,0.033,0.054,0.047c-0.061-0.011-0.131-0.021-0.195-0.032   c-0.097-0.016-0.19-0.032-0.293-0.048c-0.104-0.016-0.213-0.029-0.321-0.044c-0.1-0.013-0.196-0.028-0.299-0.039   c-0.132-0.015-0.269-0.026-0.406-0.038c-0.085-0.007-0.168-0.017-0.254-0.023c-0.225-0.015-0.454-0.024-0.684-0.024   c-0.345,0-0.677,0.026-1.005,0.064c-0.07,0.008-0.14,0.016-0.209,0.025c-0.315,0.045-0.624,0.105-0.928,0.187   c-0.018,0.005-0.037,0.006-0.055,0.011c0.017-0.01,0.035-0.019,0.053-0.029c0.189-0.105,0.413-0.23,0.729-0.374   c0.047-0.022,0.09-0.05,0.127-0.084c0.047-0.003,0.093-0.014,0.138-0.029c0.015-0.005,0.03-0.011,0.045-0.016   c0.424-0.177,0.728-0.253,1.033-0.264c0.203-0.007,0.423,0.021,0.664,0.06c0.121,0.02,0.235,0.038,0.379,0.066   c0.134,0.025,0.278,0.053,0.435,0.082C26.224,21.82,26.483,21.968,26.78,22.114z M21.29,22.671   c-0.079,0.042-0.15,0.083-0.215,0.121c-0.268,0.155-0.445,0.258-0.887,0.3c-0.209,0.022-0.405,0.009-0.597-0.018   c-0.066-0.009-0.129-0.024-0.194-0.038c-0.125-0.027-0.249-0.061-0.37-0.104c-0.07-0.025-0.14-0.047-0.208-0.076   c-0.127-0.053-0.252-0.113-0.377-0.177c-0.041-0.021-0.082-0.038-0.122-0.06c0.1,0.023,0.206,0.043,0.316,0.061   c0.002,0,0.004,0.001,0.006,0.001c0.11,0.018,0.226,0.033,0.348,0.046c0.006,0.001,0.012,0.001,0.018,0.002   c0.119,0.012,0.243,0.022,0.376,0.028c0.039,0.002,0.083,0.002,0.123,0.003c0.092,0.003,0.178,0.008,0.277,0.008   c0.001,0,0.061,0,0.065,0c0,0,0.001,0,0.001,0c0.179-0.001,0.339-0.005,0.489-0.01c0.054-0.002,0.102-0.005,0.152-0.007   c0.093-0.005,0.184-0.01,0.267-0.016c0.047-0.004,0.091-0.008,0.135-0.012c0.079-0.008,0.155-0.017,0.226-0.026   c0.034-0.005,0.068-0.009,0.1-0.015C21.241,22.678,21.267,22.675,21.29,22.671z M8.043,30.261c0,0.04-0.001,0.08-0.002,0.119   c-0.006,0.624-0.019,1.248-0.034,1.87c-0.004,0.178-0.009,0.356-0.013,0.534c-0.016,0.607-0.034,1.212-0.052,1.814   c-0.001,0.042-0.002,0.085-0.004,0.128c-0.077-2.903-0.142-5.865,0.02-8.76c0.002,0.043,0.003,0.086,0.006,0.129   c0.031,0.59,0.05,1.183,0.063,1.778c0.003,0.164,0.007,0.328,0.009,0.493C8.046,28.998,8.049,29.629,8.043,30.261z M12.357,91.604   c0-0.004,0.001-0.007,0.001-0.01c0.011-0.143,0.025-0.279,0.068-0.395c0.076-0.206,0.207-0.379,0.39-0.517   c0.041-0.03,0.075-0.066,0.104-0.106c0.014-0.001,0.029-0.003,0.044-0.006C12.655,90.844,12.489,91.255,12.357,91.604z    M17.963,65.67c0.634,2.176,1.29,4.425,1.888,6.646c0.665,2.47,1.316,4.939,1.94,7.422c0.311,1.233,0.617,2.474,0.916,3.723   l0.113,0.439c0.322,1.216,1.176,4.444,0.335,5.609c-0.138,0.19-0.316,0.309-0.55,0.364c-0.637-0.704-1.553-1.037-2.45-0.86   c-0.004-4.53-0.704-9.183-2.085-13.846c-0.103-0.335-0.394-0.551-0.741-0.551c-0.251,0-0.489,0.116-0.638,0.31   c-0.144,0.187-0.191,0.431-0.127,0.673c1.208,4.388,1.947,9.003,2.257,14.102c-0.289,0.268-0.515,0.595-0.664,0.958   c-0.071,0.177-0.091,0.374-0.11,0.548c-0.01,0.093-0.025,0.232-0.042,0.275c-0.251,0.497-0.481,0.745-0.763,0.764   c-0.094,0.006-0.194-0.013-0.302-0.056c-0.148-0.355-0.325-0.697-0.52-1.008c0.011-0.047,0.016-0.097,0.016-0.147   c0.031-8.751-0.897-18.177-2.759-28.016c-0.075-0.38-0.382-0.635-0.763-0.635c-0.252,0-0.499,0.115-0.663,0.307   c-0.161,0.189-0.226,0.431-0.185,0.685c1.369,7.881,2.309,16.293,2.946,26.387c-0.394-0.22-0.81-0.338-1.248-0.345   c-0.146-0.002-0.295,0.007-0.446,0.03c-0.334-3.633-0.77-7.307-1.194-10.866l-0.221-1.864c-0.045-0.419-0.39-0.723-0.819-0.723   c-0.224,0-0.434,0.09-0.575,0.247c-0.14,0.155-0.203,0.362-0.179,0.587l0.23,1.967c0.432,3.707,0.878,7.535,1.43,11.293   c-0.219,0.217-0.384,0.472-0.491,0.762c-0.099,0.267-0.118,0.518-0.134,0.739c-0.031,0.421-0.041,0.549-0.457,0.7   c-0.268,0.095-0.654,0.008-1.144-0.256c-0.037-0.129-0.106-0.251-0.203-0.354c-1.945-2.087-1.794-4.987-1.648-7.79   c0.024-0.466,0.048-0.926,0.062-1.377c0.085-2.574,0.157-5.149,0.23-7.723l0.008-0.287c0.022-0.805,0.042-1.595,0.062-2.369   c0.036-1.409,0.07-2.764,0.101-4.085c0.003-0.14,0.007-0.285,0.01-0.424c0.015-0.641,0.03-1.27,0.044-1.894   c0.002-0.068,0.003-0.139,0.005-0.207c0.003-0.112,0.005-0.229,0.008-0.341c0.021,0.006,0.042-0.002,0.063,0.002   c0.043,0.008,0.082,0.024,0.128,0.024c0.031,0,0.057-0.013,0.087-0.017c0.016-0.003,0.03-0.005,0.045-0.009   c0.305-0.061,0.533-0.312,0.533-0.637c0-0.29,0.022-0.574,0.053-0.856c0.009-0.085,0.021-0.169,0.032-0.253   c0.029-0.21,0.062-0.42,0.101-0.63c0.007-0.036,0.013-0.073,0.02-0.109c0.001,0.015,0.004,0.031,0.005,0.046   c0.024,0.323,0.061,0.654,0.114,0.996c0.04,0.307,0.297,0.529,0.61,0.529c0.18,0,0.353-0.072,0.475-0.2   c0.093-0.098,0.177-0.321,0.171-0.456c-0.048-1.06,0.086-2.074,0.24-3.017c0.033-0.228-0.03-0.448-0.179-0.62   c-0.149-0.173-0.373-0.275-0.598-0.275c-0.344,0-0.626,0.23-0.706,0.585c-0.01,0.046-0.018,0.094-0.027,0.141   c-0.045-0.04-0.101-0.057-0.153-0.083c-0.027-0.013-0.049-0.032-0.078-0.042c-0.1-0.035-0.203-0.048-0.307-0.038   c-0.003,0-0.007-0.001-0.01-0.001c-0.217,0.024-0.421,0.137-0.526,0.344c0.001-0.054,0.002-0.106,0.003-0.159   c0.018-0.966,0.036-1.922,0.052-2.864c1.545,0.138,3.056,0.186,4.53,0.155l0.1-0.002c0.778-0.016,1.639-0.034,2.439-0.286   C16.374,60.214,17.181,62.985,17.963,65.67z M9.953,56.048c1.506-0.101,3.039-0.388,4.585-0.858   c0.515-0.157,1.032-0.334,1.549-0.531c0.047,0.084,0.032,0.134,0.026,0.156c-0.134,0.45-1.324,1.008-1.94,1.078   c-0.466,0.055-0.935,0.069-1.406,0.083l-0.318,0.01c-0.542,0.018-1.085,0.03-1.629,0.042c-0.144,0.003-0.289,0.006-0.433,0.01   C10.242,56.042,10.098,56.045,9.953,56.048z M16.815,53.297c-0.136,0.061-0.239,0.179-0.278,0.323   c-0.006,0.022-0.011,0.044-0.014,0.067c-0.052-0.041-0.114-0.058-0.176-0.075c-0.018-0.005-0.033-0.019-0.052-0.022   c-0.086-0.013-0.175-0.006-0.258,0.027c-0.635,0.252-1.269,0.47-1.9,0.659c-0.204,0.061-0.406,0.099-0.609,0.154   c-0.425,0.113-0.851,0.228-1.273,0.312c-0.012,0.002-0.025,0.003-0.037,0.006c0.045-0.013,0.088-0.029,0.133-0.042   c0.72-0.205,1.435-0.426,2.137-0.672c0.057-0.019,0.109-0.049,0.154-0.087c0.055,0,0.11-0.01,0.164-0.03   c0.792-0.287,1.552-0.606,2.298-0.941c0.219-0.098,0.432-0.202,0.647-0.304c0.557-0.265,1.101-0.546,1.633-0.839   c0.189-0.105,0.382-0.205,0.568-0.314c0.684-0.398,1.35-0.816,1.991-1.264c0.102-0.071,0.198-0.15,0.298-0.222   c0.355-0.255,0.708-0.511,1.05-0.782C21.256,50.915,19.064,52.307,16.815,53.297z M23.587,49.009   c0.08-0.065,0.156-0.136,0.235-0.202c0.085-0.071,0.178-0.131,0.262-0.203C23.923,48.746,23.751,48.871,23.587,49.009z    M26.808,44.443c-2.682,3.211-5.868,5.666-9.685,7.448c6.665-6.673,9.427-16.516,10.948-23.609   c0.057-0.254-0.001-0.511-0.157-0.706c-0.158-0.197-0.407-0.316-0.665-0.316c-0.366,0-0.676,0.231-0.791,0.588   c-0.314,0.994-0.62,1.985-0.924,2.971c-2.548,8.266-4.955,16.074-11.597,22.078c-0.11,0.097-0.184,0.22-0.215,0.353   c-0.672,0.226-1.355,0.433-2.041,0.621c1.64-2.705,2.4-5.671,2.925-8.274c0.15-0.739,0.301-1.507,0.45-2.286   c0.032-0.165,0.063-0.326,0.094-0.493c0.146-0.781,0.287-1.577,0.42-2.389c0.012-0.075,0.027-0.145,0.039-0.22   c-0.002,0.098,0.003,0.2,0.003,0.299c0,0.098,0,0.196,0.002,0.295c0.008,0.378,0.026,0.762,0.066,1.158   c0.033,0.347,0.322,0.608,0.67,0.608c0,0,0,0,0,0c0.178,0,0.349-0.071,0.469-0.195c0.121-0.126,0.185-0.294,0.18-0.468   c-0.007-0.408,0.009-0.811,0.038-1.212c0.001-0.019,0.004-0.038,0.006-0.058c0.023,0.015,0.05,0.023,0.074,0.036   c0.021,0.011,0.041,0.022,0.063,0.03c0.079,0.03,0.162,0.052,0.25,0.052c0.325,0,0.592-0.218,0.647-0.527   c0.278-1.486,0.447-2.737,0.368-3.997c-0.018-0.407-0.337-0.712-0.742-0.712c-0.406,0-0.724,0.306-0.742,0.715   c-0.006,0.152-0.011,0.303-0.014,0.454c-0.351-0.072-0.712,0.135-0.829,0.486c-0.047,0.14-0.092,0.283-0.132,0.428   c0.005-0.036,0.007-0.073,0.011-0.109c0.1-0.805,0.182-1.617,0.249-2.434c0.015-0.18,0.027-0.36,0.04-0.54   c0.061-0.85,0.109-1.702,0.123-2.557c0.003-0.228-0.078-0.438-0.229-0.591c-0.153-0.155-0.372-0.244-0.6-0.244   c-0.461,0-0.83,0.343-0.858,0.797c-0.499,8.079-1.308,16.461-5.129,22.458c-0.313,0.069-0.631,0.135-0.949,0.199   c0.078-5.15,0.148-10.295,0.188-15.445c0.01-1.484,0.055-2.988,0.101-4.503c0.027-0.877,0.053-1.76,0.073-2.647   c0.007-0.296,0.006-0.592,0.011-0.888c0.009-0.558,0.021-1.115,0.021-1.673c0.009,0,0.018-0.004,0.027-0.004   c0.01,0,0.019,0.006,0.03,0.006c0.064,0,0.122-0.017,0.18-0.033c0.006-0.002,0.012-0.001,0.018-0.003   c0.24-0.077,0.419-0.283,0.447-0.553c0.017-0.158,0.033-0.32,0.049-0.481c0.04,0.036,0.089,0.059,0.137,0.084   c0.021,0.011,0.038,0.028,0.06,0.037c0.075,0.029,0.157,0.046,0.243,0.046c0.357,0,0.636-0.268,0.648-0.625l0.026-0.59   c0.027-0.559,0.054-1.137,0.028-1.701c-0.01-0.391-0.311-0.686-0.702-0.686c-0.093,0-0.179,0.019-0.259,0.049   c-0.028,0.011-0.05,0.029-0.076,0.043c-0.048,0.026-0.095,0.052-0.136,0.088c-0.025,0.023-0.043,0.05-0.065,0.076   c-0.032,0.038-0.061,0.076-0.084,0.121c-0.016,0.031-0.026,0.064-0.037,0.098c-0.01,0.029-0.026,0.055-0.032,0.086   c-0.018-0.013-0.043-0.015-0.062-0.027c-0.058-0.035-0.119-0.063-0.187-0.081c-0.035-0.009-0.068-0.015-0.104-0.019   c-0.03-0.004-0.057-0.016-0.089-0.016c-0.038,0-0.071,0.015-0.108,0.02c-0.025,0.003-0.051-0.005-0.074,0.001   c-0.042-0.62-0.095-1.237-0.163-1.85c0.067,0.002,0.132,0.004,0.198,0.004h0c0.117,0,0.224-0.019,0.337-0.027   c0.138-0.009,0.278-0.013,0.41-0.032c0.104-0.015,0.202-0.04,0.302-0.061c0.153-0.032,0.309-0.059,0.456-0.101   c0.081-0.023,0.157-0.051,0.236-0.076c0.387-0.123,0.762-0.265,1.126-0.409c0.82-0.326,1.595-0.636,2.503-0.636   c0.527,0,1.058,0.103,1.625,0.316c0.449,0.169,0.859,0.408,1.292,0.66c0.156,0.091,0.314,0.181,0.473,0.27   c0.066,0.037,0.132,0.074,0.198,0.109c0.005,0.002,0.01,0.005,0.014,0.007c0.11,0.058,0.221,0.113,0.334,0.165   c0.592,0.271,1.24,0.452,2.025,0.382c0.658-0.065,0.978-0.25,1.288-0.43c0.183-0.105,0.356-0.206,0.633-0.303   c0.752-0.263,1.531-0.391,2.381-0.391c0.652,0,1.336,0.07,2.264,0.23c0.151,0.106,0.358,0.146,0.54,0.094l0.196,0.033   c1.594,0.302,2.365,0.258,4.019-0.245c0.28-0.09,0.543-0.18,0.797-0.266l0.561-0.187c0.076-0.011,0.149-0.035,0.213-0.07   c0.683-0.216,1.304-0.359,2.083-0.359l0.137,0.002c0.106,0.002,0.213,0.009,0.324,0.021C34.568,31.149,31.492,38.83,26.808,44.443z    M22.729,41.887c1.3-2.999,2.319-6.152,3.322-9.387C25.249,35.514,24.19,38.756,22.729,41.887z M35.946,20.361   c-0.393-0.06-0.762-0.077-1.142-0.047c-0.426,0.033-0.835,0.124-1.215,0.233c0.138-1.78,0.432-3.472,0.894-5.154   c0.06-0.224,0.016-0.455-0.12-0.633c-0.332-0.435-1.125-0.313-1.298,0.228c-0.618,1.967-0.914,3.996-0.881,6.034l-0.223,0.079   c-0.579,0.231-1.158,0.429-1.653,0.573c-0.888,0.117-1.721,0.048-2.486-0.204c-0.095-3.955-0.108-8.187-0.039-13.27   c0-0.015,0.001-0.031,0-0.046c2.163-0.02,4.324-0.048,6.486-0.076l1.84-0.024C35.53,11.91,35.474,16.14,35.946,20.361z    M36.983,7.133c-0.002,0.001-0.005,0.001-0.007,0.002c-0.08-0.051-0.165-0.061-0.273-0.078l-2.447,0.032   c-1.816,0.023-3.631,0.043-5.447,0.062c-0.606,0.006-1.21,0.016-1.816,0.021c-2.588,0.026-5.175,0.042-7.763,0.043   c-0.398,0-0.795,0-1.189,0c-0.729-0.001-1.452-0.003-2.155-0.007c-0.301-0.002-0.596-0.004-0.892-0.006   c-0.813-0.006-1.614-0.014-2.395-0.023c5.85-0.187,11.375-0.217,15.848-0.217c3.526,0,7.052,0.021,10.575,0.042   c0.503,0.003,1.006,0.006,1.509,0.009c-1.125,0.013-2.224,0.025-3.283,0.037C37.15,7.051,37.06,7.082,36.983,7.133z M50.911,8.443   c-0.875,3.506-1.302,7.418-1.272,11.635c-1.001-0.246-1.897-0.245-2.921-0.015c-0.184-3.248-0.365-6.212-0.64-9.207   c-0.035-0.39-0.359-0.685-0.755-0.685c-0.202,0-0.395,0.081-0.527,0.222c-0.133,0.142-0.199,0.332-0.186,0.533   c0.175,3.153,0.466,6.352,0.747,9.446l0.006,0.069c-0.409,0.132-0.796,0.272-1.173,0.409c-1.129,0.408-2.103,0.76-3.275,0.76   c-0.652,0-1.325-0.11-2.057-0.337c-0.346-0.107-0.675-0.229-0.997-0.349c-0.164-0.061-0.326-0.121-0.489-0.179   c-0.091-3.813,0.038-7.762,0.415-12.711c3.548-0.041,7.515-0.084,11.352-0.084l0.82,0.001c0.406,0,0.807,0,1.211,0.003v0.071   c-0.03,0.026-0.051,0.06-0.077,0.09c-0.019,0.023-0.04,0.042-0.057,0.067C50.981,8.259,50.937,8.345,50.911,8.443z M61.8,20.35   c0.761-3.238,1.243-6.33,1.432-9.204c0.013-0.21-0.059-0.409-0.203-0.561c-0.155-0.165-0.38-0.26-0.616-0.26   c-0.388,0-0.701,0.26-0.761,0.636c-0.074,0.49-0.148,0.98-0.219,1.471c-0.041-0.041-0.093-0.066-0.143-0.094   c-0.084-0.05-0.175-0.08-0.274-0.094c-0.021-0.003-0.041-0.011-0.062-0.013c-0.015-0.001-0.028-0.009-0.043-0.009   c-0.158,0-0.299,0.05-0.417,0.132c-0.008,0.005-0.018,0.007-0.026,0.012c-0.023-0.014-0.05-0.013-0.074-0.025   c-0.036-0.015-0.072-0.027-0.11-0.036c-0.096-0.026-0.191-0.032-0.289-0.018c-0.012,0.002-0.024,0.002-0.036,0.005   c-0.057,0.011-0.109,0.023-0.162,0.046c-0.069,0.028-0.131,0.067-0.188,0.114c-0.019,0.017-0.034,0.035-0.052,0.053   c-0.064,0.067-0.119,0.144-0.149,0.24c-0.228,0.721-0.431,1.446-0.632,2.167l-0.032,0.113c-0.058,0.202-0.021,0.411,0.1,0.575   c0.125,0.164,0.324,0.263,0.534,0.263c0.056,0,0.111-0.008,0.163-0.021c-0.031,0.112-0.052,0.224-0.086,0.337   c-0.054,0.198-0.015,0.402,0.105,0.56c0.123,0.161,0.32,0.257,0.527,0.257c0.283,0,0.527-0.172,0.624-0.444   c0.079-0.231,0.157-0.465,0.234-0.702c-0.018,0.129-0.036,0.259-0.054,0.388c-0.21,1.497-0.419,2.996-0.641,4.492   c-0.424,0.126-0.854,0.267-1.294,0.415c-0.256,0.084-0.511,0.174-0.766,0.265c-0.99,0.351-1.924,0.681-2.981,0.681   c-0.001,0-0.002,0-0.003,0c-1.18-0.017-1.977-0.438-2.899-0.924c-0.389-0.205-0.79-0.416-1.248-0.609   c0.225-4.37,0.872-8.562,1.415-11.746c0.042-0.241-0.022-0.485-0.177-0.669c-0.042-0.05-0.089-0.095-0.141-0.132V7.958   c3.982,0.007,7.975,0.019,11.956,0.043c-0.195,4.335,0.055,8.774,0.324,12.314C63.569,20.176,62.741,20.186,61.8,20.35z    M64.412,27.219c0.019,0.094,0.04,0.188,0.06,0.282c0.078,0.377,0.158,0.753,0.24,1.129c0.041,0.187,0.08,0.374,0.122,0.56   c0.119,0.531,0.242,1.061,0.372,1.59c0.006,0.024,0.011,0.048,0.017,0.072c0.135,0.548,0.279,1.094,0.429,1.638   c0.046,0.167,0.095,0.333,0.142,0.5c0.108,0.379,0.219,0.757,0.335,1.134c0.031,0.102,0.058,0.205,0.09,0.306   C65.406,32.048,64.802,29.617,64.412,27.219z M71.929,44.016c-4.36-6.102-5.844-13.007-7.187-20.323   c-0.09-0.488-0.178-0.977-0.267-1.469c0.51,0.065,1.026,0.179,1.562,0.346c0.275,0.085,0.548,0.175,0.818,0.264   c1.098,0.361,2.233,0.735,3.454,0.735c0.382,0,0.763-0.037,1.133-0.11c1.104-0.224,2.073-0.623,3.009-1.009l0.264-0.107   c0.293,0.127,0.674-0.001,0.818-0.324c1.013-0.381,2.131-0.701,3.445-0.609c0.446,0.03,0.904,0.116,1.425,0.269   c0.155,0.286,0.545,0.424,0.874,0.301c0.336,0.126,0.669,0.262,1.002,0.398c1.119,0.457,2.275,0.928,3.548,1.007   c0.987,0.055,1.971-0.312,3.066-0.767c0.07-0.018,0.135-0.046,0.195-0.084l0.069-0.029c1.06-0.446,2.184-0.899,3.073-0.808   c0.046,5.984,0.236,12.058,0.418,17.937c0.155,4.97,0.314,10.104,0.387,15.161c-0.386,0.018-0.769,0.025-1.149,0.025h-0.057   c-0.326-0.504-0.64-1.011-0.944-1.523c-0.11-0.185-0.212-0.374-0.32-0.561c-0.19-0.329-0.381-0.658-0.562-0.991   c-0.014-0.026-0.026-0.052-0.04-0.077c0.05,0.014,0.098,0.023,0.136,0.023c0.275,0,0.528-0.182,0.63-0.451   c0.098-0.261,0.026-0.546-0.181-0.726c-0.173-0.151-0.316-0.322-0.462-0.491c0.039-0.011,0.071-0.035,0.107-0.052   c0.029-0.014,0.057-0.023,0.083-0.041c0.095-0.062,0.178-0.139,0.231-0.24c0.057-0.108,0.08-0.225,0.072-0.34   c-0.008-0.115-0.047-0.229-0.117-0.33c-0.639-0.949-0.999-2.029-1.099-3.292c-0.025-0.405-0.354-0.71-0.766-0.71   c-0.207,0-0.403,0.081-0.54,0.224c-0.136,0.141-0.206,0.332-0.197,0.541c0.01,0.211,0.03,0.42,0.06,0.629   c-0.009,0.003-0.015,0.012-0.024,0.015c-0.106,0.038-0.2,0.095-0.277,0.173c-0.001,0.001-0.003,0.001-0.004,0.002   c-0.045-0.115-0.089-0.231-0.133-0.346c-0.186-0.487-0.364-0.979-0.534-1.474c-0.066-0.192-0.133-0.383-0.196-0.576   c-0.215-0.654-0.419-1.313-0.606-1.981c-0.003-0.01-0.006-0.019-0.009-0.029c-0.188-0.676-0.357-1.361-0.517-2.051   c-0.048-0.206-0.091-0.413-0.136-0.62c-0.112-0.513-0.216-1.03-0.312-1.551c-0.039-0.212-0.079-0.423-0.116-0.636   c-0.12-0.701-0.231-1.408-0.323-2.125c-0.001-0.009-0.003-0.019-0.004-0.028c-0.093-0.725-0.168-1.461-0.233-2.202   c-0.019-0.221-0.035-0.445-0.052-0.667c-0.042-0.552-0.077-1.109-0.103-1.67c-0.011-0.226-0.023-0.452-0.031-0.679   c-0.028-0.764-0.046-1.533-0.046-2.314c0-0.494-0.369-0.866-0.859-0.866c-0.479,0-0.856,0.347-0.896,0.824   c-0.787,9.125,1.964,18.959,7.564,27.14c-0.558-0.043-1.107-0.107-1.64-0.189c-0.047-0.059-0.104-0.109-0.17-0.151   c-0.701-0.457-1.375-0.933-2.039-1.418c-0.161-0.118-0.322-0.236-0.481-0.356c-0.649-0.488-1.286-0.986-1.9-1.503   c-0.05-0.042-0.097-0.086-0.146-0.128c-0.571-0.486-1.123-0.987-1.664-1.499c-0.142-0.134-0.283-0.268-0.423-0.404   c-0.565-0.551-1.118-1.113-1.65-1.695c-0.074-0.08-0.143-0.164-0.216-0.245c-0.474-0.526-0.933-1.067-1.382-1.62   c-0.12-0.148-0.24-0.294-0.358-0.444c-0.491-0.622-0.968-1.258-1.428-1.914c-0.078-0.111-0.152-0.227-0.229-0.339   c-0.403-0.586-0.793-1.186-1.172-1.799c-0.095-0.154-0.192-0.306-0.285-0.461c-0.425-0.705-0.836-1.428-1.232-2.17   c-0.021-0.04-0.041-0.081-0.062-0.121c0.061,0.019,0.125,0.03,0.191,0.03c0.001,0,0.001,0,0.001,0c0.233,0,0.459-0.124,0.589-0.324   s0.15-0.451,0.051-0.676c-0.07-0.157-0.131-0.314-0.196-0.472c0.053-0.032,0.103-0.071,0.146-0.117   c0.13-0.138,0.197-0.321,0.187-0.505l-0.014-0.352c-0.027-0.748-0.055-1.52-0.184-2.28c-0.066-0.376-0.384-0.637-0.777-0.637   c-0.115,0-0.226,0.023-0.329,0.065c-0.034,0.014-0.06,0.04-0.092,0.058c-0.06,0.034-0.123,0.063-0.173,0.11   c-0.005-0.01-0.017-0.015-0.023-0.025c-0.049-0.08-0.112-0.148-0.188-0.202c-0.029-0.021-0.058-0.038-0.09-0.055   c-0.08-0.042-0.165-0.074-0.255-0.09c-0.027-0.005-0.052-0.005-0.08-0.007c-0.104-0.009-0.207-0.005-0.305,0.024   c-0.01,0.003-0.019,0.009-0.029,0.012c-0.107,0.036-0.207,0.092-0.283,0.18c-0.132,0.153-0.189,0.35-0.161,0.555   c0.035,0.261,0.084,0.526,0.144,0.792c-0.043-0.1-0.086-0.2-0.129-0.301c-0.352-0.832-0.695-1.675-1.02-2.549   c-0.124-0.348-0.488-0.526-0.829-0.502c-0.205,0.014-0.401,0.1-0.531,0.266c-0.145,0.184-0.195,0.427-0.139,0.664   c1.909,8.183,7.513,16.16,14.934,21.467C79.297,51.689,75.084,48.43,71.929,44.016z M84.796,22.213   c0.386,0.081,0.778,0.139,1.176,0.177c0.022,0.002,0.044,0.008,0.066,0.01c-0.002,0-0.004,0.001-0.007,0.001l-0.145-0.004   c-0.253-0.016-0.502-0.054-0.749-0.103c-0.076-0.015-0.151-0.034-0.227-0.051C84.873,22.235,84.835,22.223,84.796,22.213z    M90.659,56.665c-0.599,0.032-1.226,0.054-1.856,0.054c-1.691,0-3.036-0.159-4-0.474c-0.182-0.351-0.627-0.576-1.04-0.488   c-0.154-0.108-0.284-0.225-0.392-0.351C85.706,56.231,88.152,56.654,90.659,56.665z M85.059,41.997   c-1.072-3.595-1.651-7.271-1.69-10.882C83.578,34.939,84.139,38.559,85.059,41.997z M77.666,46.268   c-2.542-2.965-4.612-6.272-6.05-9.712C73.326,40.184,75.327,43.402,77.666,46.268z M82.501,54.051   c-0.018,0-0.036,0.003-0.053,0.005c-0.004,0-0.008,0.001-0.013,0.001c-0.008,0.001-0.016,0.001-0.024,0.002   c-0.051-0.082-0.127-0.15-0.219-0.19c-2.073-0.915-3.978-2.138-5.711-3.6c0.076,0.061,0.155,0.115,0.232,0.175   c0.257,0.201,0.517,0.398,0.78,0.589c0.127,0.092,0.254,0.182,0.382,0.272c0.258,0.18,0.519,0.355,0.782,0.525   c0.125,0.081,0.249,0.163,0.375,0.241c0.308,0.192,0.62,0.376,0.935,0.554c0.08,0.045,0.158,0.094,0.239,0.138   c0.397,0.219,0.799,0.427,1.205,0.623c0.097,0.047,0.195,0.088,0.292,0.134c0.311,0.145,0.623,0.286,0.938,0.418   c0.142,0.06,0.285,0.115,0.428,0.172c0.279,0.111,0.56,0.217,0.843,0.318c0.151,0.054,0.301,0.106,0.453,0.157   c0.294,0.098,0.591,0.189,0.889,0.276c0.135,0.039,0.269,0.081,0.404,0.118c0.431,0.118,0.864,0.226,1.302,0.32   c0.208,0.039,0.413-0.049,0.523-0.221c0.053,0.035,0.105,0.07,0.158,0.104c0.054,0.143,0.18,0.245,0.33,0.288   c-0.426-0.056-0.853-0.105-1.273-0.186c-0.084-0.016-0.167-0.039-0.252-0.056c-0.523-0.108-1.042-0.238-1.555-0.386   c-0.155-0.045-0.31-0.09-0.464-0.138c-0.586-0.183-1.168-0.383-1.739-0.618C82.628,54.063,82.565,54.051,82.501,54.051z    M78.694,90.464c-0.001,0-0.003,0-0.004,0c-0.792-0.03-1.608-0.533-2.183-1.345c-0.735-1.043-0.992-2.531-1.028-4.104   c0.033,0.24,0.072,0.475,0.119,0.705c0.043,0.209,0.12,0.426,0.222,0.647c0.034,0.073,0.084,0.147,0.123,0.22   c0.08,0.15,0.159,0.3,0.26,0.451c0.058,0.087,0.129,0.171,0.193,0.258c0.102,0.138,0.202,0.276,0.317,0.412   c0.076,0.089,0.159,0.173,0.24,0.26c0.119,0.129,0.236,0.258,0.364,0.382c0.088,0.085,0.18,0.163,0.271,0.245   c0.13,0.117,0.257,0.232,0.391,0.341c0.096,0.078,0.193,0.147,0.29,0.22c0.133,0.099,0.263,0.196,0.396,0.285   c0.1,0.067,0.198,0.123,0.297,0.183c0.128,0.077,0.254,0.151,0.38,0.215c0.101,0.051,0.196,0.092,0.294,0.134   c0.075,0.032,0.155,0.077,0.227,0.104C79.487,90.279,79.126,90.464,78.694,90.464z M88.051,90.604   c0.015-0.021,0.031-0.043,0.046-0.063c0.025-0.032,0.05-0.064,0.075-0.093c0.07-0.08,0.142-0.149,0.224-0.191   c0.027-0.014,0.052-0.03,0.075-0.047c0.044-0.001,0.089-0.004,0.132-0.015c0.073-0.007,0.145-0.003,0.217,0.011   c0.023,0.004,0.046,0.016,0.069,0.022c0.05,0.014,0.1,0.03,0.15,0.055c0.027,0.013,0.055,0.033,0.082,0.05   c0.047,0.029,0.095,0.058,0.143,0.097c0.028,0.022,0.057,0.049,0.086,0.075c0.028,0.025,0.056,0.053,0.085,0.081   C88.912,90.34,88.415,90.392,88.051,90.604z M89.371,89.349c-0.036-0.015-0.071-0.036-0.106-0.048   c-0.111-0.039-0.222-0.068-0.336-0.084c-0.115-1.122-0.191-2.238-0.25-3.352c-0.014-0.265-0.028-0.53-0.038-0.795   c-0.045-1.098-0.069-2.194-0.06-3.291c0.001-0.136,0.008-0.272,0.01-0.408c0.008-0.534,0.041-1.07,0.062-1.604   c0.035,0.752,0.077,1.507,0.13,2.264c0.005,0.072,0.013,0.145,0.018,0.218c0.083,1.159,0.192,2.324,0.317,3.493   c0.025,0.231,0.047,0.461,0.073,0.692c0.114,1,0.237,2.002,0.381,3.008C89.505,89.403,89.438,89.378,89.371,89.349z M92.499,91.758   c0.079-0.062,0.155-0.131,0.229-0.208c0.083-0.086,0.159-0.181,0.232-0.281C92.827,91.463,92.677,91.633,92.499,91.758z    M93.002,91.214c0.003-0.005,0.006-0.01,0.009-0.014c0.007-0.011,0.016-0.019,0.024-0.029   C93.024,91.186,93.012,91.198,93.002,91.214z M92.016,90.864c-0.095,0.098-0.195,0.165-0.3,0.218   c-0.023,0.011-0.045,0.024-0.068,0.034c-0.103,0.042-0.213,0.064-0.333,0.067c-0.067,0.002-0.134,0.003-0.206-0.007   c-0.12-0.194-0.25-0.397-0.391-0.596c-0.001-0.002-0.002-0.004-0.004-0.006c0.013-0.013,0.024-0.025,0.036-0.038   c0.091-0.103,0.155-0.314,0.141-0.45c-0.876-8.575-0.859-17.43,0.054-27.069c0.022-0.211-0.043-0.412-0.184-0.568   c-0.153-0.169-0.377-0.266-0.615-0.266c-0.398,0-0.708,0.266-0.753,0.638c-0.125,0.895-0.235,1.794-0.332,2.696   c-0.035,0.323-0.06,0.647-0.091,0.971c-0.056,0.58-0.113,1.159-0.158,1.741c-0.03,0.391-0.05,0.782-0.075,1.173   c-0.033,0.515-0.067,1.03-0.091,1.546c-0.019,0.416-0.029,0.831-0.043,1.247c-0.012,0.373-0.031,0.746-0.038,1.118   c-0.034-0.01-0.068-0.001-0.102-0.006c-0.043-0.007-0.082-0.026-0.127-0.026c-0.027,0-0.051,0.011-0.077,0.014   c-0.033,0.004-0.062,0.009-0.094,0.017c-0.091,0.019-0.174,0.05-0.251,0.096c-0.011,0.007-0.022,0.012-0.032,0.019   c-0.087,0.057-0.16,0.127-0.219,0.212c-0.007,0.009-0.015,0.017-0.021,0.026c-0.06,0.096-0.107,0.201-0.123,0.321   c-0.651,5.116-0.61,10.362,0.121,15.598c-0.223,0.188-0.382,0.418-0.526,0.628c-0.1,0.147-0.202,0.298-0.331,0.426   c-0.36,0.351-0.762,0.522-1.227,0.522c-1.134,0-2.426-1.017-3.197-2.015c-0.106-0.144-0.246-0.249-0.404-0.306   c0.438-7.455,1.808-14.29,4.187-20.884c0.084-0.242,0.05-0.495-0.092-0.694c-0.339-0.473-1.217-0.377-1.43,0.2   c-2.629,7.125-3.97,14.37-3.99,21.541c-0.075,0.033-0.146,0.071-0.213,0.106c-0.039,0.021-0.092,0.049-0.131,0.067   c-1.416-0.448-3.47-2.455-3.716-3.653c-0.067-0.328-0.111-0.675-0.147-1.029c0.006,0.017,0.015,0.034,0.02,0.051   c0.039,0.115,0.085,0.228,0.136,0.341c0.022,0.049,0.041,0.098,0.065,0.146c0.08,0.16,0.169,0.317,0.273,0.471   c0.119,0.176,0.315,0.281,0.525,0.281c0.234,0,0.456-0.129,0.566-0.331c0.108-0.197,0.099-0.432-0.023-0.623   c-0.103-0.164-0.176-0.336-0.228-0.516c-0.017-0.06-0.02-0.125-0.032-0.187c-0.024-0.124-0.043-0.25-0.044-0.382   c0-0.015,0.003-0.032,0.004-0.047c0.003,0.007,0.008,0.014,0.011,0.021c0.051,0.119,0.115,0.233,0.18,0.347   c0.032,0.056,0.058,0.115,0.093,0.17c0.107,0.165,0.228,0.324,0.366,0.472c0.127,0.132,0.294,0.206,0.469,0.206   c0.245,0,0.476-0.147,0.586-0.375c0.113-0.233,0.083-0.505-0.083-0.716c-0.546-0.671-0.585-1.586-0.101-2.388   c0.139-0.234,0.144-0.509,0.014-0.737c-0.257-0.455-1.005-0.491-1.293-0.046c-0.108,0.163-0.195,0.334-0.269,0.511   c-0.024,0.058-0.038,0.119-0.058,0.178c-0.042,0.122-0.082,0.243-0.109,0.368c-0.004,0.017-0.012,0.034-0.015,0.051   c-0.22-0.09-0.467-0.049-0.658,0.072c-0.004,0.002-0.008,0.005-0.012,0.007c-0.097,0.064-0.183,0.142-0.233,0.249   c-0.087,0.173-0.149,0.353-0.2,0.537c-0.004,0.014-0.012,0.027-0.016,0.042c0.002-0.097,0.005-0.194,0.008-0.291   c0.014-0.431,0.039-0.866,0.077-1.306c0.012-0.141,0.021-0.281,0.035-0.422c0.056-0.556,0.124-1.114,0.204-1.664   c0.018-0.123,0.038-0.243,0.057-0.366c0.07-0.459,0.144-0.912,0.222-1.354c0.028-0.157,0.055-0.315,0.083-0.469   c0.089-0.494,0.18-0.982,0.265-1.434l0.049-0.26c1.126-5.982,3.434-11.747,6.862-17.139c0.304,0.09,0.636,0.167,0.989,0.233   c0.105,0.02,0.224,0.033,0.333,0.051c0.26,0.042,0.523,0.083,0.806,0.113c0.031,0.003,0.057,0.009,0.088,0.012   c-0.043,0.074-0.071,0.158-0.081,0.248c-0.035,0.311,0.16,0.586,0.482,0.659c0.353,0.067,0.702,0.122,1.051,0.164   c-0.01,0.004-0.017,0.011-0.027,0.015c-0.021,0.009-0.038,0.021-0.058,0.032c-0.045,0.025-0.085,0.054-0.122,0.088   c-0.018,0.017-0.033,0.033-0.049,0.052c-0.032,0.039-0.058,0.081-0.08,0.127c-0.01,0.021-0.021,0.039-0.029,0.061   c-0.024,0.069-0.04,0.143-0.038,0.221c0.007,0.337,0.275,0.601,0.604,0.601l2.482,0.034c0.006,0,0.017,0,0.023,0   c0.106,0,0.2-0.031,0.287-0.075c0.026-0.013,0.046-0.031,0.07-0.048c0.06-0.042,0.111-0.093,0.153-0.154   c0.01-0.015,0.028-0.021,0.037-0.037c0.006-0.01,0.003-0.022,0.009-0.033c0.046-0.089,0.078-0.187,0.079-0.297   c0-0.005-0.001-0.009-0.001-0.014c-0.001-0.103-0.032-0.199-0.077-0.289c-0.006-0.012-0.003-0.026-0.01-0.038   c-0.006-0.011-0.019-0.015-0.025-0.025c-0.013-0.02-0.02-0.044-0.036-0.063c-0.037-0.044-0.087-0.071-0.134-0.103   c-0.019-0.013-0.03-0.038-0.051-0.05c0.013-0.007,0.018-0.023,0.03-0.031c0.073-0.048,0.132-0.108,0.18-0.181   c0.016-0.024,0.03-0.046,0.043-0.073c0.046-0.095,0.079-0.197,0.075-0.311c-0.003-0.091-0.025-0.174-0.061-0.25   c-0.011-0.023-0.031-0.04-0.044-0.062c-0.03-0.048-0.061-0.095-0.104-0.133c-0.005-0.004-0.006-0.01-0.011-0.014   c0.019-0.001,0.036-0.003,0.055-0.004c0.149-0.011,0.292-0.022,0.433-0.033c0.054-0.004,0.109-0.009,0.162-0.013   c0.122-0.011,0.238-0.021,0.353-0.032c0.063-0.006,0.128-0.012,0.189-0.018c0.105-0.011,0.202-0.021,0.3-0.032   c0.056-0.006,0.115-0.012,0.168-0.018c0.145-0.016,0.28-0.033,0.403-0.048c0.051,5.155,0.068,10.227,0.048,15.086   c-0.014,2.689-0.034,5.377-0.068,8.067c-0.003,0.273,0.012,0.686,0.03,1.191C93.159,84.799,93.326,89.507,92.016,90.864z    M91.001,19.978c-0.252,0.041-0.494,0.119-0.736,0.2c-0.11,0.037-0.22,0.073-0.401,0.129c-0.051,0.023-0.102,0.046-0.154,0.069   c0.127-0.744,0.227-1.483,0.315-2.221c0.018-0.151,0.037-0.302,0.053-0.453c0.078-0.718,0.139-1.433,0.18-2.143   c0.007-0.118,0.01-0.235,0.016-0.353c0.015-0.316,0.034-0.632,0.042-0.946c0.03,0,0.057-0.012,0.086-0.016   c0.052-0.007,0.105-0.011,0.152-0.029c0.037-0.014,0.066-0.04,0.099-0.06c0.035-0.021,0.073-0.036,0.103-0.063   c0.029-0.026,0.048-0.061,0.072-0.091c0.025-0.032,0.056-0.06,0.075-0.096c0.038-0.071,0.064-0.151,0.075-0.237l0.107-0.843   c0.006-0.049,0.013-0.099,0.018-0.147c0.003,0.031,0.009,0.06,0.013,0.09c0.012,0.105,0.027,0.206,0.044,0.307   c0.011,0.068,0.021,0.137,0.034,0.203c0.021,0.106,0.045,0.206,0.07,0.307c0.014,0.057,0.027,0.115,0.042,0.17   c0.03,0.11,0.063,0.213,0.097,0.316c0.013,0.04,0.025,0.082,0.038,0.12c0.048,0.138,0.097,0.269,0.148,0.391   c0.104,0.267,0.354,0.439,0.637,0.439c0.206,0,0.404-0.095,0.529-0.253s0.17-0.368,0.119-0.588   c-0.302-1.133-0.241-2.214-0.129-3.212c0.023-0.209-0.038-0.406-0.173-0.557c-0.135-0.151-0.331-0.221-0.531-0.222   c-0.005,0-0.01,0.001-0.014,0.001c-0.061,0.001-0.123,0.006-0.183,0.02c-0.018,0.004-0.034,0.012-0.051,0.017   c-0.046,0.013-0.093,0.026-0.136,0.047c-0.026,0.012-0.049,0.031-0.074,0.046c-0.031,0.019-0.064,0.035-0.091,0.058   c-0.025,0.02-0.043,0.046-0.065,0.07c-0.022,0.024-0.047,0.045-0.066,0.073c-0.014,0.021-0.022,0.047-0.033,0.07   c-0.017,0.034-0.038,0.065-0.049,0.103c-0.002-0.007-0.009-0.013-0.011-0.02c-0.03-0.102-0.078-0.198-0.151-0.276   c-0.061-0.065-0.134-0.115-0.215-0.15c-0.079-0.037-0.165-0.055-0.254-0.062c-0.001,0-0.001,0-0.002,0   c-0.019-0.002-0.036-0.011-0.056-0.011c-0.055,0-0.105,0.018-0.157,0.029c-0.023,0.004-0.046,0.006-0.068,0.013   c-0.05,0.016-0.095,0.038-0.14,0.063c-0.024,0.013-0.053,0.018-0.074,0.034c-0.038-0.071-0.088-0.134-0.145-0.189   c-0.014-0.014-0.03-0.024-0.045-0.036c-0.053-0.045-0.112-0.083-0.177-0.113c-0.023-0.011-0.044-0.021-0.068-0.029   c-0.085-0.03-0.175-0.051-0.272-0.051c-0.445,0-0.78,0.336-0.78,0.783c0.007,3.677-0.158,7.073-0.504,10.371   c-0.315,0.137-0.631,0.274-0.946,0.408l-0.179,0.003c-1.429,0-2.788-0.295-4.094-0.896c-0.415-0.135-0.831-0.253-1.285-0.363   c-0.162-2.112-0.277-4.253-0.389-6.327c-0.087-1.604-0.173-3.21-0.28-4.804c-0.004-0.11-0.032-0.211-0.076-0.303   c-0.014-0.029-0.037-0.05-0.055-0.077c-0.037-0.058-0.075-0.114-0.126-0.159c-0.006-0.005-0.008-0.013-0.014-0.018l0.001-0.124   l0.002-0.262l12.223,0.094c-0.001,0.795-0.007,1.597-0.013,2.402c-0.024,3.147-0.049,6.39,0.281,9.528   C92.563,19.896,91.881,19.849,91.001,19.978z M93.636,39.603c-0.057-1.834-0.113-3.695-0.167-5.559   c-0.008-0.264-0.014-0.53-0.022-0.795c0.129,3.161,0.221,6.32,0.285,9.456C93.701,41.666,93.669,40.631,93.636,39.603z"/><path d="M90.383,29.922c0.085,0,0.166-0.014,0.241-0.041c0.023-0.008,0.04-0.024,0.061-0.035c0.048-0.023,0.097-0.044,0.137-0.077   c0.043,0.26,0.097,0.518,0.16,0.771c0.071,0.308,0.345,0.523,0.668,0.523c0.199,0,0.388-0.082,0.519-0.224   c0.126-0.137,0.185-0.318,0.167-0.515c-0.109-1.03-0.136-2.088-0.086-3.326c0.01-0.195-0.059-0.381-0.193-0.522   c-0.07-0.074-0.155-0.13-0.248-0.17c-0.029-0.012-0.061-0.013-0.091-0.022c-0.061-0.018-0.121-0.041-0.186-0.044   c-0.001-0.042-0.015-0.081-0.023-0.121c-0.006-0.028-0.007-0.056-0.016-0.084c-0.029-0.086-0.07-0.169-0.132-0.24   c-0.145-0.166-0.371-0.266-0.605-0.266c-0.378,0-0.681,0.25-0.739,0.615c-0.099,0.703-0.17,1.41-0.24,2.115l-0.095,0.928   c-0.017,0.187,0.042,0.366,0.166,0.504C89.982,29.837,90.177,29.922,90.383,29.922z"/><path d="M71.368,19.07c0.194,0,0.38-0.077,0.509-0.212c0.128-0.135,0.194-0.317,0.184-0.523c-0.064-0.898,0.079-1.766,0.423-2.576   c0.11-0.259,0.09-0.535-0.057-0.757c-0.324-0.49-1.167-0.404-1.377,0.171c-0.395,1.047-0.532,2.141-0.409,3.246   C70.678,18.789,70.99,19.07,71.368,19.07z"/><path d="M38.689,12.917c-0.101,0.279-0.181,0.568-0.25,0.862c-0.019,0.079-0.035,0.158-0.051,0.238   c-0.018,0.089-0.042,0.176-0.057,0.267c-0.011-0.001-0.021,0.004-0.031,0.004c-0.011-0.001-0.021-0.007-0.032-0.007   c-0.057,0-0.107,0.018-0.16,0.03c-0.022,0.005-0.045,0.005-0.067,0.012c-0.269,0.088-0.465,0.321-0.48,0.616   c-0.054,0.983-0.109,1.961-0.17,2.955c-0.007,0.174,0.054,0.336,0.171,0.457c0.117,0.122,0.283,0.191,0.457,0.191   c0.333,0,0.612-0.246,0.65-0.585c0.01-0.111,0.021-0.222,0.031-0.333c0.008,0.004,0.017,0.002,0.025,0.005   c0.089,0.038,0.184,0.063,0.287,0.063c0.192,0,0.374-0.077,0.499-0.212c0.125-0.135,0.185-0.316,0.17-0.511   c-0.071-0.86-0.005-1.715,0.21-2.639c0.072-0.308,0.16-0.623,0.264-0.948c0.074-0.236,0.036-0.48-0.103-0.67   C39.717,12.256,38.878,12.371,38.689,12.917z"/><path d="M33.762,26.5c0.005-0.047,0.01-0.095,0.014-0.142c0.025-0.186-0.028-0.364-0.148-0.501c-0.121-0.138-0.3-0.217-0.492-0.217   c-0.36,0-0.648,0.268-0.673,0.664c-0.067,0.966-0.134,1.936-0.193,2.883c-0.017,0.169,0.035,0.329,0.145,0.452   c0.041,0.045,0.103,0.088,0.172,0.121c-0.042,0.313-0.08,0.633-0.118,0.96c-0.025,0.187,0.028,0.367,0.15,0.506   c0.126,0.144,0.312,0.226,0.511,0.226c0,0,0,0,0,0c0.312,0,0.581-0.206,0.651-0.489c0.341-1.234,0.658-2.447,0.777-3.713   c0.015-0.198-0.048-0.384-0.178-0.525C34.23,26.559,33.988,26.475,33.762,26.5z"/></g></svg>
