<svg xmlns="http://www.w3.org/2000/svg" xmlns:xlink="http://www.w3.org/1999/xlink" version="1.1" x="0px" y="0px" viewBox="0 0 64 80" style="enable-background:new 0 0 64 64;" xml:space="preserve"><g><path d="M2,1v62h62V1H2z M62,61H4V3h58V61z"/><path d="M59,34v-6V6H25.059C25.022,5.671,25,5.338,25,5h-2c0,0.338-0.022,0.671-0.059,1H7v22v6v24h52V34z M52,32v-2h5v2H52z M57,28   h-5.539c-1.797-2.091-3.224-4.398-4.348-6.699l6.594-6.594l-1.414-1.414l-6.062,6.062C44.184,14.505,43.393,9.993,43.123,8H57V28z    M26.293,33.293l-7.61,7.61c-1.236-4.196-2.391-7.316-2.683-8.088v-3.464c2.424-2.857,4.202-6.766,5.343-9.538   C22.383,21.281,23,23.068,23,25h2c0-4.275,2.998-7.855,7-8.768V38.65C31.373,38.872,30.702,39,30,39v2c0.702,0,1.373,0.128,2,0.35   V56H21.904c-0.476-4.377-1.514-8.957-2.595-12.895l8.398-8.398L26.293,33.293z M18.582,15c2.389-1.099,4.319-3.029,5.418-5.419   c1.099,2.39,3.03,4.32,5.418,5.419c-2.389,1.099-4.319,3.029-5.418,5.419C22.901,18.029,20.97,16.099,18.582,15z M33.87,40   c1.313-0.729,2.401-1.816,3.13-3.13c0.729,1.313,1.817,2.401,3.13,3.13c-1.313,0.729-2.401,1.816-3.13,3.13   C36.271,41.816,35.183,40.729,33.87,40z M34,42.54c1.224,1.099,2,2.688,2,4.46h2c0-3.309,2.691-6,6-6v-2c-3.309,0-6-2.691-6-6h-2   c0,1.771-0.776,3.36-2,4.46V16v-2V8h7.1c0.253,2.072,1.1,7.311,3.596,12.89l-6.903,6.903l1.414,1.414l6.406-6.406   c1.155,2.249,2.595,4.498,4.386,6.568v3.447C49.406,34.389,45.21,45.756,44.096,56H34V42.54z M32,8v5.768   C28.984,13.08,26.546,10.876,25.525,8H32z M9,8h13.475c-1.239,3.49-4.565,6-8.475,6v2c2.234,0,4.276,0.823,5.851,2.176   c-1.059,2.634-2.855,6.883-5.329,9.824H9V8z M14,30v2H9v-2H14z M14.305,34c0.479,1.309,1.611,4.514,2.754,8.527L9,50.586V34H14.305   z M9,53.414l8.669-8.669c0.934,3.536,1.796,7.492,2.223,11.255H9V53.414z M46.108,56c1.032-9.109,4.626-19.371,5.587-22h1.049   c-0.37,1.692-1.049,5.064-1.734,9.858l1.979,0.283c0.735-5.141,1.475-8.677,1.804-10.142H57v22H46.108z"/><rect x="36.379" y="21.5" transform="matrix(0.7071 -0.7071 0.7071 0.7071 -4.6335 33.8137)" width="4.243" height="2"/><rect x="21.964" y="44.5" transform="matrix(0.7071 -0.7071 0.7071 0.7071 -24.7046 31.3579)" width="7.071" height="2"/></g></svg>