<svg xmlns="http://www.w3.org/2000/svg" data-name="Capa 2" viewBox="0 0 100 125" x="0px" y="0px"><title>Artboard 2</title><path d="M93.77,44.89H69.53a.73.73,0,0,0-.73.73V82a.73.73,0,0,0,.73.73h2.3V85a.73.73,0,0,0,.73.73h3a.73.73,0,0,0,.73-.73v-2.3H87V85a.73.73,0,0,0,.73.73h3a.73.73,0,0,0,.73-.73v-2.3h2.3A.73.73,0,0,0,94.5,82V45.62A.73.73,0,0,0,93.77,44.89ZM70.26,46.35H93V57H70.26Zm4.6,37.93H73.29V82.72h1.57Zm15.15,0H88.44V82.72H90Zm3-3H70.26V58.47H93Z"/><path d="M73.91,49.27a.73.73,0,0,0-.73.73v4.38a.73.73,0,0,0,1.46,0V50A.73.73,0,0,0,73.91,49.27Z"/><path d="M73.91,77a.73.73,0,0,0,.73-.73V62.46a.73.73,0,0,0-1.46,0v13.8A.73.73,0,0,0,73.91,77Z"/><path d="M90.07,49.27H87a.73.73,0,1,0,0,1.46h3a.73.73,0,0,0,0-1.46Z"/><path d="M42.26,77H59.76a.73.73,0,0,0,.73-.73V67.51a.73.73,0,0,0-.73-.73H42.26a.73.73,0,0,0-.73.73v8.75A.73.73,0,0,0,42.26,77ZM59,75.53H55.69l-7.3-7.3H59Zm-16-7.3h3.35l7.3,7.3H51.31l-4.16-4.16a.73.73,0,0,0-1,1l3.13,3.13H43Z"/><path d="M64.14,58H37.88a.73.73,0,0,0-.73.73V80.64a.73.73,0,0,0,.73.73h3.65V85A.73.73,0,1,0,43,85V81.37H59V85a.73.73,0,1,0,1.46,0V81.37h3.65a.73.73,0,0,0,.73-.73V58.75A.73.73,0,0,0,64.14,58ZM38.61,59.48h24.8V62.4H38.61Zm24.8,20.43H38.61v-16h24.8Z"/><path d="M42.74,59.73a1.22,1.22,0,0,0,0,2.43A1.22,1.22,0,0,0,42.74,59.73Z"/><path d="M46.87,59.73a1.22,1.22,0,0,0,0,2.43A1.22,1.22,0,0,0,46.87,59.73Z"/><path d="M51,59.73a1.22,1.22,0,0,0,0,2.43A1.22,1.22,0,0,0,51,59.73Z"/><path d="M55.15,59.73a1.22,1.22,0,0,0,0,2.43A1.22,1.22,0,0,0,55.15,59.73Z"/><path d="M59.28,59.73a1.22,1.22,0,0,0,0,2.43A1.22,1.22,0,0,0,59.28,59.73Z"/><path d="M32.49,53.65H6.23a.73.73,0,0,0-.73.73V85A.73.73,0,1,0,7,85V81.37h24.8V85a.73.73,0,0,0,1.46,0V54.38A.73.73,0,0,0,32.49,53.65Zm-.73,5.84V79.91H20.09V59.48Zm0-4.38V58H7V55.11ZM7,59.48H18.63V79.91H7Z"/><path d="M15,71.16a.73.73,0,0,0-.73.73v4.38a.73.73,0,1,0,1.46,0V71.89A.73.73,0,0,0,15,71.16Z"/><path d="M23.74,77a.73.73,0,0,0,.73-.73V71.89a.73.73,0,1,0-1.46,0v4.38A.73.73,0,0,0,23.74,77Z"/><path d="M45.62,23a.73.73,0,0,0-.73.73v4.38a.73.73,0,0,0,1.46,0V23.74A.73.73,0,0,0,45.62,23Z"/><path d="M93.77,14.25H6.23A.73.73,0,0,0,5.5,15V32.49a.73.73,0,0,0,.73.73H93.77a.73.73,0,0,0,.73-.73V15A.73.73,0,0,0,93.77,14.25ZM62.4,31.76H50.73v-16H62.4ZM7,15.71H36.14v16H7Zm30.64,0H49.27v16H37.6ZM93,31.76H63.86v-16H93Z"/><path d="M54.38,28.84a.73.73,0,0,0,.73-.73V23.74a.73.73,0,0,0-1.46,0v4.38A.73.73,0,0,0,54.38,28.84Z"/><path d="M23.74,27.39H19.36a.73.73,0,0,0,0,1.46h4.38a.73.73,0,0,0,0-1.46Z"/><path d="M76.26,28.84h4.38a.73.73,0,1,0,0-1.46H76.26a.73.73,0,0,0,0,1.46Z"/><text x="0" y="115" fill="#000000" font-size="5px" font-weight="bold" font-family="'Helvetica Neue', Helvetica, Arial-Unicode, Arial, Sans-serif">Created by Aline Escobar</text><text x="0" y="120" fill="#000000" font-size="5px" font-weight="bold" font-family="'Helvetica Neue', Helvetica, Arial-Unicode, Arial, Sans-serif">from the Noun Project</text></svg>