<svg xmlns="http://www.w3.org/2000/svg" xmlns:xlink="http://www.w3.org/1999/xlink" version="1.1" x="0px" y="0px" viewBox="0 0 100 125" enable-background="new 0 0 100 100" xml:space="preserve"><line display="none" fill="#000000" stroke="#231F20" stroke-width="3" stroke-linecap="round" stroke-linejoin="round" stroke-miterlimit="10" x1="29.167" y1="61.5" x2="45.805" y2="44.862"/><line display="none" fill="#000000" stroke="#231F20" stroke-width="3" stroke-linecap="round" stroke-linejoin="round" stroke-miterlimit="10" x1="49.292" y1="41.375" x2="56.542" y2="34.125"/><g><path fill="#000000" d="M50,6.17c-17.827,0-32.33,14.503-32.33,32.33v1.75c0,0.829,0.671,1.5,1.5,1.5s1.5-0.671,1.5-1.5V38.5   C20.67,22.327,33.827,9.17,50,9.17S79.33,22.327,79.33,38.5v23c0,16.173-13.157,29.33-29.33,29.33S20.67,77.673,20.67,61.5v-8.25   c0-0.828-0.671-1.5-1.5-1.5s-1.5,0.672-1.5,1.5v8.25c0,17.827,14.503,32.33,32.33,32.33c17.827,0,32.33-14.503,32.33-32.33v-23   C82.33,20.673,67.827,6.17,50,6.17z"/><path fill="#000000" d="M19.17,49.75c0.829,0,1.5-0.671,1.5-1.5v-3c0-0.829-0.671-1.5-1.5-1.5s-1.5,0.671-1.5,1.5v3   C17.67,49.079,18.341,49.75,19.17,49.75z"/><path fill="#000000" d="M50,83.834c12.314,0,22.333-10.019,22.333-22.334v-23c0-12.314-10.019-22.333-22.333-22.333   S27.667,26.185,27.667,38.5v23C27.667,73.815,37.686,83.834,50,83.834z M30.667,38.5c0-10.66,8.673-19.333,19.333-19.333   c8.951,0,16.479,6.124,18.67,14.396L52.531,49.702c-0.586,0.586-0.586,1.535,0,2.121c0.293,0.293,0.677,0.439,1.061,0.439   s0.768-0.146,1.061-0.439l14.615-14.616c0.028,0.429,0.065,0.856,0.065,1.292v23c0,10.661-8.673,19.334-19.333,19.334   c-3.278,0-6.366-0.826-9.074-2.272l16.001-16.001c0.586-0.586,0.586-1.535,0-2.121s-1.535-0.586-2.121,0L38.352,76.895   c-4.658-3.533-7.685-9.11-7.685-15.395V38.5z"/><path fill="#000000" d="M59.354,59.513c0.384,0,0.768-0.146,1.061-0.439l7.251-7.25c0.586-0.586,0.586-1.536,0-2.122   s-1.535-0.586-2.121,0l-7.251,7.25c-0.586,0.586-0.586,1.535,0,2.121C58.586,59.366,58.97,59.513,59.354,59.513z"/><path fill="#000000" d="M42.854,63c0.384,0,0.768-0.146,1.061-0.439l7.251-7.251c0.585-0.586,0.585-1.535,0-2.121   c-0.587-0.586-1.536-0.586-2.122,0l-7.25,7.251c-0.586,0.586-0.586,1.535,0,2.121C42.087,62.854,42.471,63,42.854,63z"/></g><text x="0" y="115" fill="#000000" font-size="5px" font-weight="bold" font-family="'Helvetica Neue', Helvetica, Arial-Unicode, Arial, Sans-serif">Created by Joven Petrola</text><text x="0" y="120" fill="#000000" font-size="5px" font-weight="bold" font-family="'Helvetica Neue', Helvetica, Arial-Unicode, Arial, Sans-serif">from the Noun Project</text></svg>