<svg xmlns="http://www.w3.org/2000/svg" xmlns:xlink="http://www.w3.org/1999/xlink" version="1.1" x="0px" y="0px" viewBox="0 0 100 125" style="enable-background:new 0 0 100 100;" xml:space="preserve"><path d="M22.5,30.9c0-0.6,0.4-1,1-1h48.8c0.6,0,1,0.4,1,1s-0.4,1-1,1H23.5C23,31.9,22.5,31.4,22.5,30.9z M23.5,37.9h48.8  c0.6,0,1-0.4,1-1s-0.4-1-1-1H23.5c-0.6,0-1,0.4-1,1S23,37.9,23.5,37.9z M23.5,43.9h48.8c0.6,0,1-0.4,1-1s-0.4-1-1-1H23.5  c-0.6,0-1,0.4-1,1S23,43.9,23.5,43.9z M23.5,49.8h48.8c0.6,0,1-0.4,1-1s-0.4-1-1-1H23.5c-0.6,0-1,0.4-1,1S23,49.8,23.5,49.8z   M23.5,55.8h48.8c0.6,0,1-0.4,1-1s-0.4-1-1-1H23.5c-0.6,0-1,0.4-1,1S23,55.8,23.5,55.8z M23.5,61.8h48.8c0.6,0,1-0.4,1-1s-0.4-1-1-1  H23.5c-0.6,0-1,0.4-1,1S23,61.8,23.5,61.8z M73.4,66.8c0-0.6-0.4-1-1-1H23.5c-0.6,0-1,0.4-1,1s0.4,1,1,1h48.8  C72.9,67.8,73.4,67.4,73.4,66.8z M80,72.6V76c0,1.9-1.6,3.5-3.5,3.5S73,77.9,73,76v-3.3c0-1.6,1-2.9,2.5-3.3V27.3H21  c-0.6,0-1-0.4-1-1v-4.7c0-0.6,0.4-1,1-1h55.5c0.6,0,1,0.4,1,1v4.7v43.1C79,69.8,80,71.1,80,72.6z M75.5,25.3v-2.7H22v2.7H75.5z   M78,72.6c0-0.8-0.7-1.5-1.5-1.5S75,71.8,75,72.6V76c0,0.8,0.7,1.5,1.5,1.5S78,76.8,78,76V72.6z"/></svg>
