<svg xmlns="http://www.w3.org/2000/svg" xmlns:xlink="http://www.w3.org/1999/xlink" version="1.1" x="0px" y="0px" viewBox="0 0 100 125" enable-background="new 0 0 100 100" xml:space="preserve"><g><path d="M73.541,18.948H26.383c-1.907,0-3.459,1.551-3.459,3.458v56.077c0,1.908,1.552,3.459,3.459,3.459h47.158   c1.907,0,3.459-1.551,3.459-3.459V22.406C77,20.499,75.448,18.948,73.541,18.948z M26.383,21.948h47.158   c0.249,0,0.459,0.21,0.459,0.458v12.35H25.924v-12.35C25.924,22.158,26.134,21.948,26.383,21.948z M73.541,78.941H26.383   c-0.249,0-0.459-0.21-0.459-0.459V37.756H74v40.727C74,78.731,73.79,78.941,73.541,78.941z"/><path d="M62.221,50.6c-0.032-0.098-0.073-0.193-0.127-0.287c-0.093-0.16-0.214-0.294-0.351-0.405   c-2.651-3.646-6.938-6.03-11.781-6.03c-0.225,0-0.444,0.023-0.667,0.034c-0.101-0.021-0.205-0.034-0.313-0.034   c-0.152,0-0.296,0.029-0.435,0.072c-5.027,0.486-9.307,3.54-11.526,7.827c-0.063,0.072-0.12,0.15-0.169,0.235   c-0.085,0.146-0.135,0.302-0.166,0.459c-0.826,1.827-1.298,3.848-1.298,5.979c0,2.895,0.858,5.586,2.318,7.855   c0.031,0.096,0.073,0.189,0.125,0.279c0.088,0.152,0.203,0.275,0.33,0.383c2.649,3.66,6.945,6.055,11.8,6.055   c0.225,0,0.444-0.023,0.667-0.033c0.101,0.021,0.205,0.033,0.313,0.033c0.152,0,0.296-0.029,0.435-0.071   c5.043-0.487,9.331-3.56,11.546-7.867c0.052-0.063,0.108-0.122,0.15-0.194c0.085-0.148,0.136-0.305,0.167-0.463   c0.825-1.826,1.296-3.846,1.296-5.977C64.535,55.559,63.679,52.868,62.221,50.6z M39.584,63.539   c-0.758-1.539-1.195-3.262-1.195-5.09c0-1.29,0.222-2.527,0.613-3.688c0.992,0.301,1.805,0.295,2.493,0.285   c0.869-0.019,1.49-0.024,2.546,0.585c1.056,0.61,1.359,1.156,1.78,1.913c0.18,0.322,0.378,0.676,0.636,1.041   c-0.907,0.023-1.997,0.178-3.395,0.984c-1.775,1.025-2.4,2.15-2.902,3.053C39.972,62.963,39.804,63.259,39.584,63.539z    M60.341,53.361c0.757,1.538,1.194,3.262,1.194,5.088c0,1.291-0.222,2.527-0.612,3.688c-0.989-0.301-1.799-0.295-2.493-0.285   c-0.869,0.018-1.489,0.025-2.546-0.585c-1.057-0.609-1.36-1.155-1.78-1.911c-0.18-0.324-0.377-0.676-0.636-1.041   c0.909-0.021,1.998-0.18,3.396-0.986c1.774-1.025,2.399-2.15,2.901-3.053C59.953,53.936,60.121,53.641,60.341,53.361z    M58.629,50.807c-0.751,0.705-1.15,1.407-1.485,2.011c-0.421,0.757-0.725,1.303-1.78,1.913c-1.055,0.608-1.675,0.6-2.546,0.585   c-0.369-0.007-0.773-0.011-1.219,0.03c0.434-0.797,0.843-1.82,0.843-3.433c0-2.05-0.661-3.153-1.193-4.039   c-0.199-0.333-0.372-0.627-0.504-0.958C53.879,47.128,56.669,48.587,58.629,50.807z M47.673,47.106   c0.234,1.013,0.646,1.714,1.003,2.31c0.444,0.742,0.766,1.278,0.766,2.497c0,1.22-0.321,1.755-0.767,2.497   c-0.19,0.317-0.396,0.665-0.583,1.07c-0.473-0.773-1.154-1.641-2.551-2.446c-1.775-1.025-3.06-1.003-4.095-0.987   c-0.393,0.008-0.735,0.01-1.091-0.043C42.027,49.52,44.637,47.718,47.673,47.106z M41.295,66.094   c0.753-0.706,1.151-1.408,1.487-2.013c0.42-0.757,0.724-1.303,1.78-1.913c1.057-0.609,1.682-0.6,2.545-0.584   c0.368,0.006,0.772,0.011,1.218-0.031c-0.434,0.797-0.843,1.82-0.843,3.434c0,2.049,0.661,3.152,1.193,4.039   c0.199,0.334,0.372,0.627,0.504,0.957C46.046,69.771,43.255,68.313,41.295,66.094z M52.251,69.793   c-0.234-1.013-0.645-1.714-1.002-2.31c-0.445-0.742-0.767-1.278-0.767-2.497c0-1.22,0.321-1.756,0.767-2.498   c0.19-0.316,0.396-0.664,0.583-1.07c0.473,0.773,1.155,1.641,2.552,2.447c1.775,1.025,3.065,1.002,4.095,0.986   c0.39-0.007,0.733-0.01,1.09,0.043C57.896,67.379,55.287,69.181,52.251,69.793z"/><path d="M33.952,33.406c2.663,0,4.83-2.167,4.83-4.83s-2.167-4.83-4.83-4.83s-4.829,2.167-4.829,4.83S31.289,33.406,33.952,33.406z    M33.952,26.746c1.009,0,1.83,0.821,1.83,1.83s-0.821,1.83-1.83,1.83s-1.829-0.821-1.829-1.83S32.943,26.746,33.952,26.746z"/><path d="M45.534,33.406c2.663,0,4.829-2.167,4.829-4.83s-2.166-4.83-4.829-4.83s-4.83,2.167-4.83,4.83S42.871,33.406,45.534,33.406   z M45.534,26.746c1.009,0,1.829,0.821,1.829,1.83s-0.82,1.83-1.829,1.83s-1.83-0.821-1.83-1.83S44.525,26.746,45.534,26.746z"/></g><text x="0" y="115" fill="#000000" font-size="5px" font-weight="bold" font-family="'Helvetica Neue', Helvetica, Arial-Unicode, Arial, Sans-serif">Created by Kaylen</text><text x="0" y="120" fill="#000000" font-size="5px" font-weight="bold" font-family="'Helvetica Neue', Helvetica, Arial-Unicode, Arial, Sans-serif">from the Noun Project</text></svg>