<svg xmlns="http://www.w3.org/2000/svg" xmlns:xlink="http://www.w3.org/1999/xlink" version="1.1" x="0px" y="0px" viewBox="0 0 100 125" enable-background="new 0 0 100 100" xml:space="preserve"><path d="M65.902,51.203l2.286,0.457l-1.914-1.33c-0.19-0.131-4.228-2.921-7.106-3.527c1.23-0.968,3.741-2.589,6.847-2.695  l0.035-0.966c-0.056-0.006-5.27-0.594-7.372-2.85c0.712-0.556,2.496-1.727,4.891-1.727c0.761,0,1.529,0.12,2.286,0.355l1.526,0.473  l-1.006-1.242c-0.115-0.143-2.425-2.945-5.853-3.903c1.975-0.611,4.627-1.646,5.844-3.064l0.686-0.8h-1.053  c-2.273,0-5.989-0.444-7.256-1.608c1.109-0.526,3.918-1.704,7.29-1.944l1.414-0.102l-1.18-0.786c-0.16-0.105-3.126-2.064-5.96-2.995  c1.947-0.579,4.667-1.797,6.109-4.27l0.461-0.791l-0.912,0.064c-0.014,0-1.279,0.087-2.787,0.087c-2.606,0-3.811-0.25-4.362-0.458  c1.131-0.897,3.998-2.95,6.508-2.95c0.208,0,0.411,0.015,0.603,0.042l1.815,0.269l-1.446-1.13c-0.159-0.124-3.804-2.945-7.039-3.188  c1.037-0.876,2.914-2.111,5.261-2.111c0.459,0,0.925,0.048,1.383,0.142l2.072,0.43l-1.679-1.288  c-0.124-0.095-3.08-2.325-7.287-2.325c-3.216,0-6.246,1.297-9.007,3.857c-2.763-2.56-5.792-3.857-9.009-3.857  c-4.205,0-7.162,2.229-7.285,2.325l-1.681,1.288l2.073-0.43c0.458-0.094,0.923-0.142,1.383-0.142c2.337,0,4.218,1.234,5.258,2.112  c-3.235,0.243-6.877,3.063-7.037,3.187l-1.446,1.131l1.815-0.27c0.192-0.028,0.395-0.042,0.603-0.042  c2.505,0,5.375,2.054,6.507,2.95c-0.552,0.208-1.757,0.458-4.361,0.458c-1.506,0-2.774-0.087-2.787-0.087l-0.914-0.064l0.461,0.791  c1.442,2.473,4.162,3.691,6.11,4.27c-2.834,0.931-5.801,2.89-5.959,2.995l-1.182,0.786l1.416,0.102  c3.377,0.24,6.188,1.42,7.293,1.947c-1.384,1.304-5.606,1.605-7.259,1.605l-1.052,0.001l0.685,0.799  c1.216,1.418,3.869,2.454,5.845,3.064c-3.428,0.958-5.738,3.761-5.854,3.903l-1.007,1.242l1.527-0.473  c0.757-0.235,1.526-0.355,2.287-0.355c2.383,0,4.174,1.172,4.89,1.729c-2.102,2.252-7.317,2.842-7.372,2.848l0.035,0.966  c3.106,0.106,5.617,1.727,6.847,2.695c-2.878,0.606-6.916,3.396-7.106,3.527l-1.913,1.33l2.285-0.457  c0.35-0.07,0.71-0.105,1.071-0.105c2.397,0,4.464,1.553,5.389,2.371c-3.564,1.723-5.245,6.653-5.319,6.875l-0.535,1.603l1.302-1.076  c2.174-1.795,5.104-2.705,8.71-2.705c1.54,0,2.896,0.175,3.832,0.339V87.38c0,3.939,3.206,7.146,7.146,7.146  s7.145-3.206,7.145-7.146c0-0.803-0.65-1.452-1.453-1.452s-1.453,0.649-1.453,1.452c0,2.338-1.901,4.239-4.238,4.239  c-2.338,0-4.238-1.901-4.238-4.239V58.504c0.937-0.164,2.292-0.339,3.832-0.339c3.606,0,6.535,0.91,8.709,2.705l1.303,1.076  l-0.535-1.603c-0.073-0.222-1.753-5.152-5.317-6.875c0.923-0.818,2.991-2.371,5.388-2.371  C65.193,51.098,65.554,51.133,65.902,51.203z M58.213,53.31l-0.503,0.55l0.707,0.234c2.369,0.791,3.964,3.361,4.782,5.039  c-2.148-1.271-4.848-1.937-7.914-1.937c-2.654,0-4.751,0.485-5.285,0.62c-0.535-0.135-2.632-0.62-5.286-0.62  c-3.113,0-5.766,0.647-7.912,1.931c0.817-1.678,2.409-4.242,4.78-5.033l0.707-0.234l-0.502-0.551  c-0.112-0.122-2.634-2.843-6.003-3.15c1.733-1.058,4.553-2.595,6.188-2.498l1.255,0.076l-0.879-0.899  c-0.112-0.115-2.266-2.283-5.57-3.247c1.94-0.497,4.407-1.423,5.614-3.07l0.249-0.34l-0.302-0.293  c-0.096-0.094-2.393-2.289-5.907-2.289c-0.319,0-0.639,0.018-0.959,0.055c1.312-1.175,3.694-2.846,6.512-2.747l0.118-0.958  c-0.052-0.011-4.528-0.981-6.868-2.631c2.12-0.116,6.185-0.585,7.194-2.48l0.223-0.418l-0.415-0.232  c-0.13-0.072-2.922-1.606-6.778-2.166c1.607-0.942,4.509-2.472,6.567-2.578l0.029-0.966c-0.051-0.006-4.719-0.565-7.097-3.505  c0.5,0.021,1.151,0.039,1.863,0.039c4.201,0,5.183-0.614,5.556-1.077l0.29-0.358l-0.345-0.308c-0.152-0.135-3.489-3.075-6.794-3.541  c1.384-0.887,3.693-2.147,5.647-2.147c0.258,0,0.504,0.023,0.732,0.068l1.345,0.263l-0.88-1.05c-0.108-0.129-2.575-3.02-6.324-3.292  c1.193-0.55,2.92-1.123,4.944-1.123c3.088,0,6.005,1.313,8.671,3.903L50,10.675l0.337-0.328c2.666-2.59,5.582-3.903,8.67-3.903  c2.018,0,3.746,0.572,4.94,1.124c-3.746,0.274-6.211,3.163-6.319,3.292l-0.88,1.05l1.343-0.263c0.229-0.045,0.476-0.068,0.733-0.068  c1.954,0,4.264,1.26,5.647,2.147c-3.305,0.466-6.643,3.406-6.796,3.541l-0.344,0.308l0.29,0.358  c0.372,0.462,1.355,1.077,5.557,1.077c0.711,0,1.362-0.018,1.862-0.039c-2.375,2.934-7.047,3.499-7.097,3.505l0.029,0.966  c2.058,0.105,4.96,1.635,6.567,2.578c-3.857,0.559-6.647,2.093-6.778,2.166l-0.415,0.232l0.225,0.418  c1.009,1.895,5.074,2.365,7.193,2.48c-2.339,1.65-6.816,2.621-6.867,2.631l0.118,0.958c2.816-0.099,5.193,1.571,6.508,2.747  c-0.318-0.037-0.638-0.055-0.956-0.055c-3.515,0-5.811,2.194-5.907,2.289l-0.302,0.293l0.249,0.34  c1.207,1.647,3.674,2.573,5.615,3.07c-3.305,0.964-5.458,3.132-5.572,3.247l-0.878,0.899l1.255-0.076  c1.637-0.1,4.455,1.44,6.188,2.498C60.847,50.466,58.325,53.187,58.213,53.31z"/></svg>