<svg xmlns="http://www.w3.org/2000/svg" xmlns:xlink="http://www.w3.org/1999/xlink" version="1.1" x="0px" y="0px" viewBox="0 0 144.083 180" enable-background="new 0 0 144.083 144" xml:space="preserve"><g><path d="M127.434,95.599l-9.613-35.352c-0.008-0.029-0.023-0.055-0.033-0.084c-0.008-0.027-0.014-0.057-0.025-0.083   c0.061-0.562,0.102-1.128,0.102-1.703c0-6.594-4.006-12.437-10.068-14.845c-0.834-8.105-7.621-14.315-15.879-14.315   c-3.645,0-7.135,1.234-9.963,3.502c-2.83-2.268-6.318-3.502-9.964-3.502c-3.646,0-7.135,1.234-9.964,3.502   c-2.829-2.268-6.318-3.502-9.964-3.502c-8.257,0-15.045,6.21-15.879,14.316c-6.062,2.409-10.066,8.252-10.066,14.844   c0,0.575,0.042,1.142,0.102,1.703c-0.011,0.026-0.017,0.056-0.025,0.083c-0.01,0.028-0.024,0.055-0.032,0.084l-9.614,35.352   c-0.035,0.128-0.053,0.261-0.053,0.394c0,11.36,24.377,20.26,55.496,20.26c31.121,0,55.498-8.899,55.498-20.26   C127.487,95.859,127.469,95.727,127.434,95.599z M38.073,46.038c0.597-0.194,1.009-0.739,1.034-1.365   c0.28-6.984,5.971-12.456,12.954-12.456c3.331,0,6.502,1.271,8.931,3.578c0.578,0.551,1.488,0.551,2.066,0   c2.429-2.308,5.6-3.578,8.931-3.578c3.332,0,6.501,1.271,8.931,3.578c0.578,0.551,1.488,0.551,2.066,0   c2.428-2.308,5.6-3.578,8.93-3.578c6.984,0,12.674,5.471,12.955,12.455c0.025,0.626,0.438,1.171,1.033,1.365   c5.359,1.747,8.959,6.706,8.959,12.34c0,1.781-0.357,3.492-1.014,5.055c-4.078,5.706-20.131,11.129-41.861,11.129   c-21.728,0-37.78-5.423-41.858-11.129c-0.657-1.563-1.015-3.273-1.015-5.055C29.116,52.744,32.716,47.786,38.073,46.038z    M71.989,113.252c-31.166,0-52.179-8.792-52.492-17.072l8.357-30.732c5.81,7.669,25.239,12.113,44.135,12.113   c18.896,0,38.328-4.444,44.136-12.113l8.357,30.732C124.17,104.46,103.157,113.252,71.989,113.252z"/><path d="M46.94,49.504h1.375c0.828,0,1.5-0.672,1.5-1.5s-0.672-1.5-1.5-1.5H46.94c-0.828,0-1.5,0.672-1.5,1.5   S46.112,49.504,46.94,49.504z"/><path d="M63.183,49.504h1.375c0.828,0,1.5-0.672,1.5-1.5s-0.672-1.5-1.5-1.5h-1.375c-0.828,0-1.5,0.672-1.5,1.5   S62.354,49.504,63.183,49.504z"/><path d="M79.422,49.504h1.375c0.828,0,1.5-0.672,1.5-1.5s-0.672-1.5-1.5-1.5h-1.375c-0.828,0-1.5,0.672-1.5,1.5   S78.594,49.504,79.422,49.504z"/><path d="M95.665,49.504h1.375c0.828,0,1.5-0.672,1.5-1.5s-0.672-1.5-1.5-1.5h-1.375c-0.828,0-1.5,0.672-1.5,1.5   S94.836,49.504,95.665,49.504z"/><path d="M36.939,62.141h1.375c0.828,0,1.5-0.672,1.5-1.5s-0.672-1.5-1.5-1.5h-1.375c-0.828,0-1.5,0.672-1.5,1.5   S36.111,62.141,36.939,62.141z"/><path d="M53.182,62.141h1.375c0.828,0,1.5-0.672,1.5-1.5s-0.672-1.5-1.5-1.5h-1.375c-0.828,0-1.5,0.672-1.5,1.5   S52.354,62.141,53.182,62.141z"/><path d="M69.422,62.141h1.375c0.828,0,1.5-0.672,1.5-1.5s-0.672-1.5-1.5-1.5h-1.375c-0.828,0-1.5,0.672-1.5,1.5   S68.594,62.141,69.422,62.141z"/><path d="M85.665,62.141h1.375c0.828,0,1.5-0.672,1.5-1.5s-0.672-1.5-1.5-1.5h-1.375c-0.828,0-1.5,0.672-1.5,1.5   S84.836,62.141,85.665,62.141z"/><path d="M101.907,62.141h1.375c0.828,0,1.5-0.672,1.5-1.5s-0.672-1.5-1.5-1.5h-1.375c-0.828,0-1.5,0.672-1.5,1.5   S101.079,62.141,101.907,62.141z"/></g><text x="0" y="159" fill="#000000" font-size="5px" font-weight="bold" font-family="'Helvetica Neue', Helvetica, Arial-Unicode, Arial, Sans-serif">Created by Chanut is Industries</text><text x="0" y="164" fill="#000000" font-size="5px" font-weight="bold" font-family="'Helvetica Neue', Helvetica, Arial-Unicode, Arial, Sans-serif">from the Noun Project</text></svg>