<svg xmlns="http://www.w3.org/2000/svg" xmlns:xlink="http://www.w3.org/1999/xlink" version="1.1" x="0px" y="0px" viewBox="0 0 100 125" style="enable-background:new 0 0 100 100;" xml:space="preserve"><path d="M78.3,11.1H21.7c-2.1,0-3.8,1.7-3.8,3.8v69.9c0,2.1,1.7,3.8,3.8,3.8h56.5c2.1,0,3.8-1.7,3.8-3.8V15  C82.1,12.9,80.4,11.1,78.3,11.1z M50,30.5c-9.6,0-17.8-7.4-18.9-16.9h3.3c0.4,2,1.1,3.9,2.1,5.5v0h0c2.8,4.6,7.8,7.6,13.5,7.6  c5.7,0,10.7-3,13.5-7.6h0v0c1-1.6,1.7-3.5,2.1-5.5h3.3C67.8,23.2,59.7,30.5,50,30.5z M53.4,32.7l-3.3,3.7l-3.2-3.7  c1,0.1,2,0.2,3.1,0.2C51.2,33,52.3,32.9,53.4,32.7z M62,16.6H38c-0.5-0.9-0.8-1.9-1-3h26.1C62.8,14.7,62.5,15.7,62,16.6z M60.5,19.1  c-2.5,3.1-6.2,5.1-10.5,5.1c-4.2,0-8-2-10.5-5.1H60.5z M79.6,84.9c0,0.7-0.6,1.3-1.3,1.3H21.7c-0.7,0-1.3-0.6-1.3-1.3V15  c0-0.7,0.6-1.3,1.3-1.3h6.8c0.8,8.4,6.5,15.3,14.1,18.1l5.8,6.7L45.2,42l1.9,1.7l3-3.4l2.9,3.4l1.9-1.6l-3.1-3.6l5.9-6.7l-0.1-0.1  c7.4-2.8,13-9.7,13.8-18h6.8c0.7,0,1.3,0.6,1.3,1.3V84.9z"/></svg>