<svg xmlns="http://www.w3.org/2000/svg" xmlns:xlink="http://www.w3.org/1999/xlink" xml:space="preserve" version="1.1" style="shape-rendering:geometricPrecision;text-rendering:geometricPrecision;image-rendering:optimizeQuality;" viewBox="0 0 50000 62500" x="0px" y="0px" fill-rule="evenodd" clip-rule="evenodd"><defs><style type="text/css">
   
    .fil0 {fill:black;fill-rule:nonzero}
   
  </style></defs><g><path class="fil0" d="M9190 34626l31593 35 -15987 -9163 -15606 9128zm32661 603l-34749 -38c5898,-3450 11795,-6900 17693,-10349 6041,3462 12083,6925 18124,10388l-1068 -1zm-10622 -10406c1747,2249 7073,4639 10247,6063 341,152 661,296 775,348 195,88 472,214 766,361 289,145 570,301 751,439 428,327 268,597 108,868 -35,59 -70,117 46,180 149,81 183,20 218,-45 170,-313 351,-645 1060,-321 668,305 1308,802 1777,1414 430,561 720,1220 764,1922 4,49 8,109 12,165 36,518 49,710 -285,884l-60 32 -67 1c-224,2 -357,-19 -497,-41 -69,-11 -141,-22 -241,-30 -818,-67 -1599,-103 -2375,-123 -790,-20 -1579,-25 -2396,-28 -5842,-41 -11683,-44 -17524,-47 -5476,-3 -10953,-6 -16429,-40l-190 -1c-874,-6 -1753,-12 -2627,13 -154,4 -462,59 -802,119 -706,124 -1541,272 -1857,74l-84 -52 -34 -94c-70,-199 -67,-480 -28,-764 51,-370 163,-763 242,-959 199,-490 659,-1098 1193,-1571 478,-423 1026,-746 1519,-798l142 -15 96 105c66,72 126,146 181,222 49,68 95,137 138,208 10,5 -11,-55 19,-62 60,-13 123,-37 181,-68 43,-23 80,-49 106,-73 -11,-27 -23,-56 -35,-85 -61,-150 -121,-296 -134,-487l-12 -174 151 -89c712,-420 1514,-838 2327,-1237 824,-404 1630,-775 2363,-1108 617,-281 1338,-638 2063,-1012 905,-467 1812,-957 2527,-1356 190,-106 372,-210 559,-319 165,-96 341,-201 538,-320 1405,-848 2262,-2033 3088,-3177 1228,-1699 2394,-3312 5124,-3756 7,-1281 33,-1873 907,-2956 71,-88 154,-182 239,-278 194,-220 401,-454 533,-721 171,-345 217,-707 164,-1045 -44,-279 -157,-544 -324,-772 -167,-228 -387,-417 -647,-546 -319,-158 -699,-225 -1113,-159 -566,89 -933,523 -1257,906 -290,342 -551,651 -929,753l0 0c-156,42 -342,-14 -458,-117 -49,-43 -90,-96 -117,-156 -33,-74 -45,-156 -28,-242 27,-129 116,-249 298,-328l18 -8 19 -5c380,-104 522,-258 750,-504 58,-63 92,-101 105,-115 65,-68 132,-133 203,-193 531,-459 1179,-654 1798,-636 622,19 1217,253 1641,653 52,49 103,101 150,157 345,399 548,861 593,1343 45,471 -61,958 -333,1421 -96,164 -210,332 -329,490 -125,165 -262,328 -398,472 -350,374 -515,789 -577,1239 -56,406 -29,851 23,1323 2586,259 3471,1609 4581,3304 324,495 669,1020 1084,1554zm10016 6580c-3223,-1446 -8633,-3873 -10465,-6231 -427,-550 -779,-1087 -1110,-1592 -1058,-1614 -1894,-2890 -4381,-3068l-204 -15 -133 18c-2664,353 -3792,1914 -4983,3561 -861,1192 -1753,2426 -3254,3333 -176,106 -353,212 -548,325 -172,100 -357,205 -568,323 -727,405 -1640,900 -2542,1365 -737,380 -1468,742 -2089,1024 -752,342 -1567,717 -2348,1100 -727,357 -1450,732 -2113,1115 16,49 36,97 56,147 19,44 37,89 57,144 76,185 25,359 -100,507 -73,87 -174,164 -283,223 -104,56 -220,100 -330,124 -234,51 -463,15 -592,-149l-11 -15 -9 -14c-40,-67 -82,-131 -125,-191 -14,-19 -28,-37 -42,-55 -334,82 -712,325 -1060,633 -471,417 -874,943 -1042,1360 -68,166 -163,502 -207,821 -19,140 -29,272 -21,375 247,22 846,-84 1364,-175 356,-63 678,-120 884,-126 878,-24 1764,-19 2645,-13l191 1c5476,34 10951,37 16426,40 5842,3 11684,6 17527,47 824,4 1618,8 2407,29 803,20 1598,56 2405,122 106,8 197,23 286,37 85,14 167,27 273,32 -2,-47 -8,-143 -20,-310 -3,-46 -7,-96 -11,-167 -37,-582 -283,-1137 -649,-1614 -413,-537 -975,-974 -1562,-1242 -228,-105 -279,-11 -327,77 -174,320 -338,622 -984,273 -636,-344 -451,-656 -266,-969 31,-54 63,-107 37,-128 -152,-116 -402,-253 -661,-383 -254,-128 -541,-258 -746,-351 -365,-165 -562,-253 -772,-348z"/></g><text x="0" y="50015" fill="#000000" font-size="5px" font-weight="bold" font-family="'Helvetica Neue', Helvetica, Arial-Unicode, Arial, Sans-serif">Created by Alexander Panasovsky</text><text x="0" y="50020" fill="#000000" font-size="5px" font-weight="bold" font-family="'Helvetica Neue', Helvetica, Arial-Unicode, Arial, Sans-serif">from the Noun Project</text></svg>