<svg xmlns="http://www.w3.org/2000/svg" data-name="Layer 1" viewBox="0 0 100 125" x="0px" y="0px"><title>education 2 jadi</title><path d="M81.57,34.31l-17.4-6.38V21.78a.66.66,0,0,0-.66-.66H27.93a.66.66,0,0,0-.66.66V67.89a.66.66,0,0,0,.66.66h9.25l28,10.29a.66.66,0,0,0,.85-.39L82,35.15A.66.66,0,0,0,81.57,34.31Zm-53-11.87H62.85v44.8H28.59ZM65.07,77.38,41,68.55H63.51a.66.66,0,0,0,.66-.66V29.33l16.33,6Z"/><path d="M35.57,30.08h20.3a.66.66,0,0,0,0-1.32H35.57a.66.66,0,1,0,0,1.32Z"/><path d="M35.57,35.22h20.3a.66.66,0,1,0,0-1.32H35.57a.66.66,0,1,0,0,1.32Z"/><path d="M35.57,40.36h20.3a.66.66,0,0,0,0-1.32H35.57a.66.66,0,1,0,0,1.32Z"/><path d="M35.57,45.5h20.3a.66.66,0,0,0,0-1.32H35.57a.66.66,0,1,0,0,1.32Z"/><path d="M35.57,50.63h20.3a.66.66,0,0,0,0-1.32H35.57a.66.66,0,1,0,0,1.32Z"/><path d="M35.57,55.77h20.3a.66.66,0,0,0,0-1.32H35.57a.66.66,0,1,0,0,1.32Z"/><path d="M56.53,60.25a.66.66,0,0,0-.66-.66H35.57a.66.66,0,1,0,0,1.32h20.3A.66.66,0,0,0,56.53,60.25Z"/><path d="M24.85,32.71h0V30.25s0,0,0,0,0,0,0,0V30A2.92,2.92,0,0,0,21.93,27h-1A2.92,2.92,0,0,0,18,30v.21s0,0,0,0,0,0,0,0v2.47h0V52.37a.65.65,0,0,0,0,.18s0,0,0,.05L20.82,60a.66.66,0,0,0,.62.43h0a.66.66,0,0,0,.62-.43l2.76-7.41s0,0,0-.06a.64.64,0,0,0,0-.17Zm-5.53-.66V30.91h4.21v1.15H19.32Zm0,19.65V33.37h1.45V50.1a.66.66,0,1,0,1.32,0V33.37h1.45V51.71H19.32Zm.46-22.88a1.59,1.59,0,0,1,1.13-.47h1a1.6,1.6,0,0,1,1.54,1.15H19.38A1.59,1.59,0,0,1,19.79,28.83Zm1.65,29.06L19.61,53h3.63Z"/><text x="0" y="115" fill="#000000" font-size="5px" font-weight="bold" font-family="'Helvetica Neue', Helvetica, Arial-Unicode, Arial, Sans-serif">Created by Edwin Prayogi M</text><text x="0" y="120" fill="#000000" font-size="5px" font-weight="bold" font-family="'Helvetica Neue', Helvetica, Arial-Unicode, Arial, Sans-serif">from the Noun Project</text></svg>