<svg xmlns="http://www.w3.org/2000/svg" xmlns:xlink="http://www.w3.org/1999/xlink" version="1.1" x="0px" y="0px" viewBox="0 0 100 125" style="enable-background:new 0 0 100 100;" xml:space="preserve"><g><path d="M90,0H10C4.3,0,0,4.3,0,10v80c0,5.3,4.3,10,10,10h80c5.7,0,10-4.7,10-10V10C100,4.3,95.7,0,90,0z M96,90c0,3.3-2.7,6-6,6   H10c-3.3,0-6-2.7-6-6V25.3h92V90z M96,21.3H4V10c0-3.3,2.7-6,6-6h80c3.3,0,6,2.7,6,6V21.3z"/><rect x="41.7" y="11.3" width="16.7" height="4"/><rect x="68.3" y="11.3" width="16.7" height="4"/><path d="M50,91.3c16.7,0,30.3-13.7,30.3-30.3S66.7,30.7,50,30.7S19.7,44.3,19.7,61S33.3,91.3,50,91.3z M24,57.7   c1.7-13,12.7-23,26-23s24.7,10,26,23l0,0c0,4.3-3.7,8-8,8c-1,0-3.7-0.7-7-7.7c-0.7-1.3-3-1.3-3.7,0c-3.7,7-6.3,7.7-7,7.7   c-1,0-3.7-0.7-7-7.7c-0.7-1.3-3-1.3-3.7,0c-3.7,7-6.3,7.7-7,7.7C27.7,65.7,24,62,24,57.7L24,57.7z M32,69.7c3,0,6-2.3,9-6.7   c5.7,9,12,9,18,0c3,4.7,6,6.7,9,6.7s5.7-1,7.7-3C73,78.3,62.3,87,50,87s-22.7-8.7-25.7-20.3C26.7,68.7,29.3,69.7,32,69.7z"/><path d="M23,4.3c-4.7,0-8.3,3.7-8.3,8.3S18.3,21,23,21s8.3-3.7,8.3-8.3S27.3,4.3,23,4.3z M23,17c-2.3,0-4.3-2-4.3-4.3   s2-4.3,4.3-4.3s4.3,2,4.3,4.3C27.3,15,25.3,17,23,17z"/></g><text x="0" y="115" fill="#000000" font-size="5px" font-weight="bold" font-family="'Helvetica Neue', Helvetica, Arial-Unicode, Arial, Sans-serif">Created by Stepan Voevodin</text><text x="0" y="120" fill="#000000" font-size="5px" font-weight="bold" font-family="'Helvetica Neue', Helvetica, Arial-Unicode, Arial, Sans-serif">from the Noun Project</text></svg>