<svg xmlns="http://www.w3.org/2000/svg" xmlns:xlink="http://www.w3.org/1999/xlink" version="1.1" x="0px" y="0px" viewBox="0 0 1000 1250" enable-background="new 0 0 1000 1000" xml:space="preserve"><g><path d="M864.5,108.5h-722v772h52v44h100.103v-44H710.68v44h100.103v-44H864.5V108.5z M844.5,128.5v100h-682v-100H844.5z    M274.603,904.5H214.5v-24h60.103V904.5z M790.782,904.5H730.68v-24h60.103V904.5z M810.782,860.5H710.68H294.603H194.5h-32v-612   h682v612H810.782z"/><path d="M194.5,822.5h612v-532h-612V822.5z M547.235,719.5h204.239l-17.651,66H563.352L547.235,719.5z M749.979,802.5l27.547-103   H521.765l25.151,103H407.623c46.812-9.856,86.314-43.41,102.8-89.642l4.764-13.358H242.814l4.764,13.358   c16.485,46.231,55.987,79.785,102.799,89.642H214.5v-124h572v124H749.979z M379,785.5c-45.524,0-86.833-26.003-106.88-66h213.761   C465.833,759.497,424.524,785.5,379,785.5z M299.351,397.346c-22.069,0-40.577-15.537-45.159-36.248h90.317   C339.928,381.809,321.42,397.346,299.351,397.346z M786.5,504.5v154h-86.955c34.206-11,59.033-43.111,59.033-80.926v-10H588.586v10   c0,37.814,24.827,69.926,59.033,80.926H515.908c28.831-10.012,49.592-37.433,49.592-69.629c0-40.638-33.062-73.699-73.699-73.699   s-73.699,33.062-73.699,73.699c0,32.196,20.761,59.617,49.592,69.629H350.41c28.831-10.012,49.592-37.433,49.592-69.629   c0-40.638-33.062-73.699-73.7-73.699c-40.638,0-73.699,33.062-73.699,73.699c0,32.196,20.761,59.617,49.592,69.629H214.5v-154   H786.5z M446.249,397.346c-22.069,0-40.577-15.537-45.159-36.248h90.318C486.826,381.809,468.318,397.346,446.249,397.346z    M551.64,361.098h78.565l-18.97,107.493h-44.419L551.64,361.098z M681.192,361.098h78.565l-18.97,107.493h-44.419L681.192,361.098z    M673.582,642.57c-32.439,0-59.404-23.887-64.229-54.996h128.457C732.986,618.684,706.021,642.57,673.582,642.57z M491.801,642.57   c-29.61,0-53.699-24.09-53.699-53.699s24.089-53.699,53.699-53.699c29.609,0,53.699,24.09,53.699,53.699   S521.41,642.57,491.801,642.57z M326.302,642.57c-29.61,0-53.699-24.09-53.699-53.699s24.089-53.699,53.699-53.699   c29.61,0,53.7,24.09,53.7,53.699S355.912,642.57,326.302,642.57z M786.5,310.5v174h-28.211l25.307-143.402H658.171L678.416,484.5   h-49.68l25.307-143.402H528.618L548.863,484.5h-92.615v-67.909c31.801-4.836,56.248-32.362,56.248-65.493v-10H380.001v10   c0,33.13,24.446,60.657,56.247,65.492v67.91H309.351v-67.909c31.801-4.836,56.248-32.362,56.248-65.493v-10H233.104v10   c0,33.13,24.446,60.657,56.247,65.492v67.91H214.5v-174H786.5z"/><path d="M229.5,216.5c19.299,0,35-15.701,35-35s-15.701-35-35-35s-35,15.701-35,35S210.201,216.5,229.5,216.5z M229.5,166.5   c8.271,0,15,6.729,15,15s-6.729,15-15,15s-15-6.729-15-15S221.229,166.5,229.5,166.5z"/><path d="M309.877,216.5c19.299,0,35-15.701,35-35s-15.701-35-35-35s-35,15.701-35,35S290.578,216.5,309.877,216.5z M309.877,166.5   c8.271,0,15,6.729,15,15s-6.729,15-15,15s-15-6.729-15-15S301.606,166.5,309.877,166.5z"/><path d="M390.001,216.5c19.299,0,35-15.701,35-35s-15.701-35-35-35s-35,15.701-35,35S370.703,216.5,390.001,216.5z M390.001,166.5   c8.271,0,15,6.729,15,15s-6.729,15-15,15s-15-6.729-15-15S381.73,166.5,390.001,166.5z"/><path d="M806.5,146.5h-261v63h261V146.5z M786.5,189.5h-221v-23h221V189.5z"/><path d="M588.345,733.742c-0.972-5.437-6.17-9.052-11.603-8.087c-5.437,0.972-9.058,6.166-8.087,11.603l5,28   c0.865,4.843,5.08,8.244,9.833,8.244c0.583,0,1.176-0.052,1.77-0.157c5.437-0.972,9.058-6.166,8.087-11.603L588.345,733.742z"/><path d="M583.429,378.026c-0.661-5.483-5.656-9.39-11.124-8.732c-5.483,0.66-9.394,5.641-8.733,11.124l7.5,62.278   c0.612,5.077,4.927,8.805,9.916,8.805c0.399,0,0.803-0.024,1.208-0.073c5.483-0.66,9.394-5.641,8.733-11.124L583.429,378.026z"/><path d="M714.558,378.026c-0.661-5.483-5.658-9.39-11.124-8.732c-5.483,0.66-9.394,5.641-8.733,11.124l7.5,62.278   c0.612,5.077,4.927,8.805,9.916,8.805c0.399,0,0.803-0.024,1.208-0.073c5.483-0.66,9.394-5.641,8.733-11.124L714.558,378.026z"/><path d="M284.603,588.871c0,22.993,18.706,41.699,41.699,41.699v-20c-11.965,0-21.699-9.734-21.699-21.699   s9.734-21.699,21.699-21.699v-20C303.309,547.172,284.603,565.878,284.603,588.871z"/><path d="M450.102,588.871c0,22.993,18.706,41.699,41.699,41.699v-20c-11.965,0-21.699-9.734-21.699-21.699   s9.734-21.699,21.699-21.699v-20C468.808,547.172,450.102,565.878,450.102,588.871z"/></g><text x="0" y="1015" fill="#000000" font-size="5px" font-weight="bold" font-family="'Helvetica Neue', Helvetica, Arial-Unicode, Arial, Sans-serif">Created by Creative Mania</text><text x="0" y="1020" fill="#000000" font-size="5px" font-weight="bold" font-family="'Helvetica Neue', Helvetica, Arial-Unicode, Arial, Sans-serif">from the Noun Project</text></svg>