<svg xmlns="http://www.w3.org/2000/svg" xmlns:xlink="http://www.w3.org/1999/xlink" version="1.1" x="0px" y="0px" viewBox="0 0 100 125" enable-background="new 0 0 100 100" xml:space="preserve"><g><path fill="#000000" d="M80.7,75.1c-0.4,0.3-0.5,1-0.1,1.4c1.9,2.3,3.6,5.9,2.8,9.3c-0.6,2.2-2.4,5.1-8.3,6.4   c-2.3,0.5-4.7,0.8-7.2,0.8c-9.5,0-17.5-3.9-19.8-5.8c-0.8-0.6-3-0.9-7.6-1.2c-6.9-0.5-15.4-1.1-19.1-5.8c-1.6-2-2.1-3.9-1.4-5.5   c0.9-2.4,3.9-3.7,5.6-4.2c0.5-0.2,0.8-0.7,0.6-1.2c-0.2-0.5-0.7-0.8-1.2-0.6c-2.5,0.8-5.7,2.4-6.8,5.4c-0.6,1.6-0.8,4.2,1.7,7.4   c4.2,5.3,13.2,6,20.5,6.5c1.9,0.1,5.9,0.4,6.5,0.8c3,2.4,11.4,6.2,21,6.2c2.6,0,5.2-0.3,7.7-0.8c6.8-1.5,9.1-5.1,9.8-7.8   c1-4.1-0.9-8.4-3.2-11.1C81.7,74.8,81.1,74.8,80.7,75.1z"/><path fill="#000000" d="M25.2,46.8c0.1,0,0.1,0,0.2,0c0.3,0,0.5-0.1,0.7-0.3c0.2-0.2,0.3-0.6,0.2-0.9L26,43.8   c-0.5-2.3-3.5-13.6-9.6-13.6c-1.3,0-2.5,0.5-3.7,1.4c-1.9,1.6-2.7,3.8-2.1,6.1c1.1,4.1,6.2,7.6,12.9,8.8L25.2,46.8z M12.4,37.2   c-0.4-1.6,0.1-3,1.5-4c0.8-0.7,1.6-1,2.4-1c3.9,0,6.7,7.9,7.7,12.1l0.1,0.3l-0.3-0.1C18,43.5,13.3,40.5,12.4,37.2z"/><path fill="#000000" d="M29.4,43.1c0.2,0.3,0.4,0.5,0.8,0.5c0,0,0.1,0,0.1,0c0.3,0,0.6-0.1,0.8-0.4l1-1.2c2.8-3.5,3.7-7.3,2.4-9.9   c-0.8-1.5-2.3-2.3-4.1-2.2c-1.1,0.1-2,0.4-2.6,1c-3.1,2.7,0,9,1,10.8L29.4,43.1z M29,32.4c0.3-0.3,0.8-0.5,1.4-0.5   c0.1,0,0.1,0,0.2,0c0.9,0,1.6,0.4,2,1.2c0.9,1.8,0,5-2.2,7.7l-0.1,0.1l0-0.1C29,38.4,27.3,33.9,29,32.4z"/><path fill="#000000" d="M83.4,64.7c-0.6-0.3-1.2-0.3-1.9-0.2l-2.3,0.6l0,0c0.4-0.3,0.7-0.9,0.7-1.4c0-0.5-0.3-1-0.7-1.3   c-2.7-2.4-8.5-4.1-9.4-4.3c-0.5-0.2-1.2-0.2-5.5,3c-0.2-0.1-0.5-0.3-0.7-0.4l-0.3-0.1c1.1-2.7,0.9-5.7-0.6-8.1L85.6,15   c0.9-1.5,1.1-3.4,0.7-5.1c-0.5-1.7-1.6-3.2-3.2-4c-1.6-0.9-3.5-1.1-5.2-0.5c-1.8,0.6-3.2,1.8-4,3.4L54.7,48   c-2.9,0.1-5.6,1.7-7.2,4.2l-1.4-0.7c-0.1,0-0.1-0.1-0.2-0.1c-1.9-0.5-4.1-0.6-4.2-0.6c0,0-0.1,0-0.1,0c-0.6-0.1-1.3,0-1.9,0.1   c-4.9,1-10.8,3-11.7,6.9c-0.6,2.6,1.2,5.4,5.3,8.4c17,12.5,27.3,14.3,31.9,14.3h0c1.4,0,2.1-0.2,2.2-0.2c0,0,0,0,0,0   c1.7-0.5,4.5-1.9,7.7-3.7c4.2-2.2,8.9-4.8,11.5-5.1c0.7-0.1,2.7-0.3,2.9-1.8C89.7,69.2,90,67.7,83.4,64.7z M75.6,9.6   c0.6-1.2,1.6-2,2.8-2.4c1.2-0.4,2.5-0.3,3.7,0.4c1.1,0.6,1.9,1.6,2.2,2.8c0.3,1.2,0.2,2.5-0.5,3.6L61.4,51.1l-4.7-2.5L75.6,9.6z    M55.1,50l5.9,3.2c1.3,1.9,1.5,4.3,0.7,6.5l-12.4-6.5C50.6,51.2,52.7,50,55.1,50z M34.6,64.6c-3.4-2.5-4.9-4.7-4.6-6.4   c0.5-2.2,4.3-4.2,10.2-5.4c0.3-0.1,0.6-0.1,0.8-0.1c0.2,0,0.4,0,0.6,0c0.1,0,0.1,0,0.2,0c0.5,0,2.1,0.2,3.5,0.5l17.5,9.1   c0.7,0.4,1.3,0.8,1.8,1.4c1.2,1.3,1.4,1.7,1.4,1.7c0,0,0,0,0,0c0,0.1,0.1,0.2,0.1,0.3c0.1,0.2-0.1,1.1-2.5,2.6   c-2.1,1.3-3.3,3.5-3.2,5.8c0.1,1.3,0.5,2.9,2,4.2C57.8,77.7,48.6,74.9,34.6,64.6z M86.5,69.6c-3,0.3-7.7,2.9-12.2,5.3   c-2.8,1.5-5.5,3-7,3.4c-3-0.7-4.5-2.2-4.7-4.3c-0.1-1.6,0.8-3.1,2.2-4c3.6-2.3,3.8-4,3.2-5.1c-0.1-0.4-0.5-1.1-1.9-2.5   c0,0,0,0-0.1,0c1.4-1.1,2.9-2.1,3.5-2.4c1.1,0.3,6.1,1.8,8.4,3.7l-2.5,1.9c-0.5,0.4-0.7,1-0.4,1.6c0.3,0.6,0.9,0.9,1.5,0.7l5.6-1.5   c0.2,0,0.4,0,0.5,0c2.9,1.4,4.4,2.4,4.9,3C87.3,69.5,87,69.6,86.5,69.6z"/></g></svg>