<svg xmlns="http://www.w3.org/2000/svg" xmlns:xlink="http://www.w3.org/1999/xlink" viewBox="0 0 60 48.75" version="1.1" x="0px" y="0px"><title>14 -Mowing Machine- (Outline)</title><desc>Created with Sketch.</desc><g stroke="none" stroke-width="1" fill="none" fill-rule="evenodd"><g transform="translate(-462.000000, -473.000000)" fill="#000000"><g transform="translate(462.000000, 473.000000)"><path d="M11,27.0005 C8.243,27.0005 6,29.2435 6,32.0005 C6,34.7575 8.243,37.0005 11,37.0005 C13.757,37.0005 16,34.7575 16,32.0005 C16,29.2435 13.757,27.0005 11,27.0005 M11,39.0005 C7.14,39.0005 4,35.8605 4,32.0005 C4,28.1405 7.14,25.0005 11,25.0005 C14.86,25.0005 18,28.1405 18,32.0005 C18,35.8605 14.86,39.0005 11,39.0005"/><path d="M53,27.0005 C50.243,27.0005 48,29.2435 48,32.0005 C48,34.7575 50.243,37.0005 53,37.0005 C55.757,37.0005 58,34.7575 58,32.0005 C58,29.2435 55.757,27.0005 53,27.0005 M53,39.0005 C49.14,39.0005 46,35.8605 46,32.0005 C46,28.1405 49.14,25.0005 53,25.0005 C56.86,25.0005 60,28.1405 60,32.0005 C60,35.8605 56.86,39.0005 53,39.0005"/><path d="M28,19.001 L36,19.001 L36,17.001 L28,17.001 L28,19.001 Z M37,21.001 L27,21.001 C26.448,21.001 26,20.553 26,20.001 L26,16.001 C26,15.448 26.448,15.001 27,15.001 L37,15.001 C37.552,15.001 38,15.448 38,16.001 L38,20.001 C38,20.553 37.552,21.001 37,21.001 L37,21.001 Z"/><path d="M26,9.0005 C25.449,9.0005 25,9.4495 25,10.0005 L25,14.0005 C25,14.5515 25.449,15.0005 26,15.0005 L38,15.0005 C38.551,15.0005 39,14.5515 39,14.0005 C39,11.2435 36.757,9.0005 34,9.0005 L26,9.0005 Z M38,17.0005 L26,17.0005 C24.346,17.0005 23,15.6545 23,14.0005 L23,10.0005 C23,8.3465 24.346,7.0005 26,7.0005 L34,7.0005 C37.86,7.0005 41,10.1405 41,14.0005 C41,15.6545 39.654,17.0005 38,17.0005 L38,17.0005 Z"/><path d="M19.001,25.0005 C18.674,25.0005 18.354,24.8405 18.162,24.5465 L5.682,5.3965 C5.38,4.9345 5.511,4.3145 5.974,4.0125 C6.437,3.7115 7.056,3.8415 7.357,4.3045 L19.838,23.4545 C20.139,23.9175 20.009,24.5365 19.546,24.8385 C19.377,24.9485 19.188,25.0005 19.001,25.0005"/><path d="M45,25.0005 C44.744,25.0005 44.488,24.9025 44.293,24.7075 L40.586,21.0005 L23.414,21.0005 L19.707,24.7075 C19.316,25.0985 18.684,25.0985 18.293,24.7075 C17.902,24.3165 17.902,23.6845 18.293,23.2935 L22.293,19.2935 C22.48,19.1055 22.735,19.0005 23,19.0005 L41,19.0005 C41.265,19.0005 41.52,19.1055 41.707,19.2935 L45.707,23.2935 C46.098,23.6845 46.098,24.3165 45.707,24.7075 C45.512,24.9025 45.256,25.0005 45,25.0005"/><path d="M49.686,38.0005 L14.314,38.0005 C13.762,38.0005 13.314,37.5525 13.314,37.0005 C13.314,36.4485 13.762,36.0005 14.314,36.0005 L49.686,36.0005 C50.238,36.0005 50.686,36.4485 50.686,37.0005 C50.686,37.5525 50.238,38.0005 49.686,38.0005"/><path d="M51.8218,27.1177 C51.6138,27.1177 51.4028,27.0527 51.2228,26.9177 L48.6668,25.0007 L15.3338,25.0007 L12.7778,26.9177 C12.3348,27.2497 11.7098,27.1597 11.3778,26.7177 C11.0458,26.2757 11.1348,25.6487 11.5768,25.3177 L14.3998,23.2007 C14.5728,23.0707 14.7838,23.0007 14.9998,23.0007 L48.9998,23.0007 C49.2168,23.0007 49.4268,23.0707 49.5998,23.2007 L52.4228,25.3177 C52.8648,25.6487 52.9538,26.2757 52.6228,26.7177 C52.4258,26.9797 52.1258,27.1177 51.8218,27.1177"/><path d="M47,33.0005 L17,33.0005 C16.448,33.0005 16,32.5525 16,32.0005 C16,31.4485 16.448,31.0005 17,31.0005 L47,31.0005 C47.552,31.0005 48,31.4485 48,32.0005 C48,32.5525 47.552,33.0005 47,33.0005"/><path d="M2,2.0005 L2,4.0005 L6.001,4.0005 L6,2.0005 L2,2.0005 Z M6,6.0005 L2,6.0005 C0.897,6.0005 0,5.1035 0,4.0005 L0,2.0005 C0,0.8975 0.897,0.0005 2,0.0005 L6,0.0005 C7.103,0.0005 8,0.8975 8,2.0005 L8,4.0005 C8,5.1035 7.103,6.0005 6,6.0005 L6,6.0005 Z"/><path d="M5.3486,35.0005 L2.9996,35.0005 C1.3456,35.0005 -0.0004,33.6545 -0.0004,32.0005 L-0.0004,18.0005 C-0.0004,16.3465 1.3456,15.0005 2.9996,15.0005 C5.1806,15.0005 7.2776,15.7985 8.9066,17.2465 L15.6646,23.2525 C16.0776,23.6205 16.1146,24.2515 15.7476,24.6655 C15.3806,25.0775 14.7496,25.1155 14.3356,24.7485 L7.5776,18.7415 C6.3156,17.6185 4.6896,17.0005 2.9996,17.0005 C2.4486,17.0005 1.9996,17.4495 1.9996,18.0005 L1.9996,32.0005 C1.9996,32.5515 2.4486,33.0005 2.9996,33.0005 L5.3486,33.0005 C5.9006,33.0005 6.3486,33.4485 6.3486,34.0005 C6.3486,34.5525 5.9006,35.0005 5.3486,35.0005"/></g></g></g><text x="0" y="54" fill="#000000" font-size="5px" font-weight="bold" font-family="'Helvetica Neue', Helvetica, Arial-Unicode, Arial, Sans-serif">Created by Ben Davis</text><text x="0" y="59" fill="#000000" font-size="5px" font-weight="bold" font-family="'Helvetica Neue', Helvetica, Arial-Unicode, Arial, Sans-serif">from the Noun Project</text></svg>