<svg xmlns="http://www.w3.org/2000/svg" xmlns:xlink="http://www.w3.org/1999/xlink" version="1.1" x="0px" y="0px" viewBox="0 0 100 125" style="enable-background:new 0 0 100 100;" xml:space="preserve"><g><path d="M9.27,0v7.707h5.499v85.647h5.313l2.63,6.158c0.126,0.297,0.417,0.488,0.737,0.488h4.706c0.321,0,0.611-0.191,0.737-0.488   l2.63-6.158h36.957l2.631,6.158c0.126,0.297,0.416,0.488,0.736,0.488h4.705c0.32,0,0.611-0.191,0.736-0.488l2.633-6.158h5.312   V7.707h5.499V0H9.27z M27.625,98.396h-3.647l-2.138-5.006h7.923L27.625,98.396z M49.199,91.752H16.372V73.605h32.827V91.752z    M49.199,72.002H16.372V7.707h32.827V72.002z M76.021,98.396h-3.646l-2.138-5.006h7.923L76.021,98.396z M83.629,91.752H50.802   V73.605h32.827V91.752z M83.629,72.002H50.802V7.707h32.827V72.002z M89.127,6.103H10.873v-4.5h78.254V6.103z M57.168,81.316   h19.217c1.292,0,2.342-1.051,2.342-2.342s-1.05-2.342-2.342-2.342H57.168c-1.291,0-2.341,1.051-2.341,2.342   S55.877,81.316,57.168,81.316z M57.168,78.234h19.217c0.408,0,0.739,0.332,0.739,0.74c0,0.406-0.331,0.738-0.739,0.738H57.168   c-0.406,0-0.738-0.332-0.738-0.738C56.43,78.566,56.762,78.234,57.168,78.234z M23.615,81.316h19.217   c1.292,0,2.342-1.051,2.342-2.342s-1.05-2.342-2.342-2.342H23.615c-1.291,0-2.342,1.051-2.342,2.342S22.324,81.316,23.615,81.316z    M23.615,78.234h19.217c0.407,0,0.738,0.332,0.738,0.74c0,0.406-0.331,0.738-0.738,0.738H23.615c-0.407,0-0.738-0.332-0.738-0.738   C22.876,78.566,23.208,78.234,23.615,78.234z M58.412,52.156c1.291,0,2.342-1.051,2.342-2.342V30.597   c0-1.291-1.051-2.342-2.342-2.342s-2.342,1.051-2.342,2.342v19.217C56.07,51.105,57.121,52.156,58.412,52.156z M57.674,30.597   c0-0.407,0.331-0.738,0.738-0.738s0.738,0.331,0.738,0.738v19.217c0,0.408-0.331,0.738-0.738,0.738s-0.738-0.33-0.738-0.738V30.597   z M41.588,52.156c1.291,0,2.342-1.051,2.342-2.342V30.597c0-1.291-1.051-2.342-2.342-2.342s-2.342,1.051-2.342,2.342v19.217   C39.246,51.105,40.297,52.156,41.588,52.156z M40.849,30.597c0-0.407,0.332-0.738,0.739-0.738s0.738,0.331,0.738,0.738v19.217   c0,0.408-0.331,0.738-0.738,0.738s-0.739-0.33-0.739-0.738V30.597z"/></g></svg>