<svg xmlns="http://www.w3.org/2000/svg" xmlns:xlink="http://www.w3.org/1999/xlink" version="1.1" x="0px" y="0px" viewBox="0 0 100 125" style="enable-background:new 0 0 100 100;" xml:space="preserve"><g><path d="M32,59h4c0-9.9,12.1-22,22-22v-4c-9.9,0-22-12.1-22-22h-4c0,9.9-12.1,22-22,22v4C19.9,37,32,49.1,32,59z M34,19.4   C37,26,43,32,49.6,35C43,38,37,44,34,50.6C31,44,25,38,18.4,35C25,32,31,26,34,19.4z"/><path d="M54,56.5c7.2,0,16,9.1,16,16.5h4c0-7.4,8.8-16.5,16-16.5v-4c-7.2,0-16-9.1-16-16.5h-4c0,7.4-8.8,16.5-16,16.5V56.5z    M72,43.7c2.3,4.5,6.3,8.5,10.6,10.9c-4.4,2.3-8.4,6.4-10.6,10.9c-2.3-4.5-6.3-8.5-10.6-10.9C65.7,52.2,69.7,48.2,72,43.7z"/><path d="M47,89c0-5.4,6.6-12,12-12v-4c-5.4,0-12-6.6-12-12h-4c0,5.4-6.6,12-12,12v4c5.4,0,12,6.6,12,12H47z M37.8,75   c2.9-1.7,5.5-4.3,7.2-7.2c1.7,2.9,4.3,5.5,7.2,7.2c-2.9,1.7-5.5,4.3-7.2,7.2C43.3,79.3,40.7,76.7,37.8,75z"/></g><text x="0" y="115" fill="#000000" font-size="5px" font-weight="bold" font-family="'Helvetica Neue', Helvetica, Arial-Unicode, Arial, Sans-serif">Created by Paweł Wypych</text><text x="0" y="120" fill="#000000" font-size="5px" font-weight="bold" font-family="'Helvetica Neue', Helvetica, Arial-Unicode, Arial, Sans-serif">from the Noun Project</text></svg>
