<svg xmlns="http://www.w3.org/2000/svg" xmlns:xlink="http://www.w3.org/1999/xlink" version="1.1" x="0px" y="0px" viewBox="0 0 100 95.625" style="enable-background:new 0 0 100 76.5;" xml:space="preserve"><path d="M92.636,70.832c0.464,0,0.84-0.376,0.84-0.84c0-9.189,0-18.378,0-27.567c0.462-0.531,0.868-1.175,1.097-1.883  c0.255-0.789,0.29-1.659,0.312-2.522c0.253-10.114-1.368-19.342-3.066-29.649c-0.04-0.245-0.081-0.49-0.211-0.664  c-0.278-0.369-0.964-0.413-1.271-0.074c-0.22,0.242-0.247,0.68-0.236,1.038c0,20.44,0,40.88,0,61.32c0,0.464,0.376,0.84,0.84,0.84  C91.505,70.832,92.071,70.832,92.636,70.832z"/><path d="M11.5,26.606c-0.698,1.285-1.019,2.546-1.019,4.008c0,13.126,0,26.252,0,39.378c0,0.474-0.397,0.84-0.863,0.84  c-0.581,0-1.163,0-1.744,0c-0.466,0-0.863-0.365-0.863-0.84c0-13.126,0-26.252,0-39.378c0-1.462-0.321-2.723-1.019-4.008  c-0.381-0.701-0.69-1.401-0.835-2.198c-0.113-0.62-0.056-1.227-0.037-1.843c0.037-1.195,0.077-2.389,0.119-3.583  c0.083-2.358,0.175-4.717,0.276-7.074c0.014-0.32,0.028-0.64,0.042-0.96c0.007-0.16,0.014-0.32,0.021-0.479  c0.007-0.158,0.037-0.269,0.222-0.269c0.049,0,0.097,0,0.146,0c0.056,0,0.11-0.01,0.166,0.017c0.122,0.06,0.103,0.326,0.108,0.416  c0.016,0.314,0.031,0.628,0.046,0.942c0.058,1.256,0.104,2.512,0.139,3.768c0.07,2.512,0.093,5.024,0.07,7.537  c-0.003,0.308-0.006,0.617-0.01,0.925c-0.001,0.074-0.007,0.138,0.062,0.193c0.027,0.021,0.053,0.032,0.088,0.032  c0.082,0.002,0.163,0.013,0.246-0.002c0.167-0.032,0.133-0.263,0.139-0.37c0.034-0.617,0.066-1.234,0.097-1.851  c0.062-1.234,0.118-2.467,0.169-3.701c0.101-2.467,0.18-4.934,0.236-7.403c0.003-0.149-0.04-0.29,0.093-0.42  c0.092-0.09,0.255-0.109,0.369-0.061c0.177,0.074,0.178,0.203,0.184,0.362c0.006,0.156,0.012,0.313,0.017,0.469  c0.023,0.625,0.045,1.25,0.066,1.875c0.043,1.25,0.083,2.5,0.12,3.75c0.037,1.25,0.071,2.5,0.102,3.75  c0.016,0.625,0.03,1.25,0.045,1.875c0.007,0.313,0.014,0.625,0.021,0.938c0.003,0.156,0.007,0.313,0.01,0.469  c0.004,0.169,0.002,0.321,0.22,0.321c0.26,0,0.304-0.018,0.309-0.287c0.003-0.156,0.007-0.311,0.01-0.467  c0.007-0.311,0.013-0.623,0.021-0.934c0.014-0.623,0.029-1.245,0.044-1.868c0.031-1.245,0.065-2.491,0.102-3.736  c0.037-1.245,0.076-2.491,0.119-3.736c0.021-0.623,0.043-1.245,0.066-1.868c0.006-0.156,0.011-0.311,0.017-0.467  c0.006-0.149-0.029-0.289,0.119-0.405c0.094-0.074,0.267-0.083,0.371-0.027c0.168,0.091,0.154,0.224,0.157,0.379  c0.056,2.468,0.134,4.936,0.235,7.403c0.05,1.234,0.106,2.468,0.168,3.701c0.031,0.617,0.063,1.234,0.097,1.851  c0.004,0.071,0,0.363,0.076,0.427c0.026,0.022,0.053,0.034,0.088,0.035c0.082,0.004,0.163,0.012,0.246-0.002  c0.086-0.014,0.117-0.057,0.129-0.139c0.023-0.154-0.002-0.305-0.004-0.457c-0.002-0.154-0.003-0.308-0.005-0.463  c-0.024-2.504-0.002-5.005,0.066-7.508c0.034-1.252,0.079-2.503,0.136-3.754c0.014-0.313,0.029-0.626,0.045-0.939  c0.004-0.078,0.008-0.156,0.012-0.235c0.004-0.075-0.009-0.149,0.019-0.224c0.059-0.164,0.187-0.111,0.309-0.111  c0.187,0,0.212,0.115,0.219,0.272c0.007,0.159,0.014,0.318,0.021,0.478c0.014,0.319,0.028,0.638,0.041,0.957  c0.1,2.358,0.191,4.717,0.274,7.076c0.042,1.195,0.081,2.389,0.119,3.584c0.019,0.616,0.076,1.223-0.037,1.844  C12.19,25.205,11.881,25.905,11.5,26.606z"/><path d="M50.661,74.5c-4.371,0-8.746-0.82-12.937-2.463C28.918,68.583,21.984,61.908,18.2,53.24  c-3.785-8.668-3.968-18.291-0.514-27.097c3.453-8.805,10.129-15.739,18.797-19.524C54.376-1.195,75.29,7.007,83.103,24.901  c7.813,17.894-0.389,38.808-18.283,46.621l0,0C60.278,73.506,55.473,74.5,50.661,74.5z M50.604,5.698  c-4.453,0-8.972,0.895-13.307,2.787c-8.169,3.567-14.461,10.102-17.715,18.401c-3.255,8.299-3.082,17.369,0.484,25.538  c3.567,8.169,10.102,14.461,18.401,17.715c8.299,3.255,17.37,3.082,25.538-0.484l0,0C80.87,62.292,88.6,42.581,81.237,25.716  C75.766,13.186,63.475,5.698,50.604,5.698z"/><path d="M50.687,64.165c-9.679,0-18.919-5.63-23.034-15.053c-5.537-12.681,0.276-27.503,12.956-33.039  c12.682-5.537,27.503,0.275,33.04,12.957c2.682,6.143,2.812,12.963,0.364,19.203c-2.447,6.24-7.178,11.154-13.321,13.837  C57.434,63.491,54.034,64.165,50.687,64.165z M50.618,15.334c-3.167,0-6.381,0.637-9.464,1.983  c-11.995,5.237-17.492,19.257-12.255,31.252c2.537,5.81,7.185,10.285,13.088,12.6c5.902,2.315,12.353,2.193,18.164-0.344  c5.81-2.537,10.285-7.185,12.6-13.088s2.192-12.353-0.345-18.164C68.514,20.661,59.772,15.334,50.618,15.334z"/></svg>