<svg xmlns="http://www.w3.org/2000/svg" xmlns:xlink="http://www.w3.org/1999/xlink" version="1.1" x="0px" y="0px" viewBox="0 0 100 125" enable-background="new 0 0 100 100" xml:space="preserve"><g><path d="M78.6,24.2c-2.8,0-5-2.2-5-5s2.2-5,5-5s5,2.2,5,5S81.4,24.2,78.6,24.2z M78.6,17.2c-1.1,0-2,0.9-2,2s0.9,2,2,2s2-0.9,2-2   S79.7,17.2,78.6,17.2z"/><path d="M73.9,40.7c-2.6,0-4.7-2.1-4.7-4.7s2.1-4.7,4.7-4.7s4.7,2.1,4.7,4.7S76.4,40.7,73.9,40.7z M73.9,34.4   c-0.9,0-1.7,0.7-1.7,1.7s0.7,1.7,1.7,1.7s1.7-0.7,1.7-1.7S74.8,34.4,73.9,34.4z"/><path d="M62.3,28.8c-2.4,0-4.3-1.9-4.3-4.3s1.9-4.3,4.3-4.3c2.4,0,4.3,1.9,4.3,4.3S64.7,28.8,62.3,28.8z M62.3,23.2   c-0.7,0-1.3,0.6-1.3,1.3s0.6,1.3,1.3,1.3s1.3-0.6,1.3-1.3S63,23.2,62.3,23.2z"/><path d="M9.4,73l-2.5-1.6c0.2-0.3,4.1-6.3,9.7-7.4c2.5-0.5,5,0.1,7.3,1.8c3.8,2.8,10,3.7,10,3.7l-0.4,3c-0.3,0-7-1.1-11.4-4.3   c-1.6-1.2-3.2-1.6-4.9-1.3C12.9,67.8,9.5,73,9.4,73z"/><circle cx="70.8" cy="77.1" r="2.3"/><circle cx="78.3" cy="76.9" r="2.3"/><path d="M85.2,73.8c-0.4-1.4-1-2.8-1.8-4c-1.8-5.1-4.5-8.6-8-9.9c-1.8-0.7-3.8-0.8-5.9-0.4c0-0.1,0-0.1,0-0.2   c0-2.7-2.2-4.9-4.9-4.9s-4.9,2.2-4.9,4.9c0,2,1.2,3.7,2.9,4.4c-1.4,2.3-1.5,5.4-1.1,7.9c-0.3,0-0.6,0-1,0c-1.1,0-5.1,0-9.9,0.3   L40.1,50.5l10.1-4.7c0.5-0.2,0.9-0.8,0.9-1.4c0-7.5-3.3-13.6-10-18.2c-0.4-0.3-1-0.3-1.5-0.1L17.1,36.9c-0.5,0.2-0.8,0.7-0.8,1.2   c0,0.5,0.2,1,0.6,1.3c5.5,4,8.2,9.2,8.1,15.8c0,0.5,0.3,1,0.7,1.3c0.2,0.2,0.5,0.2,0.8,0.2c0.2,0,0.4,0,0.6-0.1l10.2-4.8l9.9,20.5   c-9.1,0.7-19.6,2.3-19.6,6.2c0,6.6,29.4,6.7,32.8,6.7s32.8-0.2,32.8-6.7C93.2,76.5,90.7,75,85.2,73.8z M20.5,38.5L40,29.2   c5.2,3.8,7.8,8.5,8,14.3l-20.1,9.4C27.4,47.2,25,42.4,20.5,38.5z M65.6,76.6c0-4.7,3.8-8.5,8.5-8.5s8.5,3.8,8.5,8.5   c0,1.6-0.4,3-1.2,4.4c-3.5,0.5-8.1,1-13.7,1.2C66.3,80.6,65.6,78.7,65.6,76.6z M74.3,62.8c1.5,0.6,2.7,1.7,3.7,3   c-1.2-0.5-2.6-0.7-3.9-0.7c-4.1,0-7.7,2.2-9.7,5.4c-0.2-2.6,0.2-5.4,2.3-6.6C69.5,62.3,72.1,61.9,74.3,62.8z M64.6,57.5   c1,0,1.9,0.9,1.9,1.9s-0.9,1.9-1.9,1.9s-1.9-0.9-1.9-1.9S63.5,57.5,64.6,57.5z M48.7,75.2l3.3,6.9c-12.5-0.6-19.6-2.4-21.1-3.5   C32.2,77.5,38.2,75.9,48.7,75.2z M55.3,82.2L55.3,82.2L51.9,75c2.6-0.1,5.4-0.2,8.5-0.2c0.5,0,1,0,1.5,0c0.2,1,0.5,1.7,0.6,2   c0,1.9,0.6,3.8,1.5,5.4c-1.2,0-2.4,0-3.6,0C58.7,82.3,57,82.3,55.3,82.2z M84.9,80.3c0.4-1.1,0.6-2.2,0.6-3.3   c2.8,0.7,4,1.3,4.4,1.6C89.3,79.1,87.6,79.7,84.9,80.3z"/></g></svg>
