<svg xmlns="http://www.w3.org/2000/svg" xmlns:xlink="http://www.w3.org/1999/xlink" version="1.1" x="0px" y="0px" viewBox="0 0 100 125" enable-background="new 0 0 100 100" xml:space="preserve"><g><path d="M31.403,64.809c-0.435-0.205-0.951-0.018-1.153,0.416c-3.982,8.448-2.165,16.874-2.085,17.228   c0.09,0.404,0.448,0.678,0.846,0.678c0.062,0,0.125-0.006,0.189-0.021c0.467-0.104,0.761-0.567,0.657-1.034   c-0.019-0.082-1.771-8.195,1.961-16.112C32.021,65.53,31.835,65.013,31.403,64.809z"/><path d="M67.53,30.48L83.331,6.505c0.264-0.399,0.153-0.938-0.246-1.201c-0.402-0.264-0.938-0.153-1.201,0.248L65.961,29.713   c-1.463-0.211-4.265-0.374-6.127,1.049c-0.899,0.689-1.45,1.648-1.67,2.843c-2.171-0.16-7.521,0.812-16.824,10.285   c-0.698-0.922-4.407-5.485-9.524-5.485c-0.017,0-0.034,0-0.05,0c-3.346,0.02-6.475,1.973-9.31,5.809   c-1.816-0.404-6.22-1.037-9.302,1.438c-2.266,1.82-3.287,4.854-3.038,9.026c-1.119,1.097-3.93,4.262-3.845,8.266   c0.056,2.638,1.337,5.078,3.814,7.265c-1.047,1.643-2.878,5.186-1.773,8.525c0.816,2.466,3.011,4.252,6.526,5.315   c0.569,1.31,2.217,4.425,5.294,5.339c0.575,0.171,1.164,0.258,1.765,0.258c1.54,0,2.825-0.323,4.398-1.357   c1.918,2.392,4.626,4.343,8.164,5.8c0.294,0.122,0.63,0.07,0.877-0.128c0.246-0.202,0.363-0.521,0.305-0.832   c-0.007-0.035-0.496-2.695-0.406-5.271c1.602,2.005,4.71,5.094,9.781,7.102c0.104,0.041,0.212,0.062,0.32,0.062   c0.227,0,0.45-0.089,0.616-0.258c0.244-0.245,0.317-0.614,0.186-0.937c-0.011-0.027-0.897-2.235-0.879-4.876   c2.007,1.706,6.31,4.618,13.484,6.053c0.332,0.067,0.657-0.06,0.858-0.323c0.201-0.263,0.234-0.616,0.088-0.912   c-0.013-0.027-1.101-2.248-1.003-4.255c1.846,1.647,5.773,4.365,10.782,3.471c0.285-0.05,0.523-0.237,0.641-0.502   c0.118-0.264,0.095-0.567-0.058-0.812l-1.667-2.653c1.982,0.707,4.883,1.209,8.501,0.346c0.321-0.076,0.569-0.327,0.645-0.646   c0.074-0.321-0.041-0.656-0.294-0.865l-2.745-2.262c2.077-0.157,4.533-1.069,6.241-3.673c0.172-0.261,0.19-0.593,0.046-0.872   c-0.143-0.278-0.425-0.457-0.736-0.47c-0.104-0.005-10.408-0.476-12.361-6.203c-1.654-4.851,1.499-12.557,4.263-18.989l0.006-0.018   c0.002-0.001,0.002-0.002,0.002-0.003c0.127-0.296,0.255-0.594,0.38-0.885c0.526-1.215,1.026-2.384,1.477-3.479   c2.887-7.051,2.028-9.117,0.123-12.445l-0.172-0.303c-0.041-0.074-0.103-0.129-0.161-0.186c0.812-2.121-0.339-3.703-1.691-5.143   L93.5,9.651c0.324-0.351,0.304-0.899-0.046-1.225s-0.9-0.306-1.225,0.046L67.823,34.771c-0.578,0.175-1.289,0.285-1.757-0.03   c-0.38-0.257-0.553-0.765-0.618-1.102l1.353-2.053L67.53,30.48z M44.361,60.108c-1.825-0.65-3.265-1.54-4.408-2.49   c1.217-2.491,2.194-4.148,2.222-4.195c0.245-0.412,0.109-0.943-0.301-1.188c-0.412-0.242-0.942-0.109-1.188,0.301   c-0.106,0.18-0.966,1.637-2.06,3.826c-1.459-1.595-2.179-3.15-2.462-3.882l4.417-5.164c0.534,2.047,2.026,5.189,6.114,7.177   C45.984,56.07,45.167,57.992,44.361,60.108z M48.306,55.173c0.757,0.265,1.585,0.494,2.493,0.68   c0.185,0.036,0.384,0.063,0.572,0.099c-0.6,1.51-1.207,3.258-1.73,5.173c-0.251-0.021-0.508-0.028-0.759-0.051   c-1.023-0.094-1.958-0.261-2.832-0.474C46.83,58.559,47.622,56.698,48.306,55.173z M20.799,87.174   c-2.702-0.797-3.993-4.421-4.005-4.456c-0.125-0.362-0.42-0.641-0.791-0.741c-3.043-0.823-4.892-2.156-5.494-3.965   c-1.084-3.259,2.007-7.262,2.039-7.303c0.188-0.242,0.275-0.549,0.238-0.854c-0.038-0.305-0.194-0.582-0.437-0.771   c-2.449-1.91-3.717-3.987-3.767-6.177c-0.087-3.784,3.44-6.852,3.474-6.881c0.284-0.24,0.436-0.606,0.404-0.978   c-0.309-3.645,0.409-6.2,2.135-7.589c2.92-2.351,7.948-0.84,7.998-0.826c0.482,0.149,1.005-0.031,1.293-0.445   c2.5-3.61,5.152-5.451,7.883-5.472c0.016,0,0.031,0,0.046,0c4.367,0,7.73,4.631,7.763,4.678c0.046,0.064,0.11,0.103,0.166,0.154   c-9.251,9.952-18.834,25.134-16.434,36.462c0.335,1.579,0.914,3.028,1.684,4.372C23.346,87.479,22.17,87.576,20.799,87.174z    M66.04,74.929c1.817,5.326,8.963,6.818,12.265,7.228c-2.624,2.534-6.115,1.537-6.277,1.488c-0.392-0.123-0.823,0.054-1.02,0.419   c-0.194,0.364-0.106,0.816,0.215,1.08l3.462,2.852c-5.051,0.579-8.042-1.773-8.178-1.883c-0.327-0.267-0.805-0.261-1.122,0.023   c-0.318,0.281-0.387,0.75-0.16,1.111l2.619,4.168c-5.215,0.191-8.948-4.132-8.989-4.179c-0.191-0.227-0.485-0.34-0.785-0.297   c-0.294,0.043-0.546,0.232-0.669,0.505c-0.808,1.819-0.365,4.039,0.109,5.508c-8.533-2.105-12.253-6.393-12.292-6.438   C45,86.259,44.656,86.15,44.33,86.239c-0.324,0.087-0.57,0.354-0.627,0.685c-0.379,2.154-0.084,4.237,0.254,5.669   c-6.014-2.96-8.522-7.471-8.549-7.52c-0.172-0.318-0.528-0.5-0.88-0.446c-0.358,0.049-0.647,0.314-0.728,0.666   c-0.489,2.153-0.3,4.867-0.098,6.56c-4.835-2.345-7.758-5.771-8.697-10.2c-1.747-8.245,3.397-18.824,9.958-27.655   c0.523,1.049,1.438,2.526,2.883,3.979c-2.274,4.845-4.983,11.986-4.351,17.495c0.051,0.442,0.425,0.768,0.86,0.768   c0.034,0,0.067-0.002,0.1-0.005c0.476-0.056,0.817-0.483,0.763-0.96c-0.562-4.894,1.853-11.431,3.989-16.077   c1.219,0.965,2.732,1.843,4.564,2.508c-2.241,6.258-4.106,13.772-2.742,19.084c0.102,0.392,0.454,0.651,0.839,0.651   c0.071,0,0.144-0.009,0.217-0.026c0.463-0.121,0.743-0.592,0.624-1.056c-1.259-4.9,0.565-12.097,2.739-18.137   c1.011,0.26,2.087,0.47,3.277,0.579c0.16,0.015,0.326,0.019,0.486,0.032c-1.155,5.004-1.593,10.926,0.208,16.699   c0.117,0.371,0.458,0.608,0.829,0.608c0.086,0,0.171-0.013,0.257-0.04c0.459-0.143,0.713-0.629,0.569-1.086   c-1.711-5.485-1.226-11.22-0.067-16.06c1.606,0.099,3.223,0.166,4.845,0.166c0.358,0,0.702-0.004,1.048-0.008   c-0.499,4.941-0.171,10.896,1.907,17.714c0.115,0.373,0.459,0.613,0.832,0.613c0.083,0,0.167-0.013,0.253-0.038   c0.457-0.139,0.715-0.623,0.575-1.081c-2.022-6.632-2.294-12.447-1.766-17.25c1.463-0.053,2.789-0.139,3.969-0.24   c-0.575,3.193-0.801,6.475-0.273,9.374c0.076,0.418,0.44,0.711,0.85,0.711c0.054,0,0.105-0.004,0.157-0.013   c0.472-0.085,0.783-0.537,0.699-1.008c-0.512-2.81-0.244-6.069,0.376-9.242c1.216-0.136,2.188-0.277,2.868-0.387   C65.774,66.859,64.848,71.428,66.04,74.929z M51.446,61.247c0.522-1.859,1.124-3.544,1.703-4.99   c1.579,0.227,3.229,0.379,4.942,0.454c-0.393,1.416-0.734,2.972-0.981,4.664c-0.412,0.008-0.829,0.012-1.259,0.012   C54.378,61.387,52.909,61.329,51.446,61.247z M58.932,61.324c0.262-1.667,0.614-3.195,1.011-4.572   c0.232,0.003,0.459,0.015,0.693,0.015c1.262,0,2.449-0.042,3.553-0.103c-0.424,1.385-0.825,2.866-1.162,4.39   C61.828,61.166,60.455,61.265,58.932,61.324z M67.706,60.443c-0.52,0.094-1.497,0.253-2.842,0.416   c0.354-1.508,0.769-2.967,1.2-4.324c1.484-0.126,2.727-0.28,3.628-0.413L67.706,60.443z M72.608,39.733   c1.524,2.677,2.192,4.261-0.406,10.605c-0.444,1.087-0.942,2.246-1.463,3.451c-0.062,0.145-0.127,0.294-0.189,0.441   c-0.662,0.112-2.039,0.326-3.885,0.505c1.228-3.525,2.395-6,2.422-6.058c0.207-0.433,0.025-0.95-0.408-1.156   c-0.432-0.205-0.947-0.023-1.156,0.409c-0.121,0.257-1.451,3.068-2.763,6.962c-1.255,0.084-2.645,0.139-4.124,0.139   c-0.05,0-0.098-0.003-0.146-0.003c1.542-4.463,3.404-6.955,3.447-7.01c0.291-0.379,0.221-0.924-0.158-1.216   c-0.378-0.292-0.921-0.22-1.216,0.156c-0.188,0.244-2.311,3.069-3.949,8.03c-1.65-0.06-3.239-0.19-4.762-0.395   c0.965-2.173,1.737-3.496,1.765-3.539c0.244-0.412,0.108-0.944-0.303-1.189c-0.414-0.245-0.943-0.109-1.188,0.302   c-0.113,0.19-1.009,1.718-2.071,4.141c-0.304-0.054-0.615-0.098-0.913-0.157c-0.771-0.157-1.456-0.358-2.102-0.578   c0.734-1.566,1.231-2.517,1.253-2.56c0.221-0.424,0.059-0.948-0.366-1.17c-0.422-0.224-0.948-0.061-1.168,0.364   c-0.091,0.17-0.605,1.162-1.335,2.708c-4.662-2.271-5.312-6.124-5.395-7.256c9.466-9.821,14.554-10.41,16.07-10.303   c0.269,2.262,2.017,4.149,4.928,5.245c1.483,0.558,3.23,0.881,4.852,0.881c1.925,0,3.669-0.458,4.562-1.529   C72.502,39.879,72.551,39.808,72.608,39.733z M71.107,38.845c-0.847,1.015-4.365,1.304-7.472,0.134   c-1.466-0.552-3.916-1.846-3.853-4.325c0.026-1.145,0.387-1.966,1.102-2.513c1.035-0.793,2.689-0.893,4.002-0.799l-1.062,1.609   c-0.099,0.15-0.149,0.328-0.142,0.509c0.007,0.184,0.104,1.823,1.398,2.708c0.497,0.339,1.08,0.508,1.744,0.508   c0.536,0,1.125-0.11,1.764-0.333c0.134-0.047,0.257-0.126,0.351-0.229l1.78-1.919C72.277,35.866,72.756,36.867,71.107,38.845z"/><path d="M25.758,52.234c0-0.639-0.518-1.155-1.156-1.155c-2.314,0-4.108,0.685-5.332,2.037c-1.292,1.427-1.566,3.219-1.609,4.229   c-1.663,1.024-2.763,2.389-3.27,4.062c-1.001,3.301,0.743,6.558,0.817,6.693c0.209,0.386,0.606,0.603,1.015,0.603   c0.187,0,0.377-0.045,0.553-0.141c0.56-0.306,0.766-1.008,0.46-1.566c-0.014-0.028-1.346-2.572-0.634-4.919   c0.382-1.259,1.31-2.282,2.756-3.04c0.414-0.217,0.655-0.668,0.614-1.134c-0.001-0.02-0.16-1.956,1.022-3.249   c0.768-0.839,1.981-1.265,3.606-1.265C25.241,53.39,25.758,52.874,25.758,52.234z"/></g><text x="0" y="115" fill="#000000" font-size="5px" font-weight="bold" font-family="'Helvetica Neue', Helvetica, Arial-Unicode, Arial, Sans-serif">Created by Alberto Guerra Quintanilla</text><text x="0" y="120" fill="#000000" font-size="5px" font-weight="bold" font-family="'Helvetica Neue', Helvetica, Arial-Unicode, Arial, Sans-serif">from the Noun Project</text></svg>