<svg xmlns="http://www.w3.org/2000/svg" xmlns:xlink="http://www.w3.org/1999/xlink" version="1.1" x="0px" y="0px" viewBox="0 0 100 125" enable-background="new 0 0 100 100" xml:space="preserve"><path d="M15.09,29.536V92.25h69.82V29.536H15.09z M78.031,86.071H21.969V35.715h56.063V86.071z"/><path d="M15.09,11v15.756h69.82V11H15.09z M34.862,21.504h-14.52v-5.098h14.52V21.504z M48.455,20.731h-3.707v-3.707h3.707V20.731z   M64.829,21.757c-1.59,0-2.88-1.289-2.88-2.879s1.29-2.879,2.88-2.879c1.589,0,2.879,1.289,2.879,2.879S66.418,21.757,64.829,21.757  z M77.187,21.757c-1.59,0-2.88-1.289-2.88-2.879s1.29-2.879,2.88-2.879c1.589,0,2.879,1.289,2.879,2.879  S78.775,21.757,77.187,21.757z"/><polygon points="25.285,38.495 25.285,51.161 33.463,51.161 33.463,47.657 29.529,41.902 38.464,41.902 34.53,47.657 34.53,51.161   44.132,51.161 44.132,47.657 40.198,41.902 49.133,41.902 45.199,47.657 45.199,51.161 54.801,51.161 54.801,47.657 50.867,41.902   59.803,41.902 55.867,47.657 55.867,51.161 65.47,51.161 65.47,47.657 61.535,41.902 70.471,41.902 66.536,47.657 66.536,51.161   74.715,51.161 74.715,38.495 "/><path d="M25.285,53.633V65.99h7.827c-1.968-0.855-3.348-2.813-3.348-5.098c0-3.07,2.49-5.561,5.561-5.561s5.561,2.49,5.561,5.561  c0,2.284-1.379,4.242-3.348,5.098h10.403c-1.968-0.855-3.348-2.813-3.348-5.098c0-3.07,2.489-5.561,5.561-5.561  s5.561,2.49,5.561,5.561c0,2.284-1.379,4.242-3.347,5.098h10.402c-1.969-0.855-3.348-2.813-3.348-5.098  c0-3.07,2.489-5.561,5.561-5.561s5.561,2.49,5.561,5.561c0,2.284-1.379,4.242-3.348,5.098h7.519V53.633H25.285z"/><path d="M32.391,57.958c0,0-2.935,2.78,0,5.87C32.391,63.828,30.897,60.943,32.391,57.958z"/><path d="M47.22,57.958c0,0-2.935,2.78,0,5.87C47.22,63.828,45.726,60.943,47.22,57.958z"/><path d="M62.049,57.958c0,0-2.936,2.78,0,5.87C62.049,63.828,60.555,60.943,62.049,57.958z"/><path d="M25.285,68.462v13.284h8.952c-1.91-1.184-3.306-3.121-3.743-5.406h16.073c-0.437,2.285-1.833,4.223-3.743,5.406H56.48  c-1.909-1.184-3.306-3.121-3.743-5.406h16.074c-0.438,2.285-1.835,4.223-3.744,5.406h9.647V68.462H25.285z"/></svg>