<svg xmlns:dc="http://purl.org/dc/elements/1.1/" xmlns:cc="http://creativecommons.org/ns#" xmlns:rdf="http://www.w3.org/1999/02/22-rdf-syntax-ns#" xmlns:svg="http://www.w3.org/2000/svg" xmlns="http://www.w3.org/2000/svg" xmlns:sodipodi="http://sodipodi.sourceforge.net/DTD/sodipodi-0.dtd" xmlns:inkscape="http://www.inkscape.org/namespaces/inkscape" version="1.1" x="0px" y="0px" viewBox="0 0 100 125"><g transform="translate(0,-952.36218)"><path style="text-indent:0;text-transform:none;direction:ltr;block-progression:tb;baseline-shift:baseline;color:#000000;enable-background:accumulate;" d="m 15.217121,958.36266 c -5.0524,0 -8.8055997,4.22071 -9.1874997,9.0625 a 2.0002,2.0002 0 0 0 -0.031,0.15625 l 0,69.59379 a 2.0002,2.0002 0 0 0 0,0.062 c 0.1014,4.9991 4.1696997,9.125 9.2186997,9.125 l 69.593705,0 c 5.0491,0 9.1876,-4.1385 9.1876,-9.1875 l 0,-53.84379 a 2.0002,2.0002 0 0 0 0,-0.21875 l 0,-15.375 c 0,-5.16727 -4.1384,-9.375 -9.1876,-9.375 l -69.593705,0 z m 0,4 69.593705,0 c 2.8698,0 5.1876,2.30205 5.1876,5.375 l 0,13.40625 -80.0000047,0 0,-13.46875 c 0.2650997,-3.02469 2.3724997,-5.3125 5.2186997,-5.3125 z m 34.781305,29.75 c 11.873,0 21.4913,9.34084 21.9687,21.09374 -2.1159,2.5634 -4.1641,3.1321 -6.125,2.6875 -2.046,-0.4638 -4.2021,-2.2732 -5.5625,-5.2187 a 2.0002,2.0002 0 0 0 -1.7188,-1.1563 2.0002,2.0002 0 0 0 -1.9062,1.1875 c -1.7388,3.9469 -3.6793,5.5837 -5.3125,5.7188 -1.6333,0.135 -4.1646,-1.1848 -7.25,-5.4688 a 2.0002,2.0002 0 0 0 -3.3125,0.094 c -2.723405,4.3089 -5.294505,5.9511 -7.156205,6.0938 -1.8135,0.1389 -3.692,-0.9637 -5.5938,-3.875 0.4461,-11.7816 10.0843,-21.15629 21.968805,-21.15629 z m -7.4376,23.37504 c 2.9241,3.3933 5.9525,5.1686 9.125,4.9062 2.8252,-0.2335 5.0952,-2.0704 6.9063,-4.875 1.698,2.1638 3.894,3.7189 6.375,4.2813 2.1364,0.4843 4.4208,0.1241 6.5313,-1.0313 -2.1316,9.9223 -10.9229,17.3438 -21.5,17.3438 -10.2335,0 -18.810905,-6.9576 -21.281305,-16.4063 1.593,1.0479 3.3482,1.5809 5.2187,1.4375 3.1077,-0.238 5.979205,-2.2101 8.625005,-5.6562 z" fill="#000000" fill-opacity="1" fill-rule="evenodd" stroke="none" marker="none" visibility="visible" display="inline" overflow="visible"/><path style="text-indent:0;text-transform:none;direction:ltr;block-progression:tb;baseline-shift:baseline;color:#000000;enable-background:accumulate;" d="m 26.373421,964.99589 c -3.8419,0 -7,3.15819 -7,7 0,3.84182 3.1581,7 7,7 3.8418,0 7,-3.15818 7,-7 0,-3.84181 -3.1582,-7 -7,-7 z" fill="#000000" fill-opacity="1" fill-rule="evenodd" stroke="none" marker="none" visibility="visible" display="inline" overflow="visible"/><path style="text-indent:0;text-transform:none;direction:ltr;block-progression:tb;baseline-shift:baseline;color:#000000;enable-background:accumulate;" d="m 41.803426,970.02152 a 2.0002,2.0002 0 1 0 0,4 l 9.8174,0 a 2.0002,2.0002 0 1 0 0,-4 l -9.8174,0 z" fill="#000000" fill-opacity="1" fill-rule="evenodd" stroke="none" marker="none" visibility="visible" display="inline" overflow="visible"/><path style="text-indent:0;text-transform:none;direction:ltr;block-progression:tb;baseline-shift:baseline;color:#000000;enable-background:accumulate;" d="m 60.564626,970.02152 a 2.0002,2.0002 0 1 0 0,4 l 16.0788,0 a 2.0002,2.0002 0 1 0 0,-4 l -16.0788,0 z" fill="#000000" fill-opacity="1" fill-rule="evenodd" stroke="none" marker="none" visibility="visible" display="inline" overflow="visible"/></g></svg>