<svg xmlns="http://www.w3.org/2000/svg" viewBox="0 0 60 75" x="0px" y="0px"><title>Vacuum Cleaners - Outline - 003 - Uproght Vacuum</title><g data-name="03-Upright Vacuum"><path d="M39,52a4,4,0,1,0,4,4A4,4,0,0,0,39,52Zm0,6a2,2,0,1,1,2-2A2,2,0,0,1,39,58Z"/><path d="M59.93,58.63l-2-5a1,1,0,0,0-.79-.62l-6.47-.92c-3-6-7.53-8.2-11.58-8.3l-2.93-3.91,3.36-2A1,1,0,0,0,40,37V31a1,1,0,0,0-.25-.66l-20-23a1,1,0,0,0-1.31-.18L16.28,8.61,12.83,3.45A1,1,0,0,0,12.26,3l-11-3A1,1,0,1,0,.74,2l10.64,2.9,3.24,4.86-2.17,1.45a1,1,0,0,0-.33,1.29l16,31a1,1,0,0,0,1.4.4l1.12-.67,1.81,2.42A11.11,11.11,0,0,0,27,57.18,1,1,0,0,0,28,58h4.07a1,1,0,0,0,1-1.14A6.08,6.08,0,0,1,33,56a6,6,0,0,1,12,0,5.94,5.94,0,0,1-.58,2.57,1,1,0,0,0,.9,1.43H59a1,1,0,0,0,.93-1.37ZM38,33c-4.58-.07-8-1.1-12.86-16.41L38,31.37Zm-8.6,8.6L14.3,12.34l2.26-1.5h0l2.27-1.51L22,13a1,1,0,0,0,0,.29C27.8,33,31.81,34.85,38,35v1.44Zm3,.55,2.07-1.24L36.73,44a11.7,11.7,0,0,0-1.51.36c-.32.1-.64.22-1,.35ZM46.75,58A8,8,0,1,0,31,56H28.87c-.44-4.82,3.05-8.52,7-9.76,4.17-1.33,9.85-.14,13.27,7.19a1,1,0,0,0,.76.57l6.43.92L57.52,58Z"/></g><text x="0" y="75" fill="#000000" font-size="5px" font-weight="bold" font-family="'Helvetica Neue', Helvetica, Arial-Unicode, Arial, Sans-serif">Created by Creaticca Creative Agency</text><text x="0" y="80" fill="#000000" font-size="5px" font-weight="bold" font-family="'Helvetica Neue', Helvetica, Arial-Unicode, Arial, Sans-serif">from the Noun Project</text></svg>