<svg xmlns="http://www.w3.org/2000/svg" xmlns:xlink="http://www.w3.org/1999/xlink" version="1.1" x="0px" y="0px" viewBox="0 0 100 125" enable-background="new 0 0 100 100" xml:space="preserve"><g><path d="M50,65.188c11.683,0,21.188-9.505,21.188-21.188S61.683,22.813,50,22.813S28.813,32.317,28.813,44S38.317,65.188,50,65.188   z M50,25.313c10.305,0,18.688,8.383,18.688,18.688c0,10.305-8.383,18.688-18.688,18.688c-10.304,0-18.688-8.383-18.688-18.688   C31.313,33.696,39.696,25.313,50,25.313z"/><path d="M35,72.688c2.543,0,5.063-0.343,7.499-1.002c2.393,0.649,4.906,1.002,7.501,1.002c2.416,0,4.762-0.304,7.004-0.868   c2.277,0.57,4.628,0.868,6.996,0.868c15.818,0,28.688-12.869,28.688-28.688c0-5.001-1.307-9.925-3.777-14.239l-2.17,1.243   c2.255,3.936,3.447,8.43,3.447,12.996c0,14.439-11.748,26.188-26.188,26.188c-0.704,0-1.404-0.038-2.104-0.094   c3.161-1.446,6.019-3.445,8.439-5.882C79.094,61.467,85.188,53.207,85.188,44c0-9.207-6.094-17.466-14.851-20.211   c-2.422-2.437-5.279-4.436-8.44-5.883c0.698-0.056,1.399-0.093,2.104-0.093c4.887,0,9.653,1.354,13.784,3.917l1.318-2.124   c-4.527-2.809-9.75-4.293-15.103-4.293c-2.369,0-4.72,0.298-6.997,0.868c-2.242-0.565-4.588-0.868-7.003-0.868   c-2.595,0-5.107,0.353-7.5,1.001c-2.435-0.658-4.955-1.001-7.5-1.001C19.182,15.313,6.313,28.182,6.313,44S19.182,72.688,35,72.688   z M82.688,44c0,6.496-3.443,12.451-8.771,15.818c3.012-4.538,4.771-9.976,4.771-15.818s-1.76-11.28-4.771-15.818   C79.244,31.549,82.688,37.504,82.688,44z M76.188,44c0,14.439-11.748,26.188-26.188,26.188c-14.44,0-26.188-11.748-26.188-26.188   c0-14.44,11.748-26.188,26.188-26.188C64.439,17.813,76.188,29.56,76.188,44z M35,17.813c0.979,0,1.953,0.069,2.92,0.176   c-2.919,1.361-5.571,3.199-7.858,5.413c-8.431,2.015-14.863,9.073-16.05,17.677l2.477,0.342c0.854-6.193,4.791-11.479,10.25-14.181   C23.33,31.959,21.313,37.747,21.313,44c0,6.247,2.013,12.028,5.416,16.744c-3.464-1.711-6.356-4.46-8.22-7.947l-2.205,1.178   c2.87,5.37,7.875,9.225,13.766,10.629c2.286,2.212,4.936,4.048,7.852,5.408c-0.967,0.107-1.941,0.176-2.92,0.176   C20.56,70.188,8.813,58.439,8.813,44C8.813,29.56,20.56,17.813,35,17.813z"/><rect x="9.25" y="73.875" width="81.75" height="2.5"/><rect x="18.25" y="80" width="18" height="2.5"/><rect x="39.75" y="80" width="43.25" height="2.5"/><rect x="28.875" y="86" width="44.25" height="2.5"/><rect x="41.251" y="32.083" width="2.5" height="3.167"/><rect x="41.251" y="38.083" width="2.5" height="3.167"/><rect x="43.917" y="35.417" width="3.167" height="2.5"/><rect x="37.917" y="35.417" width="3.167" height="2.5"/><rect x="82.252" y="19.954" width="2.5" height="3.167"/><rect x="82.252" y="25.954" width="2.5" height="3.167"/><rect x="84.918" y="23.287" width="3.166" height="2.5"/><rect x="78.918" y="23.287" width="3.166" height="2.5"/><rect x="13.813" y="42.917" width="2.5" height="3.167"/><rect x="13.813" y="48.917" width="2.5" height="3.167"/><rect x="16.479" y="46.25" width="3.167" height="2.5"/><rect x="10.479" y="46.25" width="3.167" height="2.5"/><rect x="54.334" y="48.25" width="2.5" height="3.167"/><rect x="54.334" y="54.25" width="2.5" height="3.167"/><rect x="57" y="51.583" width="3.168" height="2.5"/><rect x="51" y="51.583" width="3.168" height="2.5"/></g></svg>
