<svg xmlns="http://www.w3.org/2000/svg" xmlns:xlink="http://www.w3.org/1999/xlink" viewBox="0 0 100 125" version="1.1" x="0px" y="0px"><title>i22 copy 3</title><desc>Created with Sketch.</desc><g stroke="none" stroke-width="1" fill="none" fill-rule="evenodd"><path d="M56.2226941,75.0535826 L52.11781,75.0535826 L52.11781,74.0826796 C52.11781,65.0367577 59.4772402,57.6780367 68.5224529,57.6780367 L75.6102572,57.6780367 C74.5471575,67.4352922 66.2572491,75.0535826 56.2226941,75.0535826 L56.2226941,75.0535826 L56.2226941,75.0535826 Z M47.8625743,59.8170019 L43.7583994,59.8170019 C33.7231352,59.8170019 25.433936,52.1987115 24.3708363,42.441456 L31.4586406,42.441456 C40.5038533,42.441456 47.8625743,49.8008862 47.8625743,58.8460989 L47.8625743,59.8170019 L47.8625743,59.8170019 Z M52.11781,61.5439184 L52.11781,58.8460989 L52.11781,58.7418456 L52.1156824,58.7418456 C52.0589459,47.3980964 42.8151555,38.1862203 31.4586406,38.1862203 L20,38.1862203 L20,40.3138382 C20,53.4149997 30.6579471,64.0722376 43.7583994,64.0722376 L47.8625743,64.0722376 L47.8625743,95 L52.11781,95 L52.11781,79.3088183 L56.2226941,79.3088183 C69.3231464,79.3088183 79.9810935,68.6508712 79.9810935,55.5504189 L79.9810935,53.422801 L68.5224529,53.422801 C61.8431512,53.422801 55.8971685,56.611391 52.11781,61.5439184 L52.11781,61.5439184 Z M61.9884535,30.9508812 C61.9884535,36.068125 66.3316673,40.2699523 71.4564379,40.2699523 C76.5802559,40.2699523 80.9244224,36.0677364 80.9244224,30.9508812 C80.9244224,26.5703702 79.4012555,22.4661562 76.8858223,18.7450202 C76.016934,17.4596546 75.0872432,16.3102952 74.1546065,15.3084066 C73.5850905,14.6966018 73.1304118,14.2607831 72.8475676,14.0142222 L71.472158,12.8152503 L70.083348,13.9986743 C69.798114,14.2417261 69.3411054,14.6714579 68.7693455,15.2763315 C67.8339638,16.2658863 66.901759,17.4055598 66.0307239,18.6855624 C63.5125234,22.386106 61.9884535,26.5076938 61.9884535,30.9508812 L61.9884535,30.9508812 Z M68.5938816,23.3590087 C69.7492687,21.1162745 71.6322388,19.3029635 71.6322388,19.3029635 C71.6322388,19.3029635 72.9020846,20.2741569 74.4047986,22.9014375 C76.3160998,26.2430744 76.6902929,27.5151298 76.6902929,30.9508812 C76.6902929,33.6972362 74.272709,36.0358229 71.4564379,36.0358229 C68.6393299,36.0358229 66.2225829,33.6977494 66.2225829,30.9508812 C66.2225829,27.4516983 67.4384944,25.6017428 68.5938816,23.3590087 Z M46.4633109,24.5879903 C50.2538961,24.5879903 53.4809888,21.5342082 53.4809888,17.7739649 C53.4809888,14.7434192 52.4119414,11.9254637 50.655311,9.38333319 C49.6197653,7.88472982 48.5788483,6.79082956 47.8370127,6.15821485 L46.4788321,5 L45.1077533,6.14291688 C44.3605448,6.76578203 43.3146373,7.84820986 42.2750661,9.34266924 C40.515623,11.8719972 39.4456331,14.7026984 39.4456331,17.7739649 C39.4456331,21.5344387 42.672073,24.5879903 46.4633109,24.5879903 Z M45.7509426,11.7605475 C46.2185417,11.0883396 46.7021517,11.1105414 47.171924,11.7903786 C48.4781768,13.6807392 49.2468593,15.7069481 49.2468593,17.7739649 C49.2468593,19.1419021 47.9661185,20.3538609 46.4633109,20.3538609 C44.9599631,20.3538609 43.6797625,19.1422597 43.6797625,17.7739649 C43.6797625,15.6654246 44.4475025,13.6343377 45.7509426,11.7605475 Z M46.149672,37.6080872 C46.149672,35.3182068 46.8807622,33.2551365 48.0623493,31.4432776 C48.4589928,30.83506 48.8827765,30.2944342 49.3132188,29.8192639 C49.5928175,29.5106115 49.8347903,29.2731884 50.0206226,29.1079534 L52.8663109,26.5776751 L55.6832001,29.1399759 C55.864192,29.3046099 56.101465,29.5419291 56.3765658,29.8503063 C56.8015762,30.3267262 57.2204169,30.8670443 57.612877,31.4728617 C58.7891157,33.2885513 59.518544,35.3394705 59.518544,37.6080872 C59.518544,41.3052424 56.5047974,44.3472623 52.834108,44.3472623 C49.1629989,44.3472623 46.149672,41.3052803 46.149672,37.6080872 L46.149672,37.6080872 Z M50.3838014,37.6080872 C50.3838014,38.9914778 51.5260325,40.1131329 52.834108,40.1131329 C54.1417279,40.1131329 55.2844146,38.9914778 55.2844146,37.6080872 C55.2844146,34.5010014 52.834108,32.2721519 52.834108,32.2721519 C52.834108,32.2721519 50.3838014,34.4508716 50.3838014,37.6080872 L50.3838014,37.6080872 Z" fill="#000000"/></g><text x="0" y="115" fill="#000000" font-size="5px" font-weight="bold" font-family="'Helvetica Neue', Helvetica, Arial-Unicode, Arial, Sans-serif">Created by Icon Island</text><text x="0" y="120" fill="#000000" font-size="5px" font-weight="bold" font-family="'Helvetica Neue', Helvetica, Arial-Unicode, Arial, Sans-serif">from the Noun Project</text></svg>